<svg xmlns="http://www.w3.org/2000/svg" xmlns:xlink="http://www.w3.org/1999/xlink" width="752" height="597" style="background:#f9fafb" viewBox="0 0 752 597"><defs><rect id="a" width="752" height="597" x="0" y="0"/></defs><g fill="none" fill-rule="evenodd"><rect width="752" height="597" fill="#F9FAFB"/><mask id="b" fill="#fff"><use xlink:href="#a"/></mask><g mask="url(#b)"><g stroke-linecap="round" stroke-linejoin="round"><path stroke="#F3F4F6" stroke-width="11" d="M0,5.10760212 C314.157972,23.0458871 503.594884,32.0150295 568.310737,32.0150295 C665.384516,32.0150295 666.969884,22.3447665 693.651547,0"/><line x1="504.703" x2="503.492" y2="30.42" stroke="#F3F4F6" stroke-width="11"/><polyline stroke="#F3F4F6" stroke-width="11" points="459.694 29.039 454.372 138.564 0 116.459"/><line x2="457.866" y1="40.273" y2="66.788" stroke="#F3F4F6" stroke-width="11"/><line x2="701.45" y1="293.348" y2="319.805" stroke="#F3F4F6" stroke-width="11"/><polyline stroke="#F3F4F6" stroke-width="11" points="752 77.936 729.747 97.007 677.253 505.394"/><line x1="751.879" y1="509.586" y2="479.068" stroke="#F3F4F6" stroke-width="11"/><line x1="315.401" x2="489.777" y1="547.436" y2="553.571" stroke="#F3F4F6" stroke-width="11"/><line x1="488.531" x2="492.314" y1="597" y2="499.117" stroke="#F3F4F6" stroke-width="11"/><line x1="559.914" x2="570.274" y1="501.316" y2="315.054" stroke="#F3F4F6" stroke-width="11"/><line x1="526.701" x2="531.602" y1="312.777" y2="224.693" stroke="#F3F4F6" stroke-width="11"/><line x1="693.399" x2="752" y1="379.827" y2="382.622" stroke="#F3F4F6" stroke-width="11"/><line x1="720.287" x2="752" y1="169.94" y2="178.985" stroke="#F3F4F6" stroke-width="11"/></g><g opacity=".749" transform="translate(0 56.284)"><polygon fill="#E5E7EB" points="503.492 0 502.64 19.49 500.208 19.49 499.429 47.956 501.461 47.956 498.174 101.731 539.71 102.881 540.171 98.918 547.052 98.918 547.052 100.906 689.472 107.212 690.816 73.041 693.756 73.041 694.902 51.989 692.62 51.989 694.902 9.978 653.842 7.738 653.1 22.169 543.401 15.678 543.873 1.166"/><polygon fill="#E5E7EB" points="130.587 94.747 125.228 205.957 186.114 209.03 192.071 98.775"/><polygon fill="#E5E7EB" points="259.667 134.956 254.848 212.451 333.036 216.87 337.261 138.772"/><polygon fill="#E5E7EB" points="401.153 140.251 396.485 219.701 499.594 224.154 502.479 145.935"/><polygon fill="#E5E7EB" points="0 258.77 508.475 277.094 502.479 418.098 0 399.419"/><polygon fill="#E5E7EB" points="0 457.569 104.581 462.327 105.859 444.634 303.826 450.952 300.443 540.716 101.817 540.716 103.202 522.252 0 517.81"/><polygon fill="#E5E7EB" points="519.065 540.716 522.426 477.343 657.606 481.199 659.254 463.813 751.879 467.375 752 540.716"/><polygon fill="#E5E7EB" points="752 426.864 722.699 425.1 727.133 353.627 752 355.434"/><polygon fill="#E5E7EB" points="752 307.496 737.35 306.246 743.636 154.975 752 156.207"/></g></g><g mask="url(#b)"><g transform="translate(24 -13)"><g transform="translate(27 265)"><circle cx="20" cy="20" r="20" fill="#BBE69D"/><circle cx="20" cy="20" r="19" stroke="#A8D08E" stroke-width="2"/><text fill="#111827" font-family="Manrope-Medium, Manrope" font-size="18" font-weight="400" opacity=".496">
                        <tspan x="14.793" y="26">2</tspan>
                    </text></g><g transform="translate(163 272)"><circle cx="20" cy="20" r="20" fill="#80DEB6"/><circle cx="20" cy="20" r="19" stroke="#73C9A5" stroke-width="2"/><text fill="#111827" font-family="Manrope-Medium, Manrope" font-size="18" font-weight="400" opacity=".496">
                        <tspan x="14.938" y="26">3</tspan>
                    </text></g><g transform="translate(203 147)"><circle cx="20" cy="20" r="20" fill="#FBE993"/><circle cx="20" cy="20" r="19" stroke="#E2D385" stroke-width="2"/><text fill="#111827" font-family="Manrope-Medium, Manrope" font-size="18" font-weight="400" opacity=".496">
                        <tspan x="14.775" y="26">5</tspan>
                    </text></g><g transform="translate(341 151)"><circle cx="20" cy="20" r="20" fill="#53BCDC"/><circle cx="20" cy="20" r="19" stroke="#4AAAC8" stroke-width="2"/><text fill="#111827" font-family="Manrope-Medium, Manrope" font-size="18" font-weight="400" opacity=".496">
                        <tspan x="16.346" y="26">1</tspan>
                    </text></g><g transform="translate(372 151)"><circle cx="20" cy="20" r="20" fill="#80DEB6"/><circle cx="20" cy="20" r="19" stroke="#73C9A5" stroke-width="2"/><text fill="#111827" font-family="Manrope-Medium, Manrope" font-size="18" font-weight="400" opacity=".496">
                        <tspan x="14.938" y="26">3</tspan>
                    </text></g><g transform="translate(547 370)"><circle cx="20" cy="20" r="20" fill="#FBE993"/><circle cx="20" cy="20" r="19" stroke="#E2D385" stroke-width="2"/><text fill="#111827" font-family="Manrope-Medium, Manrope" font-size="18" font-weight="400" opacity=".496">
                        <tspan x="14.775" y="26">5</tspan>
                    </text></g><g transform="translate(499 370)"><circle cx="20" cy="20" r="20" fill="#53BCDC"/><circle cx="20" cy="20" r="19" stroke="#4AAAC8" stroke-width="2"/><text fill="#111827" font-family="Manrope-Medium, Manrope" font-size="18" font-weight="400" opacity=".496">
                        <tspan x="16.346" y="26">1</tspan>
                    </text></g><g transform="translate(499 402)"><circle cx="20" cy="20" r="20" fill="#BBE69D"/><circle cx="20" cy="20" r="19" stroke="#A8D08E" stroke-width="2"/><text fill="#111827" font-family="Manrope-Medium, Manrope" font-size="18" font-weight="400" opacity=".496">
                        <tspan x="14.793" y="26">2</tspan>
                    </text></g><g transform="translate(547 402)"><circle cx="20" cy="20" r="20" fill="#53BCDC"/><circle cx="20" cy="20" r="19" stroke="#4AAAC8" stroke-width="2"/><text fill="#111827" font-family="Manrope-Medium, Manrope" font-size="18" font-weight="400" opacity=".496">
                        <tspan x="16.346" y="26">1</tspan>
                    </text></g><g transform="translate(543 469)"><circle cx="20" cy="20" r="20" fill="#80DEB6"/><circle cx="20" cy="20" r="19" stroke="#73C9A5" stroke-width="2"/><text fill="#111827" font-family="Manrope-Medium, Manrope" font-size="18" font-weight="400" opacity=".496">
                        <tspan x="14.938" y="26">3</tspan>
                    </text></g><g transform="translate(295 35)"><circle cx="20" cy="20" r="20" fill="#53BCDC"/><circle cx="20" cy="20" r="19" stroke="#4AAAC8" stroke-width="2"/><text fill="#111827" font-family="Manrope-Medium, Manrope" font-size="18" font-weight="400" opacity=".496">
                        <tspan x="16.346" y="26">1</tspan>
                    </text></g><g transform="translate(295 66)"><circle cx="20" cy="20" r="20" fill="#53BCDC"/><circle cx="20" cy="20" r="19" stroke="#4AAAC8" stroke-width="2"/><text fill="#111827" font-family="Manrope-Medium, Manrope" font-size="18" font-weight="400" opacity=".496">
                        <tspan x="16.346" y="26">1</tspan>
                    </text></g><g transform="translate(236 31)"><circle cx="20" cy="20" r="20" fill="#53BCDC"/><circle cx="20" cy="20" r="19" stroke="#4AAAC8" stroke-width="2"/><text fill="#111827" font-family="Manrope-Medium, Manrope" font-size="18" font-weight="400" opacity=".496">
                        <tspan x="16.346" y="26">1</tspan>
                    </text></g><g transform="translate(236 62)"><circle cx="20" cy="20" r="20" fill="#80DEB6"/><circle cx="20" cy="20" r="19" stroke="#73C9A5" stroke-width="2"/><text fill="#111827" font-family="Manrope-Medium, Manrope" font-size="18" font-weight="400" opacity=".496">
                        <tspan x="14.938" y="26">3</tspan>
                    </text></g><g transform="translate(177 28)"><circle cx="20" cy="20" r="20" fill="#53BCDC"/><circle cx="20" cy="20" r="19" stroke="#4AAAC8" stroke-width="2"/><text fill="#111827" font-family="Manrope-Medium, Manrope" font-size="18" font-weight="400" opacity=".496">
                        <tspan x="16.346" y="26">1</tspan>
                    </text></g><g transform="translate(177 59)"><circle cx="20" cy="20" r="20" fill="#80DEB6"/><circle cx="20" cy="20" r="19" stroke="#73C9A5" stroke-width="2"/><text fill="#111827" font-family="Manrope-Medium, Manrope" font-size="18" font-weight="400" opacity=".496">
                        <tspan x="14.938" y="26">3</tspan>
                    </text></g><g transform="translate(118 24)"><circle cx="20" cy="20" r="20" fill="#FBE993"/><circle cx="20" cy="20" r="19" stroke="#E2D385" stroke-width="2"/><text fill="#111827" font-family="Manrope-Medium, Manrope" font-size="18" font-weight="400" opacity=".496">
                        <tspan x="14.775" y="26">5</tspan>
                    </text></g><g transform="translate(118 55)"><circle cx="20" cy="20" r="20" fill="#BBE69D"/><circle cx="20" cy="20" r="19" stroke="#A8D08E" stroke-width="2"/><text fill="#111827" font-family="Manrope-Medium, Manrope" font-size="18" font-weight="400" opacity=".496">
                        <tspan x="14.793" y="26">2</tspan>
                    </text></g><g transform="translate(59 20)"><circle cx="20" cy="20" r="20" fill="#BBE69D"/><circle cx="20" cy="20" r="19" stroke="#A8D08E" stroke-width="2"/><text fill="#111827" font-family="Manrope-Medium, Manrope" font-size="18" font-weight="400" opacity=".496">
                        <tspan x="14.793" y="26">2</tspan>
                    </text></g><g transform="translate(59 51)"><circle cx="20" cy="20" r="20" fill="#FBE993"/><circle cx="20" cy="20" r="19" stroke="#E2D385" stroke-width="2"/><text fill="#111827" font-family="Manrope-Medium, Manrope" font-size="18" font-weight="400" opacity=".496">
                        <tspan x="14.775" y="26">5</tspan>
                    </text></g><g transform="translate(0 17)"><circle cx="20" cy="20" r="20" fill="#53BCDC"/><circle cx="20" cy="20" r="19" stroke="#4AAAC8" stroke-width="2"/><text fill="#111827" font-family="Manrope-Medium, Manrope" font-size="18" font-weight="400" opacity=".496">
                        <tspan x="16.346" y="26">1</tspan>
                    </text></g><g transform="translate(0 48)"><circle cx="20" cy="20" r="20" fill="#53BCDC"/><circle cx="20" cy="20" r="19" stroke="#4AAAC8" stroke-width="2"/><text fill="#111827" font-family="Manrope-Medium, Manrope" font-size="18" font-weight="400" opacity=".496">
                        <tspan x="16.346" y="26">1</tspan>
                    </text></g><g transform="translate(377 278)"><circle cx="20" cy="20" r="20" fill="#53BCDC"/><circle cx="20" cy="20" r="19" stroke="#4AAAC8" stroke-width="2"/><text fill="#111827" font-family="Manrope-Medium, Manrope" font-size="18" font-weight="400" opacity=".496">
                        <tspan x="16.346" y="26">1</tspan>
                    </text></g><g transform="translate(408 278)"><circle cx="20" cy="20" r="20" fill="#52CFCF"/><circle cx="20" cy="20" r="19" stroke="#49BBBC" stroke-width="2"/><text fill="#111827" font-family="Manrope-Medium, Manrope" font-size="18" font-weight="400" opacity=".496">
                        <tspan x="14.636" y="26">4</tspan>
                    </text></g><g transform="translate(571 285)"><circle cx="20" cy="20" r="20" fill="#53BCDC"/><circle cx="20" cy="20" r="19" stroke="#4AAAC8" stroke-width="2"/><text fill="#111827" font-family="Manrope-Medium, Manrope" font-size="18" font-weight="400" opacity=".496">
                        <tspan x="16.346" y="26">1</tspan>
                    </text></g><g transform="translate(598 285)"><circle cx="20" cy="20" r="20" fill="#80DEB6"/><circle cx="20" cy="20" r="19" stroke="#73C9A5" stroke-width="2"/><text fill="#111827" font-family="Manrope-Medium, Manrope" font-size="18" font-weight="400" opacity=".496">
                        <tspan x="14.938" y="26">3</tspan>
                    </text></g><g transform="translate(627 285)"><circle cx="20" cy="20" r="20" fill="#FBE993"/><circle cx="20" cy="20" r="19" stroke="#E2D385" stroke-width="2"/><text fill="#111827" font-family="Manrope-Medium, Manrope" font-size="18" font-weight="400" opacity=".496">
                        <tspan x="14.775" y="26">5</tspan>
                    </text></g><g transform="translate(291 312)"><circle cx="20" cy="20" r="20" fill="#FBE993"/><circle cx="20" cy="20" r="19" stroke="#E2D385" stroke-width="2"/><text fill="#111827" font-family="Manrope-Medium, Manrope" font-size="18" font-weight="400" opacity=".496">
                        <tspan x="14.775" y="26">5</tspan>
                    </text></g><g transform="translate(231 312)"><circle cx="20" cy="20" r="20" fill="#52CFCF"/><circle cx="20" cy="20" r="19" stroke="#49BBBC" stroke-width="2"/><text fill="#111827" font-family="Manrope-Medium, Manrope" font-size="18" font-weight="400" opacity=".496">
                        <tspan x="14.636" y="26">4</tspan>
                    </text></g><g transform="translate(82 456)"><circle cx="20" cy="20" r="20" fill="#53BCDC"/><circle cx="20" cy="20" r="19" stroke="#4AAAC8" stroke-width="2"/><text fill="#111827" font-family="Manrope-Medium, Manrope" font-size="18" font-weight="400" opacity=".496">
                        <tspan x="16.346" y="26">1</tspan>
                    </text></g><g transform="translate(352 509)"><circle cx="20" cy="20" r="20" fill="#80DEB6"/><circle cx="20" cy="20" r="19" stroke="#73C9A5" stroke-width="2"/><text fill="#111827" font-family="Manrope-Medium, Manrope" font-size="18" font-weight="400" opacity=".496">
                        <tspan x="14.938" y="26">3</tspan>
                    </text></g><g transform="translate(261 312)"><circle cx="20" cy="20" r="20" fill="#53BCDC"/><circle cx="20" cy="20" r="19" stroke="#4AAAC8" stroke-width="2"/><text fill="#111827" font-family="Manrope-Medium, Manrope" font-size="18" font-weight="400" opacity=".496">
                        <tspan x="16.346" y="26">1</tspan>
                    </text></g><g transform="translate(112 456)"><circle cx="20" cy="20" r="20" fill="#FBE993"/><circle cx="20" cy="20" r="19" stroke="#E2D385" stroke-width="2"/><text fill="#111827" font-family="Manrope-Medium, Manrope" font-size="18" font-weight="400" opacity=".496">
                        <tspan x="14.775" y="26">5</tspan>
                    </text></g><g transform="translate(469 514)"><circle cx="20" cy="20" r="20" fill="#FBE993"/><circle cx="20" cy="20" r="19" stroke="#E2D385" stroke-width="2"/><text fill="#111827" font-family="Manrope-Medium, Manrope" font-size="18" font-weight="400" opacity=".496">
                        <tspan x="14.775" y="26">5</tspan>
                    </text></g><g transform="translate(397 469)"><circle cx="20" cy="20" r="20" fill="#53BCDC"/><circle cx="20" cy="20" r="19" stroke="#4AAAC8" stroke-width="2"/><text fill="#111827" font-family="Manrope-Medium, Manrope" font-size="18" font-weight="400" opacity=".496">
                        <tspan x="16.346" y="26">1</tspan>
                    </text></g><g transform="translate(321 465)"><circle cx="20" cy="20" r="20" fill="#FBE993"/><circle cx="20" cy="20" r="19" stroke="#E2D385" stroke-width="2"/><text fill="#111827" font-family="Manrope-Medium, Manrope" font-size="18" font-weight="400" opacity=".496">
                        <tspan x="14.775" y="26">5</tspan>
                    </text></g><g transform="translate(258 465)"><circle cx="20" cy="20" r="20" fill="#52CFCF"/><circle cx="20" cy="20" r="19" stroke="#49BBBC" stroke-width="2"/><text fill="#111827" font-family="Manrope-Medium, Manrope" font-size="18" font-weight="400" opacity=".496">
                        <tspan x="14.636" y="26">4</tspan>
                    </text></g><g transform="translate(578)"><circle cx="20" cy="20" r="20" fill="#52CFCF"/><circle cx="20" cy="20" r="19" stroke="#49BBBC" stroke-width="2"/><text fill="#111827" font-family="Manrope-Medium, Manrope" font-size="18" font-weight="400" opacity=".496">
                        <tspan x="14.636" y="26">4</tspan>
                    </text></g></g></g></g></svg>