<svg xmlns="http://www.w3.org/2000/svg" xmlns:xlink="http://www.w3.org/1999/xlink" width="752" height="597" style="background:#f9fafb" viewBox="0 0 752 597"><defs><rect id="a" width="752" height="597" x="0" y="0"/><rect id="c" width="752" height="596" x="0" y="0"/></defs><g fill="none" fill-rule="evenodd"><rect width="752" height="597" fill="#F9FAFB"/><mask id="b" fill="#fff"><use xlink:href="#a"/></mask><g mask="url(#b)"><g transform="translate(0 1)"><mask id="d" fill="#fff"><use xlink:href="#c"/></mask><rect width="752" height="103" y="493" fill="#FBE993" mask="url(#d)" transform="rotate(-180 376 544.5)"/><rect width="752" height="104.248" y="286" fill="#53BCDC" mask="url(#d)" transform="rotate(-180 376 338.124)"/><rect width="752" height="104.248" y="389" fill="#80DEB6" mask="url(#d)" transform="rotate(-180 376 441.124)"/></g></g><g mask="url(#b)" style="mix-blend-mode:multiply"><g transform="translate(289 -3.825)"><path stroke="#9CA3AF" stroke-linecap="round" stroke-linejoin="round" stroke-width="7.65" d="M196,268.824859 C196,305.011258 196,399.379665 196,423.051433 C196,446.723201 200.736472,470.996669 208.972014,483.665394 C217.207556,496.334119 226,513.343158 226,541.824859"/><path stroke="#9CA3AF" stroke-linecap="round" stroke-linejoin="round" stroke-width="7.65" d="M186 574.824859C201.283586 553.236422 225.312611 519.618427 207.96063 480.824859M273.771219 525.824859C273.771219 494.224317 293 489.03026 293 460.120218 293 431.210176 281.800029 379.706605 269.5 350.672998 257.199971 321.639391 246 306.136298 246 268.824859"/><path stroke="#9CA3AF" stroke-linecap="round" stroke-linejoin="round" stroke-width="7.65" d="M297.04782,573.824859 C308.961687,546.016021 315.356021,524.671437 304.251787,492.435028 C296.848964,470.944088 292.431701,451.407365 291,433.824859"/><path stroke="#9CA3AF" stroke-linecap="round" stroke-linejoin="round" stroke-width="7.65" d="M339 540.824859C312.108487 513.690131 304.089688 499.92334 293 451.824859M357 466.824859C342.864756 429.39263 330.031663 428.507323 307.043806 417.378593 284.055949 406.249863 278.696814 365.842857 261 333.824859"/><path stroke="#9CA3AF" stroke-linecap="round" stroke-linejoin="round" stroke-width="7.65" d="M240.67254,466.824859 C232.655299,457.346684 230.423032,437.306735 252.444736,441.098764 C274.466439,444.890793 269.89708,428.105541 268.998847,423.831604 C259.35366,397.940365 258.738127,296.893709 258.738127,284.824859" transform="matrix(-1 0 0 1 505 0)"/><path stroke="#9CA3AF" stroke-linecap="round" stroke-linejoin="round" stroke-width="7.65" d="M246,3.8248589 C246,141.967282 246,230.005666 246,267.94001 C246,324.841526 273.817783,358.007622 313,371.773052 C352.182217,385.538482 365,412.283545 381.5,461.931 C392.5,495.029303 406.333333,514.993923 423,521.824859"/><path stroke="#9CA3AF" stroke-linecap="round" stroke-linejoin="round" stroke-width="7.65" d="M436,469.824859 C403.371895,469.824859 380,400.505721 324,375.824859"/><path stroke="#9CA3AF" stroke-linecap="round" stroke-linejoin="round" stroke-width="7.65" d="M308,418.661069 C339.374125,434.827891 351.825357,429.718535 380.848672,402.418504 C400.197549,384.218484 420.914658,381.949989 443,395.613019"/><path stroke="#9CA3AF" stroke-linecap="round" stroke-linejoin="round" stroke-width="7.65" d="M423 425.824859C406.83315 406.203963 399.960524 390.150232 373 409.716176M175.302671 541.824859C175.302671 511.916983 172.165015 508.208821 163.293583 483.665394 154.422151 459.121967 155.605343 433.894919 175.302671 386.487852 195 339.080784 195 292.678259 195 268.824859M85 529.824859C112.610175 521.7514 129.649828 505.942667 136.118962 482.398659 145.822661 447.082648 146.082253 389.282258 169 351.824859"/><path stroke="#9CA3AF" stroke-linecap="round" stroke-linejoin="round" stroke-width="7.65" d="M0,395.072572 C30.7977767,386.447125 47.4619043,393.892846 83.06709,418.377363 C118.672276,442.86188 165.871294,360.017526 186,321.824859"/><path stroke="#9CA3AF" stroke-linecap="round" stroke-linejoin="round" stroke-width="7.65" d="M23,417.824859 C39.866532,393.342564 52.721907,396.293306 75,412.019105"/><path stroke="#9CA3AF" stroke-linecap="round" stroke-linejoin="round" stroke-width="7.65" d="M37,525.824859 C37.809761,514.837229 39.5827727,500.684294 42.319035,483.366055 C53.2945529,413.900258 73.4873685,391.041225 130.821112,371.921706 C169.043608,359.17536 190.436571,324.524192 195,267.968202 L195,3.8248589"/><path stroke="#9CA3AF" stroke-linecap="round" stroke-linejoin="round" stroke-width="7.65" d="M18 453.824859C32 450.822976 46 440.15631 60 421.824859M56 476.824859C63.3313023 442.015205 78.4203021 432.578199 108 419.824859M176 433.824859C176 398.611459 193.859981 375.143465 196 336.824859"/><path fill="#9CA3AF" d="M196,0 L246,0 L246,310.824859 L234.988471,301.66555 C224.338445,292.806937 208.523568,294.259164 199.664955,304.909189 C198.174367,306.701209 196.940846,308.692256 196,310.824859 L196,310.824859 L196,310.824859 L196,0 Z"/><path stroke="#9CA3AF" stroke-linecap="round" stroke-width="7.717" d="M196,323.601835 C197.46763,306.417184 205.634297,297.824859 220.5,297.824859 C235.365703,297.824859 243.53237,306.824859 245,324.824859"/><path fill="#9CA3AF" stroke="#9CA3AF" stroke-linecap="round" stroke-linejoin="round" stroke-width="7.717" d="M180.995215,330.008395 C185.873682,319.872455 195.904326,312.4545 196,333.824859 L195.152163,300.824859 C182.461886,327.037843 177.742903,336.765689 180.995215,330.008395 Z"/><path fill="#9CA3AF" stroke="#9CA3AF" stroke-linecap="round" stroke-linejoin="round" stroke-width="7.717" d="M245,332.312803 C249.177118,321.852947 260,325.92263 259.520812,337.824859 C259.425606,327.787698 259.347173,320.246635 259.285516,315.201668 C259.238536,311.357746 259.476698,305.565476 260,297.824859 L245,332.312803 Z" transform="matrix(-1 0 0 1 505 0)"/></g></g><text fill="#4B5563" font-family="Manrope-Bold, Manrope" font-size="24" font-weight="bold" mask="url(#b)" style="mix-blend-mode:multiply">
            <tspan x="88" y="349">Gut</tspan>
        </text><text fill="#4B5563" font-family="Manrope-Bold, Manrope" font-size="24" font-weight="bold" mask="url(#b)" style="mix-blend-mode:multiply">
            <tspan x="88" y="452">Mäßig</tspan>
        </text><text fill="#4B5563" font-family="Manrope-Bold, Manrope" font-size="24" font-weight="bold" mask="url(#b)" style="mix-blend-mode:multiply">
            <tspan x="88" y="555">Kritisch</tspan>
        </text><g mask="url(#b)"><g transform="translate(25 517)"><circle cx="28.509" cy="27.491" r="22.4" fill="#FB9393"/><g opacity=".751" style="mix-blend-mode:multiply"><polygon points="0 0 56 0 56 56 0 56"/><circle cx="28" cy="28" r="21" stroke="#111827" stroke-linecap="round" stroke-linejoin="round" stroke-width="4"/><line x1="21" x2="21.023" y1="23.333" y2="23.333" stroke="#111827" stroke-linecap="round" stroke-linejoin="round" stroke-width="4"/><line x1="35" x2="35.023" y1="23.333" y2="23.333" stroke="#111827" stroke-linecap="round" stroke-linejoin="round" stroke-width="4"/><path stroke="#111827" stroke-linecap="round" stroke-linejoin="round" stroke-width="4" d="M22.1666667,35.5833333 C23.7027265,34.0155989 25.8051718,33.1321427 28,33.1321427 C30.1948282,33.1321427 32.2972735,34.0155989 33.8333333,35.5833333"/></g></g></g><g mask="url(#b)"><g transform="translate(25 414)"><circle cx="28.509" cy="27.491" r="22.4" fill="#BBE69D"/><g opacity=".751" style="mix-blend-mode:multiply"><polygon points="0 0 56 0 56 56 0 56"/><circle cx="28" cy="28" r="21" stroke="#111827" stroke-linecap="round" stroke-linejoin="round" stroke-width="4"/><line x1="21" x2="21.023" y1="23.333" y2="23.333" stroke="#111827" stroke-linecap="round" stroke-linejoin="round" stroke-width="4"/><line x1="35" x2="35.023" y1="23.333" y2="23.333" stroke="#111827" stroke-linecap="round" stroke-linejoin="round" stroke-width="4"/><line x1="21" x2="35" y1="35" y2="35" stroke="#111827" stroke-linecap="round" stroke-linejoin="round" stroke-width="4"/></g></g></g><g mask="url(#b)"><g transform="translate(25 311)"><circle cx="28.509" cy="27.491" r="22.4" fill="#FBE993"/><g opacity=".751" style="mix-blend-mode:multiply"><polygon points="0 0 56 0 56 56 0 56"/><circle cx="28" cy="28" r="21" stroke="#111827" stroke-linecap="round" stroke-linejoin="round" stroke-width="4"/><line x1="21" x2="21.023" y1="23.333" y2="23.333" stroke="#111827" stroke-linecap="round" stroke-linejoin="round" stroke-width="4"/><line x1="35" x2="35.023" y1="23.333" y2="23.333" stroke="#111827" stroke-linecap="round" stroke-linejoin="round" stroke-width="4"/><path stroke="#111827" stroke-linecap="round" stroke-linejoin="round" stroke-width="4" d="M22.1666667,35 C23.7027265,36.5677345 25.8051718,37.4511906 28,37.4511906 C30.1948282,37.4511906 32.2972735,36.5677345 33.8333333,35"/></g></g></g></g></svg>