<svg xmlns="http://www.w3.org/2000/svg" xmlns:xlink="http://www.w3.org/1999/xlink" width="752" height="597" style="background:#f9fafb" viewBox="0 0 752 597"><defs><linearGradient id="f" x1="50%" x2="50%" y1="0%" y2="100%"><stop offset="0%" stop-color="#53BCDC" stop-opacity="0"/><stop offset="100%" stop-color="#53BCDC"/></linearGradient><linearGradient id="h" x1="50%" x2="50%" y1="0%" y2="100%"><stop offset="0%" stop-color="#80DEB6" stop-opacity="0"/><stop offset="100%" stop-color="#80DEB6"/></linearGradient><linearGradient id="i" x1="50%" x2="50%" y1="0%" y2="100%"><stop offset="0%" stop-color="#80DEB6" stop-opacity="0"/><stop offset="100%" stop-color="#80DEB6"/></linearGradient><linearGradient id="j" x1="50%" x2="50%" y1="0%" y2="100%"><stop offset="0%" stop-color="#FBE993" stop-opacity="0"/><stop offset="100%" stop-color="#FBE993"/></linearGradient><linearGradient id="k" x1="50%" x2="50%" y1="0%" y2="100%"><stop offset="0%" stop-color="#FBE993" stop-opacity="0"/><stop offset="100%" stop-color="#FBE993"/></linearGradient><linearGradient id="l" x1="50%" x2="50%" y1="0%" y2="100%"><stop offset="0%" stop-color="#80DEB6" stop-opacity="0"/><stop offset="100%" stop-color="#80DEB6"/></linearGradient><linearGradient id="q" x1="50%" x2="50%" y1="0%" y2="100%"><stop offset="0%" stop-color="#FBE993" stop-opacity="0"/><stop offset="100%" stop-color="#FBE993"/></linearGradient><rect id="a" width="752" height="597" x="0" y="0"/><rect id="c" width="376" height="596" x="0" y="0"/><rect id="m" width="376" height="596" x="0" y="0"/><path id="e" d="M168.050149,0 L168.050149,271.230907 C168.050149,283.32854 173.229442,292.165545 182.387054,297.98464 C189.630165,302.587189 199.116185,305.009401 207.736116,305.081744 L208.133333,305.083414 C223.432592,305.083414 238.314159,310.577905 254.168299,323.14536 C254.661761,323.513968 255.146413,323.883399 255.623328,324.254402 C256.503983,323.769997 257.406764,323.258654 258.333868,322.720286 C258.442778,322.62995 258.5645,322.551997 258.697801,322.488525 L258.875902,322.404082 C260.671616,321.351814 262.558749,320.199947 264.557242,318.945825 C279.285457,309.703375 295.131584,308.54579 311.904058,315.468257 C312.808535,315.84156 313.238918,316.876876 312.865345,317.7807 C312.491772,318.684524 311.455708,319.114596 310.551231,318.741293 C297.660672,313.421 285.50046,313.180181 273.965092,318.016187 C278.846139,317.862666 283.023979,319.383962 287.36532,322.432685 L287.628156,322.621485 L287.957784,322.866285 C288.939285,323.60447 290.449173,324.810055 291.974591,326.046608 L292.340727,326.343752 L296.380081,329.656974 C297.008158,330.176403 297.391413,330.49542 297.376795,330.483779 C298.142111,331.093197 298.268134,332.207191 297.658276,332.971954 C297.068746,333.711225 296.007378,333.853544 295.245968,333.311726 L295.146566,333.235285 C294.948046,333.070904 293.424894,331.806341 291.609486,330.319418 L290.042083,329.040313 L288.6944,327.950006 C287.37214,326.885894 286.175194,325.941822 285.48607,325.443035 L285.327724,325.330004 C278.283617,320.383253 272.070752,320.093096 260.489661,325.558579 C259.840735,325.937396 259.202939,326.303223 258.575019,326.656892 C260.186833,328.030095 261.701303,329.430577 263.125823,330.869517 L263.862507,331.523908 C275.844784,342.103449 285.364991,347.350259 292.246177,347.350259 C293.224766,347.350259 294.018068,348.142989 294.018068,349.120871 C294.018068,350.098752 293.224766,350.891482 292.246177,350.891482 C286.721508,350.891482 280.12632,348.194928 272.40132,342.83053 C276.271597,349.353852 279.105145,356.854958 281.313843,365.955936 C281.544478,366.906271 280.960489,367.863501 280.009467,368.09397 C279.058445,368.324438 278.100523,367.740871 277.869888,366.790536 C274.346257,352.271359 269.254077,342.128 260.68892,333.442402 C260.345069,333.135706 259.99943,332.823981 259.652023,332.50821 L259.243725,332.135977 C257.865193,330.875452 256.497111,329.670473 255.138477,328.519897 L255.228769,328.473699 C245.51139,333.533518 238.034588,335.396134 229.239512,334.512884 C236.999757,339.644505 242.804419,346.606055 248.924353,357.452518 C249.404975,358.304332 249.103565,359.384204 248.251134,359.864479 C247.398703,360.344754 246.318051,360.043562 245.837429,359.191747 C236.670779,342.945539 228.527835,336.044577 212.528662,330.501048 L211.728545,330.230707 C211.594305,330.184928 211.459613,330.138798 211.324456,330.092335 L211.294852,330.081354 L210.715138,329.889276 L209.379097,329.453628 C203.899679,327.656705 199.800911,326.077422 196.211994,324.087874 C200.849439,331.696891 203.723623,339.827917 204.587038,347.979861 L204.676954,348.333277 C204.710886,348.399697 204.740169,348.469381 204.765228,348.541728 L205.231967,349.87873 C212.810046,371.410565 218.278211,378.100349 238.015805,391.357354 C238.827979,391.902861 239.043836,393.003003 238.497935,393.814591 C237.952033,394.626178 236.851095,394.841879 236.038921,394.296372 L235.186508,393.721843 C226.747378,388.013397 220.844578,383.392423 216.244731,378.243426 C217.135232,382.328761 217.160948,386.253779 216.386557,390.189868 C215.234232,396.046916 212.543713,401.573178 207.254235,409.879634 C206.728874,410.704647 205.633696,410.947871 204.808087,410.422889 C203.982477,409.897907 203.739077,408.80352 204.264439,407.978507 L204.698939,407.293066 C209.479919,399.715294 211.893941,394.667806 212.909336,389.506743 C214.107705,383.415659 213.137642,377.348889 209.5845,370.282768 L209.416053,369.950808 C207.375837,365.966004 205.640943,362.111316 204.212122,358.38621 C203.851715,359.76655 203.342092,361.090303 202.68866,362.38489 C201.658944,364.424975 200.525343,366.047088 198.39463,368.708228 L197.108103,370.304141 L196.752278,370.749558 C194.791974,373.214933 193.767785,374.709443 192.839083,376.571383 C191.514759,379.226499 190.833009,382.032404 190.833009,385.350838 C190.833009,386.328719 190.039706,387.121449 189.061117,387.121449 C188.082529,387.121449 187.289226,386.328719 187.289226,385.350838 C187.289226,381.475435 188.102032,378.13014 189.667428,374.991703 L189.841034,374.649126 L190.03233,374.28428 C191.061057,372.357474 192.2412,370.709614 194.328473,368.107396 L195.261041,366.951693 C199.768007,361.367793 201.318909,358.295127 201.318909,353.160807 C201.318909,351.643666 201.241442,350.121835 201.088261,348.599126 C200.409077,345.890832 199.91514,343.260339 199.60614,340.707284 L199.597481,340.616551 L199.490405,340.229287 C197.006114,331.389297 192.047182,322.75816 184.962916,315.096052 C184.594828,314.713203 184.221468,314.317831 183.842148,313.909686 L183.957891,314.030412 C179.970518,309.88516 176.792929,306.164028 174.213021,302.49554 C172.793635,300.753416 171.052445,299.722123 169.801659,299.822819 C168.380596,299.937224 167.163617,301.635507 166.620232,305.654046 C166.604216,305.772489 166.580015,305.883807 166.548536,305.98811 C166.514124,306.365528 166.478523,306.745076 166.441728,307.125993 L166.355258,307.998025 C165.326421,318.108093 163.594949,325.984658 160.941504,330.974168 C160.48228,331.83769 159.409476,332.165706 158.54533,331.706813 C157.681184,331.24792 157.352931,330.175891 157.812155,329.31237 C160.196596,324.82869 161.846628,317.308909 162.832598,307.610506 L162.91434,306.785755 C163.080163,305.069082 163.22137,303.379133 163.340951,301.696798 C163.328288,293.156619 161.009706,289.373529 156.488755,289.373529 C151.850966,289.373529 149.033013,292.812827 147.983117,300.392781 L147.917846,300.883666 L147.91829,336.898186 C147.91829,348.344849 151.427784,359.489107 156.93741,365.196842 L157.104979,365.368134 C161.052877,369.349824 163.882697,372.926015 166.091744,377.14238 C168.872469,382.449895 170.350933,388.347201 170.350933,395.127178 C170.350933,396.10506 169.55763,396.897789 168.579042,396.897789 C167.600453,396.897789 166.80715,396.10506 166.80715,395.127178 C166.80715,388.924627 165.469782,383.590124 162.952206,378.784877 C162.178099,377.307354 161.315351,375.909107 160.336249,374.535224 C161.139285,378.935447 160.663857,383.368304 159.028598,387.824699 C156.793839,393.914845 152.637166,399.662079 146.444708,406.077994 L146.116908,406.416296 C145.891524,406.648005 145.673494,406.870953 145.458072,407.089844 L144.814881,407.739055 L144.046271,408.50336 C142.989712,409.545879 141.765968,410.72202 139.892634,412.509847 C139.184944,413.185236 138.063341,413.159465 137.387464,412.452285 C136.711587,411.745106 136.737377,410.624313 137.445067,409.948925 L139.28021,408.193233 C140.48816,407.033289 141.366078,406.178038 142.196056,405.348069 L142.931684,404.606498 L143.575756,403.948072 C149.63302,397.720844 153.634449,392.23852 155.70144,386.605573 C158.237123,379.695352 157.581822,373.004562 153.091604,366.222017 C153.065003,366.181836 153.040257,366.140969 153.017343,366.099515 C147.60665,359.383044 144.374507,348.256157 144.374507,336.898186 L144.375237,318.07349 C143.322325,320.034757 142.009444,322.021883 140.38934,324.226339 L139.013132,326.080114 C134.563455,332.0886 132.963194,335.770971 132.963194,342.219925 C132.963194,343.197806 132.169892,343.990536 131.191303,343.990536 C130.212715,343.990536 129.419412,343.197806 129.419412,342.219925 C129.419412,338.175267 130.126395,334.743365 131.506768,331.566982 C132.521303,329.232428 133.704248,327.331165 135.767235,324.513056 L137.322782,322.415206 L137.736136,321.852831 L138.139508,321.29464 C142.097849,315.76615 143.807165,311.795072 144.374782,305.334831 L144.374342,302.44828 C144.344985,302.3329 144.3249,302.20959 144.315314,302.078282 L144.302581,301.902692 L144.273603,301.586609 C144.004622,298.920215 143.272938,298.139069 142.178482,298.264928 C140.782644,298.425444 138.76673,299.857833 137.20661,301.857155 L137.142246,301.939802 C137.079942,302.019805 137.015089,302.09241 136.948138,302.157954 C136.001582,303.484815 134.975202,304.8697 133.86336,306.32162 C133.824261,306.38773 133.780314,306.4515 133.731622,306.513039 L133.29845,307.055587 L132.656051,307.88168 C131.4619,309.409313 130.177082,311.009739 128.795642,312.692471 L127.643692,314.087809 C110.180488,335.126805 106.954554,353.113614 115.955205,365.578282 L117.137379,367.195587 L120.922693,372.311166 L121.268377,372.785275 C122.728313,374.796729 123.702434,376.26292 124.525541,377.72994 C127.113605,382.342636 128.051772,386.911382 128.051772,395.127178 C128.051772,396.10506 127.258469,396.897789 126.27988,396.897789 C125.301292,396.897789 124.507989,396.10506 124.507989,395.127178 L124.505782,394.451131 C124.457792,387.231356 123.621323,383.359419 121.434451,379.461765 L121.259537,379.154522 L121.069882,378.830921 C120.392212,377.691162 119.562806,376.46662 118.392008,374.85383 L113.92934,368.81292 C113.633373,368.409527 113.36902,368.04764 113.158026,367.756296 L113.081447,367.650406 C110.394101,363.928799 108.673128,359.80131 107.941935,355.329475 L106.424819,360.606659 C106.409155,360.661107 106.390885,360.714774 106.370072,360.767472 C106.144265,361.339208 105.917941,361.900662 105.691029,362.452058 C102.130936,371.103056 98.4180874,377.320206 94.1073461,382.09928 C90.6722156,385.907614 87.1575519,388.616605 81.6676593,391.982064 L80.4164748,392.739364 L75.3827882,395.733689 C74.5437807,396.237013 73.4553107,395.96538 72.9516224,395.126978 C72.4479341,394.288577 72.7197641,393.200893 73.5587716,392.697569 L79.0607969,389.422213 L79.8131527,388.964446 C85.0368545,385.76227 88.3052547,383.242528 91.4750434,379.728363 C94.8279544,376.011181 97.8254614,371.305539 100.710514,365.026313 C100.731508,364.939881 100.759423,364.854464 100.794329,364.770197 L101.194286,363.789242 L101.422715,363.213645 L101.646141,362.63846 L101.927431,361.895621 C102.995596,359.033223 103.962624,355.957202 105.351576,351.189012 L106.512201,347.186215 L106.858873,346.003376 C107.423923,344.083929 107.927382,342.418488 108.400615,340.92093 L108.430009,340.819183 C108.443601,340.771934 108.458991,340.725688 108.476084,340.680499 L108.751976,339.821416 C109.434492,337.718217 110.067457,335.936355 110.75356,334.195229 L110.900164,333.825827 C111.342591,332.718861 111.809546,331.620368 112.327504,330.457657 C113.530472,327.75724 114.862113,325.170179 116.354875,322.668298 C112.000246,325.642216 107.37762,328.149851 102.635771,330.048555 C100.116378,331.057356 97.5879133,331.888202 95.0592346,332.535594 C78.3529625,338.626481 69.0678106,348.186775 64.3060583,363.341031 C64.0129011,364.274002 63.0183809,364.792845 62.0847351,364.4999 C61.1510894,364.206955 60.6318707,363.213153 60.9250279,362.280182 C64.8765356,349.704525 71.8188924,340.65729 82.9745172,334.210667 C75.9102486,334.344377 68.9560902,332.950555 62.3108687,329.906714 L60.5712127,329.113198 L59.3812419,328.574564 C58.5971057,328.22083 57.8311532,327.877748 57.0823565,327.544975 L57.2050025,327.393633 C53.8060179,331.616871 50.3958024,335.238077 46.9728958,338.253462 C41.2365024,346.346543 37.0455647,355.889865 34.4584858,366.728666 L34.2302368,367.691232 L33.8996566,369.109278 C32.2102439,376.433758 31.0997116,382.491042 30.5674454,387.271853 C30.4592416,388.243738 29.5830868,388.943954 28.6104987,388.835829 C27.6379107,388.727703 26.9371888,387.852181 27.0453926,386.880296 C27.6526458,381.425952 28.9749249,374.439067 31.0113979,365.90708 C32.9157282,357.928716 35.6636057,350.614962 39.226971,344.025785 C34.7126315,346.784084 30.1731874,348.494053 25.6067257,349.148321 C24.6380435,349.287111 23.7401789,348.614917 23.6012889,347.646935 C23.462399,346.678953 24.1350784,345.781737 25.1037606,345.642947 C31.4495684,344.73374 37.8591129,341.485823 44.3203426,335.868348 C46.9060673,332.260775 49.7871797,328.929744 52.957293,325.887944 L53.029616,325.819427 L52.3385663,325.526942 C45.4956623,322.657472 40.6630782,321.445794 36.2684339,321.570891 C30.6572842,321.730615 25.5455498,324.189993 19.6659895,329.708607 C18.9527097,330.378098 17.8313595,330.343019 17.1613839,329.630254 C16.4914083,328.91749 16.5265133,327.796949 17.2397932,327.127458 C22.3504864,322.33051 27.1068315,319.551506 32.1139966,318.50433 C31.648806,318.399656 31.1858818,318.299901 30.7241128,318.205063 C21.8251486,316.377406 13.3160931,316.493711 2.09737641,318.586568 C1.1354073,318.766024 0.209994413,318.132235 0.0304088628,317.170961 C-0.149176688,316.209687 0.485070496,315.284942 1.4470396,315.105487 C13.0934734,312.932839 22.0594664,312.810287 31.4375441,314.736345 L31.9521712,314.843874 C38.7479727,316.288129 45.7682093,318.743849 55.9490013,323.176767 C69.2556715,311.790403 87.101378,305.041936 109.093186,303.771283 C131.734523,302.260078 143.092673,292.943582 143.767373,275.491166 L143.779221,274.888069 C143.787195,274.399735 143.792372,273.86394 143.795461,273.262988 C143.788345,272.616089 143.767073,271.959007 143.73227,271.291544 L143.729869,271.19941 L143.729869,0 L168.050149,0 Z M174,296 C174.150891,296.25865 174.30461,296.517181 174.461258,296.775657 L177.172315,300.78753 C177.237728,300.884347 177.292703,300.981325 177.337947,301.077968 C177.547507,301.365315 177.760787,301.653086 177.977816,301.94138 L178.003303,301.970321 L179.195624,303.40344 L180.086352,304.46654 C182.228639,307.014334 184.118847,309.192489 185.865728,311.079709 L186.203562,311.430692 C186.617001,311.858781 187.024061,312.290046 187.424682,312.724366 C194.312644,319.809521 199.324978,322.35075 210.096653,325.874133 L211.028704,326.176891 C211.842075,326.439369 212.637502,326.70452 213.41585,326.973123 L214.384185,327.293768 C230.056979,332.42725 238.78384,332.468425 251.99534,325.901982 L251.877332,325.807935 L252,325.899666 C251.710649,325.682707 251.417956,325.466737 251.122317,325.251141 C251.0202,325.176672 250.928409,325.093388 250.847226,325.003112 C236.114515,313.606657 222.397789,308.60312 208.374534,308.486442 L207.871248,308.48435 C198.491577,308.48435 188.146412,305.899172 180.163125,300.846591 C177.886066,299.405452 175.826051,297.789584 174,296 Z M134,301 C128.058584,304.669807 120.192351,306.883195 110.440941,307.619105 L109.65973,307.674631 C89.2069052,308.856163 72.5656609,314.894454 60,325.108233 C61.3506394,325.712919 62.7534917,326.348672 64.215159,327.018054 C73.7830112,331.399732 84.0550958,332.084171 94.3964751,329.470611 C96.3224208,328.771896 98.3390308,328.119154 100.448907,327.509547 C100.553463,327.479337 100.658546,327.4592 100.763113,327.448564 C101.068198,327.333108 101.373197,327.213821 101.678127,327.091747 C112.789211,322.643596 123.267814,314.626535 130.901385,305.140082 C132.021216,303.690248 133.052147,302.313532 134,301 Z"/><path id="o" d="M168.050149,0 L168.050149,271.230907 C168.050149,283.32854 173.229442,292.165545 182.387054,297.98464 C189.630165,302.587189 199.116185,305.009401 207.736116,305.081744 L208.133333,305.083414 C223.432592,305.083414 238.314159,310.577905 254.168299,323.14536 C254.661761,323.513968 255.146413,323.883399 255.623328,324.254402 C256.503983,323.769997 257.406764,323.258654 258.333868,322.720286 C258.442778,322.62995 258.5645,322.551997 258.697801,322.488525 L258.875902,322.404082 C260.671616,321.351814 262.558749,320.199947 264.557242,318.945825 C279.285457,309.703375 295.131584,308.54579 311.904058,315.468257 C312.808535,315.84156 313.238918,316.876876 312.865345,317.7807 C312.491772,318.684524 311.455708,319.114596 310.551231,318.741293 C297.660672,313.421 285.50046,313.180181 273.965092,318.016187 C278.846139,317.862666 283.023979,319.383962 287.36532,322.432685 L287.628156,322.621485 L287.957784,322.866285 C288.939285,323.60447 290.449173,324.810055 291.974591,326.046608 L292.340727,326.343752 L296.380081,329.656974 C297.008158,330.176403 297.391413,330.49542 297.376795,330.483779 C298.142111,331.093197 298.268134,332.207191 297.658276,332.971954 C297.068746,333.711225 296.007378,333.853544 295.245968,333.311726 L295.146566,333.235285 C294.948046,333.070904 293.424894,331.806341 291.609486,330.319418 L290.042083,329.040313 L288.6944,327.950006 C287.37214,326.885894 286.175194,325.941822 285.48607,325.443035 L285.327724,325.330004 C278.283617,320.383253 272.070752,320.093096 260.489661,325.558579 C259.840735,325.937396 259.202939,326.303223 258.575019,326.656892 C260.186833,328.030095 261.701303,329.430577 263.125823,330.869517 L263.862507,331.523908 C275.844784,342.103449 285.364991,347.350259 292.246177,347.350259 C293.224766,347.350259 294.018068,348.142989 294.018068,349.120871 C294.018068,350.098752 293.224766,350.891482 292.246177,350.891482 C286.721508,350.891482 280.12632,348.194928 272.40132,342.83053 C276.271597,349.353852 279.105145,356.854958 281.313843,365.955936 C281.544478,366.906271 280.960489,367.863501 280.009467,368.09397 C279.058445,368.324438 278.100523,367.740871 277.869888,366.790536 C274.346257,352.271359 269.254077,342.128 260.68892,333.442402 C260.345069,333.135706 259.99943,332.823981 259.652023,332.50821 L259.243725,332.135977 C257.865193,330.875452 256.497111,329.670473 255.138477,328.519897 L255.228769,328.473699 C245.51139,333.533518 238.034588,335.396134 229.239512,334.512884 C236.999757,339.644505 242.804419,346.606055 248.924353,357.452518 C249.404975,358.304332 249.103565,359.384204 248.251134,359.864479 C247.398703,360.344754 246.318051,360.043562 245.837429,359.191747 C236.670779,342.945539 228.527835,336.044577 212.528662,330.501048 L211.728545,330.230707 C211.594305,330.184928 211.459613,330.138798 211.324456,330.092335 L211.294852,330.081354 L210.715138,329.889276 L209.379097,329.453628 C203.899679,327.656705 199.800911,326.077422 196.211994,324.087874 C200.849439,331.696891 203.723623,339.827917 204.587038,347.979861 L204.676954,348.333277 C204.710886,348.399697 204.740169,348.469381 204.765228,348.541728 L205.231967,349.87873 C212.810046,371.410565 218.278211,378.100349 238.015805,391.357354 C238.827979,391.902861 239.043836,393.003003 238.497935,393.814591 C237.952033,394.626178 236.851095,394.841879 236.038921,394.296372 L235.186508,393.721843 C226.747378,388.013397 220.844578,383.392423 216.244731,378.243426 C217.135232,382.328761 217.160948,386.253779 216.386557,390.189868 C215.234232,396.046916 212.543713,401.573178 207.254235,409.879634 C206.728874,410.704647 205.633696,410.947871 204.808087,410.422889 C203.982477,409.897907 203.739077,408.80352 204.264439,407.978507 L204.698939,407.293066 C209.479919,399.715294 211.893941,394.667806 212.909336,389.506743 C214.107705,383.415659 213.137642,377.348889 209.5845,370.282768 L209.416053,369.950808 C207.375837,365.966004 205.640943,362.111316 204.212122,358.38621 C203.851715,359.76655 203.342092,361.090303 202.68866,362.38489 C201.658944,364.424975 200.525343,366.047088 198.39463,368.708228 L197.108103,370.304141 L196.752278,370.749558 C194.791974,373.214933 193.767785,374.709443 192.839083,376.571383 C191.514759,379.226499 190.833009,382.032404 190.833009,385.350838 C190.833009,386.328719 190.039706,387.121449 189.061117,387.121449 C188.082529,387.121449 187.289226,386.328719 187.289226,385.350838 C187.289226,381.475435 188.102032,378.13014 189.667428,374.991703 L189.841034,374.649126 L190.03233,374.28428 C191.061057,372.357474 192.2412,370.709614 194.328473,368.107396 L195.261041,366.951693 C199.768007,361.367793 201.318909,358.295127 201.318909,353.160807 C201.318909,351.643666 201.241442,350.121835 201.088261,348.599126 C200.409077,345.890832 199.91514,343.260339 199.60614,340.707284 L199.597481,340.616551 L199.490405,340.229287 C197.006114,331.389297 192.047182,322.75816 184.962916,315.096052 C184.594828,314.713203 184.221468,314.317831 183.842148,313.909686 L183.957891,314.030412 C179.970518,309.88516 176.792929,306.164028 174.213021,302.49554 C172.793635,300.753416 171.052445,299.722123 169.801659,299.822819 C168.380596,299.937224 167.163617,301.635507 166.620232,305.654046 C166.604216,305.772489 166.580015,305.883807 166.548536,305.98811 C166.514124,306.365528 166.478523,306.745076 166.441728,307.125993 L166.355258,307.998025 C165.326421,318.108093 163.594949,325.984658 160.941504,330.974168 C160.48228,331.83769 159.409476,332.165706 158.54533,331.706813 C157.681184,331.24792 157.352931,330.175891 157.812155,329.31237 C160.196596,324.82869 161.846628,317.308909 162.832598,307.610506 L162.91434,306.785755 C163.080163,305.069082 163.22137,303.379133 163.340951,301.696798 C163.328288,293.156619 161.009706,289.373529 156.488755,289.373529 C151.850966,289.373529 149.033013,292.812827 147.983117,300.392781 L147.917846,300.883666 L147.91829,336.898186 C147.91829,348.344849 151.427784,359.489107 156.93741,365.196842 L157.104979,365.368134 C161.052877,369.349824 163.882697,372.926015 166.091744,377.14238 C168.872469,382.449895 170.350933,388.347201 170.350933,395.127178 C170.350933,396.10506 169.55763,396.897789 168.579042,396.897789 C167.600453,396.897789 166.80715,396.10506 166.80715,395.127178 C166.80715,388.924627 165.469782,383.590124 162.952206,378.784877 C162.178099,377.307354 161.315351,375.909107 160.336249,374.535224 C161.139285,378.935447 160.663857,383.368304 159.028598,387.824699 C156.793839,393.914845 152.637166,399.662079 146.444708,406.077994 L146.116908,406.416296 C145.891524,406.648005 145.673494,406.870953 145.458072,407.089844 L144.814881,407.739055 L144.046271,408.50336 C142.989712,409.545879 141.765968,410.72202 139.892634,412.509847 C139.184944,413.185236 138.063341,413.159465 137.387464,412.452285 C136.711587,411.745106 136.737377,410.624313 137.445067,409.948925 L139.28021,408.193233 C140.48816,407.033289 141.366078,406.178038 142.196056,405.348069 L142.931684,404.606498 L143.575756,403.948072 C149.63302,397.720844 153.634449,392.23852 155.70144,386.605573 C158.237123,379.695352 157.581822,373.004562 153.091604,366.222017 C153.065003,366.181836 153.040257,366.140969 153.017343,366.099515 C147.60665,359.383044 144.374507,348.256157 144.374507,336.898186 L144.375237,318.07349 C143.322325,320.034757 142.009444,322.021883 140.38934,324.226339 L139.013132,326.080114 C134.563455,332.0886 132.963194,335.770971 132.963194,342.219925 C132.963194,343.197806 132.169892,343.990536 131.191303,343.990536 C130.212715,343.990536 129.419412,343.197806 129.419412,342.219925 C129.419412,338.175267 130.126395,334.743365 131.506768,331.566982 C132.521303,329.232428 133.704248,327.331165 135.767235,324.513056 L137.322782,322.415206 L137.736136,321.852831 L138.139508,321.29464 C142.097849,315.76615 143.807165,311.795072 144.374782,305.334831 L144.374342,302.44828 C144.344985,302.3329 144.3249,302.20959 144.315314,302.078282 L144.302581,301.902692 L144.273603,301.586609 C144.004622,298.920215 143.272938,298.139069 142.178482,298.264928 C140.782644,298.425444 138.76673,299.857833 137.20661,301.857155 L137.142246,301.939802 C137.079942,302.019805 137.015089,302.09241 136.948138,302.157954 C136.001582,303.484815 134.975202,304.8697 133.86336,306.32162 C133.824261,306.38773 133.780314,306.4515 133.731622,306.513039 L133.29845,307.055587 L132.656051,307.88168 C131.4619,309.409313 130.177082,311.009739 128.795642,312.692471 L127.643692,314.087809 C110.180488,335.126805 106.954554,353.113614 115.955205,365.578282 L117.137379,367.195587 L120.922693,372.311166 L121.268377,372.785275 C122.728313,374.796729 123.702434,376.26292 124.525541,377.72994 C127.113605,382.342636 128.051772,386.911382 128.051772,395.127178 C128.051772,396.10506 127.258469,396.897789 126.27988,396.897789 C125.301292,396.897789 124.507989,396.10506 124.507989,395.127178 L124.505782,394.451131 C124.457792,387.231356 123.621323,383.359419 121.434451,379.461765 L121.259537,379.154522 L121.069882,378.830921 C120.392212,377.691162 119.562806,376.46662 118.392008,374.85383 L113.92934,368.81292 C113.633373,368.409527 113.36902,368.04764 113.158026,367.756296 L113.081447,367.650406 C110.394101,363.928799 108.673128,359.80131 107.941935,355.329475 L106.424819,360.606659 C106.409155,360.661107 106.390885,360.714774 106.370072,360.767472 C106.144265,361.339208 105.917941,361.900662 105.691029,362.452058 C102.130936,371.103056 98.4180874,377.320206 94.1073461,382.09928 C90.6722156,385.907614 87.1575519,388.616605 81.6676593,391.982064 L80.4164748,392.739364 L75.3827882,395.733689 C74.5437807,396.237013 73.4553107,395.96538 72.9516224,395.126978 C72.4479341,394.288577 72.7197641,393.200893 73.5587716,392.697569 L79.0607969,389.422213 L79.8131527,388.964446 C85.0368545,385.76227 88.3052547,383.242528 91.4750434,379.728363 C94.8279544,376.011181 97.8254614,371.305539 100.710514,365.026313 C100.731508,364.939881 100.759423,364.854464 100.794329,364.770197 L101.194286,363.789242 L101.422715,363.213645 L101.646141,362.63846 L101.927431,361.895621 C102.995596,359.033223 103.962624,355.957202 105.351576,351.189012 L106.512201,347.186215 L106.858873,346.003376 C107.423923,344.083929 107.927382,342.418488 108.400615,340.92093 L108.430009,340.819183 C108.443601,340.771934 108.458991,340.725688 108.476084,340.680499 L108.751976,339.821416 C109.434492,337.718217 110.067457,335.936355 110.75356,334.195229 L110.900164,333.825827 C111.342591,332.718861 111.809546,331.620368 112.327504,330.457657 C113.530472,327.75724 114.862113,325.170179 116.354875,322.668298 C112.000246,325.642216 107.37762,328.149851 102.635771,330.048555 C100.116378,331.057356 97.5879133,331.888202 95.0592346,332.535594 C78.3529625,338.626481 69.0678106,348.186775 64.3060583,363.341031 C64.0129011,364.274002 63.0183809,364.792845 62.0847351,364.4999 C61.1510894,364.206955 60.6318707,363.213153 60.9250279,362.280182 C64.8765356,349.704525 71.8188924,340.65729 82.9745172,334.210667 C75.9102486,334.344377 68.9560902,332.950555 62.3108687,329.906714 L60.5712127,329.113198 L59.3812419,328.574564 C58.5971057,328.22083 57.8311532,327.877748 57.0823565,327.544975 L57.2050025,327.393633 C53.8060179,331.616871 50.3958024,335.238077 46.9728958,338.253462 C41.2365024,346.346543 37.0455647,355.889865 34.4584858,366.728666 L34.2302368,367.691232 L33.8996566,369.109278 C32.2102439,376.433758 31.0997116,382.491042 30.5674454,387.271853 C30.4592416,388.243738 29.5830868,388.943954 28.6104987,388.835829 C27.6379107,388.727703 26.9371888,387.852181 27.0453926,386.880296 C27.6526458,381.425952 28.9749249,374.439067 31.0113979,365.90708 C32.9157282,357.928716 35.6636057,350.614962 39.226971,344.025785 C34.7126315,346.784084 30.1731874,348.494053 25.6067257,349.148321 C24.6380435,349.287111 23.7401789,348.614917 23.6012889,347.646935 C23.462399,346.678953 24.1350784,345.781737 25.1037606,345.642947 C31.4495684,344.73374 37.8591129,341.485823 44.3203426,335.868348 C46.9060673,332.260775 49.7871797,328.929744 52.957293,325.887944 L53.029616,325.819427 L52.3385663,325.526942 C45.4956623,322.657472 40.6630782,321.445794 36.2684339,321.570891 C30.6572842,321.730615 25.5455498,324.189993 19.6659895,329.708607 C18.9527097,330.378098 17.8313595,330.343019 17.1613839,329.630254 C16.4914083,328.91749 16.5265133,327.796949 17.2397932,327.127458 C22.3504864,322.33051 27.1068315,319.551506 32.1139966,318.50433 C31.648806,318.399656 31.1858818,318.299901 30.7241128,318.205063 C21.8251486,316.377406 13.3160931,316.493711 2.09737641,318.586568 C1.1354073,318.766024 0.209994413,318.132235 0.0304088628,317.170961 C-0.149176688,316.209687 0.485070496,315.284942 1.4470396,315.105487 C13.0934734,312.932839 22.0594664,312.810287 31.4375441,314.736345 L31.9521712,314.843874 C38.7479727,316.288129 45.7682093,318.743849 55.9490013,323.176767 C69.2556715,311.790403 87.101378,305.041936 109.093186,303.771283 C131.734523,302.260078 143.092673,292.943582 143.767373,275.491166 L143.779221,274.888069 C143.787195,274.399735 143.792372,273.86394 143.795461,273.262988 C143.788345,272.616089 143.767073,271.959007 143.73227,271.291544 L143.729869,271.19941 L143.729869,0 L168.050149,0 Z M174,296 C174.150891,296.25865 174.30461,296.517181 174.461258,296.775657 L177.172315,300.78753 C177.237728,300.884347 177.292703,300.981325 177.337947,301.077968 C177.547507,301.365315 177.760787,301.653086 177.977816,301.94138 L178.003303,301.970321 L179.195624,303.40344 L180.086352,304.46654 C182.228639,307.014334 184.118847,309.192489 185.865728,311.079709 L186.203562,311.430692 C186.617001,311.858781 187.024061,312.290046 187.424682,312.724366 C194.312644,319.809521 199.324978,322.35075 210.096653,325.874133 L211.028704,326.176891 C211.842075,326.439369 212.637502,326.70452 213.41585,326.973123 L214.384185,327.293768 C230.056979,332.42725 238.78384,332.468425 251.99534,325.901982 L251.877332,325.807935 L252,325.899666 C251.710649,325.682707 251.417956,325.466737 251.122317,325.251141 C251.0202,325.176672 250.928409,325.093388 250.847226,325.003112 C236.114515,313.606657 222.397789,308.60312 208.374534,308.486442 L207.871248,308.48435 C198.491577,308.48435 188.146412,305.899172 180.163125,300.846591 C177.886066,299.405452 175.826051,297.789584 174,296 Z M134,301 C128.058584,304.669807 120.192351,306.883195 110.440941,307.619105 L109.65973,307.674631 C89.2069052,308.856163 72.5656609,314.894454 60,325.108233 C61.3506394,325.712919 62.7534917,326.348672 64.215159,327.018054 C73.7830112,331.399732 84.0550958,332.084171 94.3964751,329.470611 C96.3224208,328.771896 98.3390308,328.119154 100.448907,327.509547 C100.553463,327.479337 100.658546,327.4592 100.763113,327.448564 C101.068198,327.333108 101.373197,327.213821 101.678127,327.091747 C112.789211,322.643596 123.267814,314.626535 130.901385,305.140082 C132.021216,303.690248 133.052147,302.313532 134,301 Z"/></defs><g fill="none" fill-rule="evenodd"><rect width="752" height="597" fill="#F9FAFB"/><mask id="b" fill="#fff"><use xlink:href="#a"/></mask><g mask="url(#b)"><g transform="translate(376)"><g transform="translate(0 1)"><mask id="d" fill="#fff"><use xlink:href="#c"/></mask><rect width="376" height="310" y="286" fill="#FBE993" mask="url(#d)"/></g><g style="mix-blend-mode:multiply" transform="translate(32)"><mask id="g" fill="#fff"><use xlink:href="#e"/></mask><use xlink:href="#e" fill="#9CA3AF" fill-rule="nonzero"/><g fill="url(#f)" mask="url(#g)"><rect width="18" height="75" x="8.205" y="1.063" transform="rotate(13 -2541.912 555.943)"/></g><g fill="url(#h)" mask="url(#g)"><rect width="18" height="32" x="8.784" y="-3.166" transform="rotate(75 -320.232 321.979)"/></g><g fill="url(#i)" mask="url(#g)"><polygon points="19 -19 37 -19 37 37 19 37" transform="rotate(31 -949.692 509.247)"/></g><g fill="url(#j)" mask="url(#g)"><polygon points="19 -19 37 -19 37 37 19 37" transform="rotate(90 -220.5 256.5)"/></g><g fill="url(#k)" mask="url(#g)"><polygon points="8 -8 26 -8 26 26 8 26" transform="rotate(53 -484.47 301.597)"/></g><g fill="url(#k)" mask="url(#g)"><polygon points="8 -8 26 -8 26 26 8 26" transform="rotate(15 -1773.407 1523.597)"/></g><g fill="url(#l)" mask="url(#g)"><polygon points="12.5 -12.5 30.5 -12.5 30.5 30.5 12.5 30.5" transform="rotate(4 -7557.061 4051.076)"/></g></g><g transform="translate(152 457)"><circle cx="36" cy="36" r="29" fill="#FB9393"/><g opacity=".751" style="mix-blend-mode:multiply"><polygon points="0 0 72 0 72 72 0 72"/><circle cx="36" cy="36" r="27" stroke="#111827" stroke-linecap="round" stroke-linejoin="round" stroke-width="4"/><line x1="27" x2="27.03" y1="30" y2="30" stroke="#111827" stroke-linecap="round" stroke-linejoin="round" stroke-width="4"/><line x1="45" x2="45.03" y1="30" y2="30" stroke="#111827" stroke-linecap="round" stroke-linejoin="round" stroke-width="4"/><path stroke="#111827" stroke-linecap="round" stroke-linejoin="round" stroke-width="4" d="M28.5,45.75 C30.474934,43.7343414 33.178078,42.5984692 36,42.5984692 C38.821922,42.5984692 41.525066,43.7343414 43.5,45.75"/></g></g></g></g><g mask="url(#b)"><g transform="translate(0 1)"><mask id="n" fill="#fff"><use xlink:href="#m"/></mask><use xlink:href="#m" fill="#F3F4F6"/><rect width="376" height="310" y="286" fill="#53BCDC" mask="url(#n)"/></g><g style="mix-blend-mode:multiply" transform="translate(32)"><mask id="p" fill="#fff"><use xlink:href="#o"/></mask><use xlink:href="#o" fill="#9CA3AF" fill-rule="nonzero"/><g fill="url(#f)" mask="url(#p)"><rect width="18" height="75" x="8.205" y="1.063" transform="rotate(13 -2541.912 555.943)"/></g><g fill="url(#h)" mask="url(#p)"><rect width="18" height="32" x="8.784" y="-3.166" transform="rotate(75 -320.232 321.979)"/></g><g fill="url(#i)" mask="url(#p)"><polygon points="19 -19 37 -19 37 37 19 37" transform="rotate(31 -949.692 509.247)"/></g><g fill="url(#j)" mask="url(#p)"><polygon points="19 -19 37 -19 37 37 19 37" transform="rotate(90 -220.5 256.5)"/></g><g fill="url(#k)" mask="url(#p)"><polygon points="8 -8 26 -8 26 26 8 26" transform="rotate(53 -484.47 301.597)"/></g><g fill="url(#k)" mask="url(#p)"><polygon points="8 -8 26 -8 26 26 8 26" transform="rotate(15 -1773.407 1523.597)"/></g><g fill="url(#q)" mask="url(#p)"><polygon points="17 -17 35 -17 35 35 17 35" transform="rotate(-75 661.397 -152.561)"/></g><g fill="url(#q)" mask="url(#p)"><polygon points="17 -17 35 -17 35 35 17 35" transform="rotate(-56 812.608 -295.278)"/></g><g fill="url(#l)" mask="url(#p)"><polygon points="12.5 -12.5 30.5 -12.5 30.5 30.5 12.5 30.5" transform="rotate(4 -7557.061 4051.076)"/></g><g fill="url(#l)" mask="url(#p)"><polygon points="12.5 -12.5 30.5 -12.5 30.5 30.5 12.5 30.5" transform="rotate(-29 1383.963 -677.195)"/></g><g fill="url(#l)" mask="url(#p)"><polygon points="12.5 -12.5 30.5 -12.5 30.5 30.5 12.5 30.5" transform="rotate(-22 1831.252 -1178.168)"/></g><g fill="url(#l)" mask="url(#p)"><polygon points="12.5 -12.5 30.5 -12.5 30.5 30.5 12.5 30.5" transform="rotate(-75 685.282 -97.134)"/></g></g><g transform="translate(152 457)"><circle cx="36" cy="36" r="29" fill="#FBE993"/><g opacity=".751" style="mix-blend-mode:multiply"><polygon points="0 0 72 0 72 72 0 72"/><circle cx="36" cy="36" r="27" stroke="#111827" stroke-linecap="round" stroke-linejoin="round" stroke-width="4"/><line x1="27" x2="27.03" y1="30" y2="30" stroke="#111827" stroke-linecap="round" stroke-linejoin="round" stroke-width="4"/><line x1="45" x2="45.03" y1="30" y2="30" stroke="#111827" stroke-linecap="round" stroke-linejoin="round" stroke-width="4"/><path stroke="#111827" stroke-linecap="round" stroke-linejoin="round" stroke-width="4" d="M28.5,45 C30.474934,47.0156586 33.178078,48.1515308 36,48.1515308 C38.821922,48.1515308 41.525066,47.0156586 43.5,45"/></g></g></g></g></svg>