<svg xmlns="http://www.w3.org/2000/svg" xmlns:xlink="http://www.w3.org/1999/xlink" width="752" height="597" style="background:#f9fafb" viewBox="0 0 752 597"><defs><filter id="d" width="100.3%" height="102.2%" x="-.1%" y="-.5%" filterUnits="objectBoundingBox"><feOffset dy="1" in="SourceAlpha" result="shadowOffsetOuter1"/><feColorMatrix in="shadowOffsetOuter1" values="0 0 0 0 0.819607843 0 0 0 0 0.835294118 0 0 0 0 0.858823529 0 0 0 1 0"/></filter><filter id="e" width="100.3%" height="102.2%" x="-.1%" y="-.5%" filterUnits="objectBoundingBox"><feOffset dy="1" in="SourceAlpha" result="shadowOffsetInner1"/><feComposite in="shadowOffsetInner1" in2="SourceAlpha" k2="-1" k3="1" operator="arithmetic" result="shadowInnerInner1"/><feColorMatrix in="shadowInnerInner1" values="0 0 0 0 0.819607843 0 0 0 0 0.835294118 0 0 0 0 0.858823529 0 0 0 1 0"/></filter><filter id="g" width="100.3%" height="102.2%" x="-.1%" y="-.5%" filterUnits="objectBoundingBox"><feOffset dy="1" in="SourceAlpha" result="shadowOffsetOuter1"/><feColorMatrix in="shadowOffsetOuter1" values="0 0 0 0 0.819607843 0 0 0 0 0.835294118 0 0 0 0 0.858823529 0 0 0 1 0"/></filter><filter id="h" width="100.3%" height="102.2%" x="-.1%" y="-.5%" filterUnits="objectBoundingBox"><feOffset dy="1" in="SourceAlpha" result="shadowOffsetInner1"/><feComposite in="shadowOffsetInner1" in2="SourceAlpha" k2="-1" k3="1" operator="arithmetic" result="shadowInnerInner1"/><feColorMatrix in="shadowInnerInner1" values="0 0 0 0 0.819607843 0 0 0 0 0.835294118 0 0 0 0 0.858823529 0 0 0 1 0"/></filter><filter id="j" width="100.3%" height="102.2%" x="-.1%" y="-.5%" filterUnits="objectBoundingBox"><feOffset dy="1" in="SourceAlpha" result="shadowOffsetOuter1"/><feColorMatrix in="shadowOffsetOuter1" values="0 0 0 0 0.819607843 0 0 0 0 0.835294118 0 0 0 0 0.858823529 0 0 0 1 0"/></filter><filter id="k" width="100.3%" height="102.2%" x="-.1%" y="-.5%" filterUnits="objectBoundingBox"><feOffset dy="1" in="SourceAlpha" result="shadowOffsetInner1"/><feComposite in="shadowOffsetInner1" in2="SourceAlpha" k2="-1" k3="1" operator="arithmetic" result="shadowInnerInner1"/><feColorMatrix in="shadowInnerInner1" values="0 0 0 0 0.819607843 0 0 0 0 0.835294118 0 0 0 0 0.858823529 0 0 0 1 0"/></filter><filter id="m" width="100.3%" height="102.2%" x="-.1%" y="-.5%" filterUnits="objectBoundingBox"><feOffset dy="1" in="SourceAlpha" result="shadowOffsetOuter1"/><feColorMatrix in="shadowOffsetOuter1" values="0 0 0 0 0.819607843 0 0 0 0 0.835294118 0 0 0 0 0.858823529 0 0 0 1 0"/></filter><filter id="n" width="100.3%" height="102.2%" x="-.1%" y="-.5%" filterUnits="objectBoundingBox"><feOffset dy="1" in="SourceAlpha" result="shadowOffsetInner1"/><feComposite in="shadowOffsetInner1" in2="SourceAlpha" k2="-1" k3="1" operator="arithmetic" result="shadowInnerInner1"/><feColorMatrix in="shadowInnerInner1" values="0 0 0 0 0.819607843 0 0 0 0 0.835294118 0 0 0 0 0.858823529 0 0 0 1 0"/></filter><filter id="p" width="100.3%" height="102.2%" x="-.1%" y="-.5%" filterUnits="objectBoundingBox"><feOffset dy="1" in="SourceAlpha" result="shadowOffsetOuter1"/><feColorMatrix in="shadowOffsetOuter1" values="0 0 0 0 0.819607843 0 0 0 0 0.835294118 0 0 0 0 0.858823529 0 0 0 1 0"/></filter><filter id="q" width="100.3%" height="102.2%" x="-.1%" y="-.5%" filterUnits="objectBoundingBox"><feOffset dy="1" in="SourceAlpha" result="shadowOffsetInner1"/><feComposite in="shadowOffsetInner1" in2="SourceAlpha" k2="-1" k3="1" operator="arithmetic" result="shadowInnerInner1"/><feColorMatrix in="shadowInnerInner1" values="0 0 0 0 0.819607843 0 0 0 0 0.835294118 0 0 0 0 0.858823529 0 0 0 1 0"/></filter><filter id="s" width="100.3%" height="102.2%" x="-.1%" y="-.5%" filterUnits="objectBoundingBox"><feOffset dy="1" in="SourceAlpha" result="shadowOffsetOuter1"/><feColorMatrix in="shadowOffsetOuter1" values="0 0 0 0 0.819607843 0 0 0 0 0.835294118 0 0 0 0 0.858823529 0 0 0 1 0"/></filter><filter id="t" width="100.3%" height="102.2%" x="-.1%" y="-.5%" filterUnits="objectBoundingBox"><feOffset dy="1" in="SourceAlpha" result="shadowOffsetInner1"/><feComposite in="shadowOffsetInner1" in2="SourceAlpha" k2="-1" k3="1" operator="arithmetic" result="shadowInnerInner1"/><feColorMatrix in="shadowInnerInner1" values="0 0 0 0 0.819607843 0 0 0 0 0.835294118 0 0 0 0 0.858823529 0 0 0 1 0"/></filter><rect id="a" width="752" height="597" x="0" y="0"/><rect id="c" width="375" height="93" x="0" y="0"/><rect id="f" width="375" height="93" x="0" y="0"/><rect id="i" width="375" height="93" x="0" y="0"/><rect id="l" width="375" height="93" x="0" y="0"/><rect id="o" width="375" height="93" x="0" y="0"/><rect id="r" width="375" height="93" x="0" y="0"/></defs><g fill="none" fill-rule="evenodd"><rect width="752" height="597" fill="#F9FAFB"/><mask id="b" fill="#fff"><use xlink:href="#a"/></mask><g mask="url(#b)"><g transform="translate(377 24)"><g transform="translate(24)"><text fill="#1F2937" font-family="Manrope-SemiBold, Manrope" font-size="32" font-weight="500">
                        <tspan x="0" y="34">Kaiser-Linde</tspan>
                    </text><g transform="translate(295 2)"><polygon points="0 0 32 0 32 32 0 32"/><circle cx="16" cy="16" r="1.333" stroke="#4B5563" stroke-linecap="round" stroke-linejoin="round" stroke-width="2"/><circle cx="16" cy="25.333" r="1.333" stroke="#4B5563" stroke-linecap="round" stroke-linejoin="round" stroke-width="2"/><circle cx="16" cy="6.667" r="1.333" stroke="#4B5563" stroke-linecap="round" stroke-linejoin="round" stroke-width="2"/></g><g transform="translate(0 42)"><g transform="translate(71)"><text fill="#1F2937" font-family="PTSerif-Regular, PT Serif" font-size="16">
                                <tspan x="28" y="18">Gepflanzt vor 58 Jahren</tspan>
                            </text><polygon points="0 0 24 0 24 24 0 24"/><path stroke="#9CA3AF" stroke-linecap="round" stroke-linejoin="round" stroke-width="2" d="M7 15 17 15 17 19C17 20.1045695 16.1045695 21 15 21L9 21C7.8954305 21 7 20.1045695 7 19L7 15ZM12 9C12 5.6862915 9.3137085 3 6 3L3 3 3 5C3 8.3137085 5.6862915 11 9 11L12 11M12 11C12 7.6862915 14.6862915 5 18 5L21 5 21 6C21 9.3137085 18.3137085 12 15 12L12 12"/><line x1="12" x2="12" y1="15" y2="9" stroke="#9CA3AF" stroke-linecap="round" stroke-linejoin="round" stroke-width="2"/></g><text fill="#1F2937" font-family="PTSerif-Regular, PT Serif" font-size="16">
                                <tspan x="32" y="18">8m</tspan>
                            </text><polygon points="0 0 24 0 24 24 0 24"/><path stroke="#9CA3AF" stroke-linecap="round" stroke-linejoin="round" stroke-width="2" d="M12,20 L6,20 C4.8954305,20 4,19.1045695 4,18 L4,6 C4,4.8954305 4.8954305,4 6,4 L12,4"/><line x1="18" x2="18" y1="14" y2="21" stroke="#9CA3AF" stroke-linecap="round" stroke-linejoin="round" stroke-width="2"/><line x1="18" x2="18" y1="3" y2="10" stroke="#9CA3AF" stroke-linecap="round" stroke-linejoin="round" stroke-width="2"/><polyline stroke="#9CA3AF" stroke-linecap="round" stroke-linejoin="round" stroke-width="2" points="15 18 18 21 21 18"/><polyline stroke="#9CA3AF" stroke-linecap="round" stroke-linejoin="round" stroke-width="2" points="15 6 18 3 21 6"/></g></g><g transform="translate(0 98)"><use xlink:href="#c" fill="#000" filter="url(#d)"/><use xlink:href="#c" fill="#FFF"/><use xlink:href="#c" fill="#000" filter="url(#e)"/><text fill="#1F2937" font-family="Manrope-Regular, Manrope" font-size="24">
                        <tspan x="336" y="42">4</tspan>
                    </text><text fill="#1F2937" font-family="PTSerif-Regular, PT Serif" font-size="16">
                        <tspan x="24" y="70">Durschnitt von -30, -60, -90cm</tspan>
                    </text><text fill="#1F2937" font-family="Manrope-SemiBold, Manrope" font-size="24" font-weight="500">
                        <tspan x="24" y="42">Saugspannung</tspan>
                    </text></g><g transform="translate(0 191)"><use xlink:href="#f" fill="#000" filter="url(#g)"/><use xlink:href="#f" fill="#FFF"/><use xlink:href="#f" fill="#000" filter="url(#h)"/><text fill="#1F2937" font-family="Manrope-Regular, Manrope" font-size="24">
                        <tspan x="317" y="42">25l</tspan>
                    </text><text fill="#1F2937" font-family="PTSerif-Regular, PT Serif" font-size="16">
                        <tspan x="24" y="70">Letzte 14 Tage</tspan>
                    </text><text fill="#1F2937" font-family="Manrope-SemiBold, Manrope" font-size="24" font-weight="500">
                        <tspan x="24" y="42">Regen</tspan>
                    </text></g><g transform="translate(0 283)"><use xlink:href="#i" fill="#000" filter="url(#j)"/><use xlink:href="#i" fill="#FFF"/><use xlink:href="#i" fill="#000" filter="url(#k)"/><text fill="#1F2937" font-family="Manrope-Regular, Manrope" font-size="24">
                        <tspan x="282" y="42">2,2qm</tspan>
                    </text><text fill="#1F2937" font-family="PTSerif-Regular, PT Serif" font-size="16">
                        <tspan x="24" y="70">Durschnitt 30, 60, 90</tspan>
                    </text><text fill="#1F2937" font-family="Manrope-SemiBold, Manrope" font-size="24" font-weight="500">
                        <tspan x="24" y="42">Baumscheibe</tspan>
                    </text></g><g transform="translate(0 376)"><use xlink:href="#l" fill="#000" filter="url(#m)"/><use xlink:href="#l" fill="#FFF"/><use xlink:href="#l" fill="#000" filter="url(#n)"/><text fill="#1F2937" font-family="Manrope-Regular, Manrope" font-size="24">
                        <tspan x="302" y="42">76%</tspan>
                    </text><text fill="#1F2937" font-family="PTSerif-Regular, PT Serif" font-size="16">
                        <tspan x="24" y="70">Anteil an Schattenzeit</tspan>
                    </text><text fill="#1F2937" font-family="Manrope-SemiBold, Manrope" font-size="24" font-weight="500">
                        <tspan x="24" y="42">Verschattung</tspan>
                    </text></g><g transform="translate(0 468)"><use xlink:href="#o" fill="#000" filter="url(#p)"/><use xlink:href="#o" fill="#FFF"/><use xlink:href="#o" fill="#000" filter="url(#q)"/><text fill="#1F2937" font-family="Manrope-Regular, Manrope" font-size="24">
                        <tspan x="307" y="42">150l</tspan>
                    </text><text fill="#1F2937" font-family="PTSerif-Regular, PT Serif" font-size="16">
                        <tspan x="24" y="70">Letzte 14 Tage</tspan>
                    </text><text fill="#1F2937" font-family="Manrope-SemiBold, Manrope" font-size="24" font-weight="500">
                        <tspan x="24" y="42">Gießwassermenge</tspan>
                    </text></g><g transform="translate(0 561)"><use xlink:href="#r" fill="#000" filter="url(#s)"/><use xlink:href="#r" fill="#FFF"/><use xlink:href="#r" fill="#000" filter="url(#t)"/><text fill="#1F2937" font-family="Manrope-Regular, Manrope" font-size="24">
                        <tspan x="290" y="42">33cm</tspan>
                    </text><text fill="#1F2937" font-family="PTSerif-Regular, PT Serif" font-size="16">
                        <tspan x="24" y="70">An der weiteste Stelle</tspan>
                    </text><text fill="#1F2937" font-family="Manrope-SemiBold, Manrope" font-size="24" font-weight="500">
                        <tspan x="24" y="42">Stammdurchmesser</tspan>
                    </text></g></g></g><g mask="url(#b)"><g transform="translate(86 42)"><g stroke-linecap="round" stroke-linejoin="round" transform="translate(6 16)"><path stroke="#52CFCF" stroke-width="4.5" d="M15.8335209,42 C7.08890876,42 0,35.5158915 0,27.5173383 C0,19.5187851 7.08890876,13.0346765 15.8335209,13.0346765 C17.1695272,7.34310418 21.9321648,2.69729216 28.3273942,0.847272898 C34.7226236,-1.00274636 41.7788573,0.224089075 46.8380804,4.06564217 C51.8973035,7.90719527 54.1908996,13.7798427 52.8548933,19.4714151 L56.2204726,19.4714151 C62.726126,19.4714152 68,24.5146107 68,30.7357075 C68,36.9568044 62.726126,42 56.2204726,42"/><line x1="1" x2="1" y2="6.667" stroke="#53BCDC" stroke-width="4.5" transform="translate(29 26)"/><line x1="1" x2="1" y2="6.667" stroke="#53BCDC" stroke-width="4.5" transform="translate(29 42)"/><line x1="1" x2="1" y2="6.667" stroke="#53BCDC" stroke-width="4.5" transform="translate(41 32)"/><line x1="1" x2="1" y2="6.667" stroke="#53BCDC" stroke-width="4.5" transform="translate(41 50)"/></g><g stroke-linecap="round" stroke-linejoin="round" transform="translate(12 118)"><circle cx="28" cy="28" r="28" stroke="#53BCDC" stroke-width="4.5"/><g stroke="#52CFCF" stroke-width="4.5" transform="translate(30 6)"><line x2="16" y1="18" y2="18"/><line x2="16" y1="26" y2="26"/><line x2="12" y1="34" y2="34"/><line x2="4" y1="42" y2="42"/><line x2="12" y1="10" y2="10"/><line x2="4" y1="2" y2="2"/></g></g><g stroke-linecap="round" stroke-linejoin="round" transform="translate(10 222)"><path stroke="#53BCDC" stroke-width="4.5" d="M20.3362899,20.6314979 C23.4557299,17.6186419 24.7067864,13.1570567 23.6086149,8.96155595 C22.5104433,4.76605524 19.2339448,1.4895567 15.038444,0.391385146 C10.8429433,-0.706786406 6.38135808,0.544270099 3.36850212,3.6637101 C-1.17910752,8.37219785 -1.1140703,15.8565749 3.51467739,20.4853226 C8.14342507,25.1140703 15.6278021,25.1791075 20.3362899,20.6314979 L20.3362899,20.6314979 Z" transform="translate(18 18)"/><g stroke="#52CFCF" stroke-width="4.5"><line x1="12" x2="8" y1="48" y2="52"/><line x1="12" x2="8" y1="12" y2="8"/><line x1="48" x2="52" y1="12" y2="8"/><line x1="48" x2="52" y1="48" y2="52"/><line x1="6" y1="30" y2="30"/><line x1="30" x2="30" y1="6"/><line x1="54" x2="60" y1="30" y2="30"/><line x1="30" x2="30" y1="54" y2="60"/></g></g><g transform="translate(0 319)"><polygon points="0 0 80 0 80 80 0 80"/><line x1="60" x2="60" y1="20" y2="20.033" stroke="#52CFCF" stroke-linecap="round" stroke-linejoin="round" stroke-width="13.5"/><path stroke="#53BCDC" stroke-linecap="round" stroke-linejoin="round" stroke-width="4.5" d="M60,43.3333333 L48.3333333,26.6666667 C45.2303711,21.0583968 46.556871,14.0358443 51.4917513,9.94585389 C56.4266316,5.85586349 63.5733684,5.85586349 68.5082487,9.94585389 C73.443129,14.0358443 74.7696289,21.0583968 71.6666667,26.6666667 L60,43.3333333"/><polyline stroke="#52CFCF" stroke-linecap="round" stroke-linejoin="round" stroke-width="4.5" points="35 15.833 30 13.333 10 23.333 10 66.667 30 56.667 50 66.667 70 56.667 70 50"/><polyline fill="#53BCDC" stroke="#53BCDC" stroke-linecap="round" stroke-linejoin="round" stroke-width="4.5" points="30 13.333 10 23.333 10 66.667 30 56.667"/><line x1="30" x2="30" y1="13.333" y2="56.667" stroke="#53BCDC" stroke-linecap="round" stroke-linejoin="round" stroke-width="4.5"/><line x1="50" x2="50" y1="50" y2="66.667" stroke="#52CFCF" stroke-linecap="round" stroke-linejoin="round" stroke-width="4.5"/></g><g transform="translate(0 425)"><polygon points="0 0 80 0 80 80 0 80"/><path stroke="#53BCDC" stroke-linecap="round" stroke-width="4.5" d="M43.3562653,21.8496923 C42.0726171,14.3208826 36.7218114,8.67395909 30.315878,8.67395909 C22.9520813,8.67395909 16.9825446,16.1358799 16.9825446,25.3406258 C16.9825446,34.5453716 22.9520813,42.0072924 30.315878,42.0072924" transform="rotate(45 30.17 25.34)"/><polyline fill="#53BCDC" stroke="#53BCDC" stroke-linecap="round" stroke-linejoin="round" stroke-width="4.5" points="44.415 53.728 67.985 53.728 75.098 46.616 75.056 60.8 67.985 53.728"/><path fill="#52CFCF" d="M19.8904352,29.2773963 L45.3904374,29.3024877 C46.6322108,29.3059246 47.6382212,30.3129255 47.6404363,31.5547016 L47.6404363,57.0547016 C47.6404363,58.2973423 46.633077,59.3047016 45.3904363,59.3047016 L19.8904363,59.3047016 C18.6477956,59.3047016 17.6404363,58.2973423 17.6404363,57.0547016 L17.6404363,31.5251824 C17.6382234,30.2825417 18.6455827,29.2751824 19.8882234,29.2751824 C19.8889614,29.2751824 19.8896994,29.2751827 19.8904352,29.2773963 Z" transform="rotate(45 32.64 44.29)"/></g><path stroke="#9CA3AF" stroke-linecap="round" stroke-width="4" d="M120,0 L137,0 C150.254834,-2.4348735e-15 161,10.745166 161,24 L161,224.381606 C161,237.63644 171.745166,248.381606 185,248.381606 L220,248.381606 L220,248.381606"/><path fill="#9CA3AF" fill-rule="nonzero" d="M137,246 C151.359403,246 163,257.640597 163,272 L163,472.381606 C163,484.53187 172.849736,494.381606 185,494.381606 L213.615,494.381 L200.269478,486.874757 C199.352605,486.359016 198.999248,485.228398 199.435466,484.290259 L199.506849,484.151083 C200.048377,483.188367 201.267807,482.846927 202.230522,483.388455 L222.230522,494.638455 L225.329458,496.381606 L222.230522,498.124757 L202.230522,509.374757 C201.267807,509.916284 200.048377,509.574844 199.506849,508.612128 C198.965321,507.649412 199.306762,506.429982 200.269478,505.888455 L213.615,498.381 L185,498.381606 C170.640597,498.381606 159,486.741009 159,472.381606 L159,272 C159,259.849736 149.150264,250 137,250 L120,250 C118.895431,250 118,249.104569 118,248 C118,246.895431 118.895431,246 120,246 L137,246 Z" transform="matrix(1 0 0 -1 0 744.382)"/></g></g></g></svg>