<svg xmlns="http://www.w3.org/2000/svg" xmlns:xlink="http://www.w3.org/1999/xlink" width="752" height="597" style="background:#f9fafb" viewBox="0 0 752 597"><defs><rect id="a" width="752" height="597" x="0" y="0"/><rect id="e" width="752" height="597" x="0" y="0"/><ellipse id="c" cx="254" cy="299" rx="254" ry="299"/></defs><g fill="none" fill-rule="evenodd"><rect width="752" height="597" fill="#F9FAFB"/><mask id="b" fill="#fff"><use xlink:href="#a"/></mask><g mask="url(#b)"><g transform="translate(567)"><mask id="d" fill="#fff"><use xlink:href="#c"/></mask><use xlink:href="#c" fill="#D8D8D8"/><g mask="url(#d)"><g transform="translate(-237 1)"><rect width="752" height="597" fill="#F9FAFB"/><mask id="f" fill="#fff"><use xlink:href="#e"/></mask><g mask="url(#f)"><g stroke-linecap="round" stroke-linejoin="round"><path stroke="#F3F4F6" stroke-width="11" d="M0,5.10760212 C314.157972,23.0458871 503.594884,32.0150295 568.310737,32.0150295 C665.384516,32.0150295 666.969884,22.3447665 693.651547,0"/><line x1="504.703" x2="503.492" y2="30.42" stroke="#F3F4F6" stroke-width="11"/><polyline stroke="#F3F4F6" stroke-width="11" points="459.694 29.039 454.372 138.564 0 116.459"/><line x2="457.866" y1="40.273" y2="66.788" stroke="#F3F4F6" stroke-width="11"/><line x2="701.45" y1="293.348" y2="319.805" stroke="#F3F4F6" stroke-width="11"/><polyline stroke="#F3F4F6" stroke-width="11" points="752 77.936 729.747 97.007 677.253 505.394"/><line x1="751.879" y1="509.586" y2="479.068" stroke="#F3F4F6" stroke-width="11"/><line x1="315.401" x2="489.777" y1="547.436" y2="553.571" stroke="#F3F4F6" stroke-width="11"/><line x1="488.531" x2="492.314" y1="597" y2="499.117" stroke="#F3F4F6" stroke-width="11"/><line x1="559.914" x2="570.274" y1="501.316" y2="315.054" stroke="#F3F4F6" stroke-width="11"/><line x1="526.701" x2="531.602" y1="312.777" y2="224.693" stroke="#F3F4F6" stroke-width="11"/><line x1="693.399" x2="752" y1="379.827" y2="382.622" stroke="#F3F4F6" stroke-width="11"/><line x1="720.287" x2="752" y1="169.94" y2="178.985" stroke="#F3F4F6" stroke-width="11"/></g><g opacity=".749" transform="translate(0 56.284)"><polygon fill="#E5E7EB" points="503.492 0 502.64 19.49 500.208 19.49 499.429 47.956 501.461 47.956 498.174 101.731 539.71 102.881 540.171 98.918 547.052 98.918 547.052 100.906 689.472 107.212 690.816 73.041 693.756 73.041 694.902 51.989 692.62 51.989 694.902 9.978 653.842 7.738 653.1 22.169 543.401 15.678 543.873 1.166"/><polygon fill="#E5E7EB" points="130.587 94.747 125.228 205.957 186.114 209.03 192.071 98.775"/><polygon fill="#E5E7EB" points="259.667 134.956 254.848 212.451 333.036 216.87 337.261 138.772"/><polygon fill="#E5E7EB" points="401.153 140.251 396.485 219.701 499.594 224.154 502.479 145.935"/><polygon fill="#E5E7EB" points="0 258.77 508.475 277.094 502.479 418.098 0 399.419"/><polygon fill="#E5E7EB" points="0 457.569 104.581 462.327 105.859 444.634 303.826 450.952 300.443 540.716 101.817 540.716 103.202 522.252 0 517.81"/><polygon fill="#E5E7EB" points="519.065 540.716 522.426 477.343 657.606 481.199 659.254 463.813 751.879 467.375 752 540.716"/><polygon fill="#E5E7EB" points="752 426.864 722.699 425.1 727.133 353.627 752 355.434"/><polygon fill="#E5E7EB" points="752 307.496 737.35 306.246 743.636 154.975 752 156.207"/></g></g><g mask="url(#f)"><g transform="translate(24 -13)"><g transform="translate(27 265)"><circle cx="20" cy="20" r="20" fill="#BBE69D"/><circle cx="20" cy="20" r="19" stroke="#A8D08E" stroke-width="2"/></g><g transform="translate(163 272)"><circle cx="20" cy="20" r="20" fill="#80DEB6"/><circle cx="20" cy="20" r="19" stroke="#73C9A5" stroke-width="2"/></g><g transform="translate(203 147)"><circle cx="20" cy="20" r="20" fill="#FBE993"/><circle cx="20" cy="20" r="19" stroke="#E2D385" stroke-width="2"/></g><g transform="translate(341 151)"><circle cx="20" cy="20" r="20" fill="#53BCDC"/><circle cx="20" cy="20" r="19" stroke="#4AAAC8" stroke-width="2"/></g><g transform="translate(372 151)"><circle cx="20" cy="20" r="20" fill="#80DEB6"/><circle cx="20" cy="20" r="19" stroke="#73C9A5" stroke-width="2"/></g><g transform="translate(547 370)"><circle cx="20" cy="20" r="20" fill="#FBE993"/><circle cx="20" cy="20" r="19" stroke="#E2D385" stroke-width="2"/></g><g transform="translate(499 370)"><circle cx="20" cy="20" r="20" fill="#53BCDC"/><circle cx="20" cy="20" r="19" stroke="#4AAAC8" stroke-width="2"/></g><g transform="translate(499 402)"><circle cx="20" cy="20" r="20" fill="#BBE69D"/><circle cx="20" cy="20" r="19" stroke="#A8D08E" stroke-width="2"/></g><g transform="translate(547 402)"><circle cx="20" cy="20" r="20" fill="#53BCDC"/><circle cx="20" cy="20" r="19" stroke="#4AAAC8" stroke-width="2"/></g><g transform="translate(543 469)"><circle cx="20" cy="20" r="20" fill="#80DEB6"/><circle cx="20" cy="20" r="19" stroke="#73C9A5" stroke-width="2"/></g><g transform="translate(295 35)"><circle cx="20" cy="20" r="20" fill="#53BCDC"/><circle cx="20" cy="20" r="19" stroke="#4AAAC8" stroke-width="2"/></g><g transform="translate(295 66)"><circle cx="20" cy="20" r="20" fill="#53BCDC"/><circle cx="20" cy="20" r="19" stroke="#4AAAC8" stroke-width="2"/></g><g transform="translate(236 31)"><circle cx="20" cy="20" r="20" fill="#53BCDC"/><circle cx="20" cy="20" r="19" stroke="#4AAAC8" stroke-width="2"/></g><g transform="translate(236 62)"><circle cx="20" cy="20" r="20" fill="#80DEB6"/><circle cx="20" cy="20" r="19" stroke="#73C9A5" stroke-width="2"/></g><g transform="translate(177 28)"><circle cx="20" cy="20" r="20" fill="#53BCDC"/><circle cx="20" cy="20" r="19" stroke="#4AAAC8" stroke-width="2"/></g><g transform="translate(177 59)"><circle cx="20" cy="20" r="20" fill="#80DEB6"/><circle cx="20" cy="20" r="19" stroke="#73C9A5" stroke-width="2"/></g><g transform="translate(118 24)"><circle cx="20" cy="20" r="20" fill="#FBE993"/><circle cx="20" cy="20" r="19" stroke="#E2D385" stroke-width="2"/></g><g transform="translate(118 55)"><circle cx="20" cy="20" r="20" fill="#BBE69D"/><circle cx="20" cy="20" r="19" stroke="#A8D08E" stroke-width="2"/></g><g transform="translate(59 20)"><circle cx="20" cy="20" r="20" fill="#BBE69D"/><circle cx="20" cy="20" r="19" stroke="#A8D08E" stroke-width="2"/></g><g transform="translate(59 51)"><circle cx="20" cy="20" r="20" fill="#FBE993"/><circle cx="20" cy="20" r="19" stroke="#E2D385" stroke-width="2"/></g><g transform="translate(0 17)"><circle cx="20" cy="20" r="20" fill="#53BCDC"/><circle cx="20" cy="20" r="19" stroke="#4AAAC8" stroke-width="2"/></g><g transform="translate(0 48)"><circle cx="20" cy="20" r="20" fill="#53BCDC"/><circle cx="20" cy="20" r="19" stroke="#4AAAC8" stroke-width="2"/></g><g transform="translate(377 278)"><circle cx="20" cy="20" r="20" fill="#53BCDC"/><circle cx="20" cy="20" r="19" stroke="#4AAAC8" stroke-width="2"/></g><g transform="translate(408 278)"><circle cx="20" cy="20" r="20" fill="#52CFCF"/><circle cx="20" cy="20" r="19" stroke="#49BBBC" stroke-width="2"/></g><g transform="translate(571 285)"><circle cx="20" cy="20" r="20" fill="#53BCDC"/><circle cx="20" cy="20" r="19" stroke="#4AAAC8" stroke-width="2"/></g><g transform="translate(598 285)"><circle cx="20" cy="20" r="20" fill="#80DEB6"/><circle cx="20" cy="20" r="19" stroke="#73C9A5" stroke-width="2"/></g><g transform="translate(627 285)"><circle cx="20" cy="20" r="20" fill="#FBE993"/><circle cx="20" cy="20" r="19" stroke="#E2D385" stroke-width="2"/></g><g transform="translate(291 312)"><circle cx="20" cy="20" r="20" fill="#FBE993"/><circle cx="20" cy="20" r="19" stroke="#E2D385" stroke-width="2"/></g><g transform="translate(231 312)"><circle cx="20" cy="20" r="20" fill="#52CFCF"/><circle cx="20" cy="20" r="19" stroke="#49BBBC" stroke-width="2"/></g><g transform="translate(82 456)"><circle cx="20" cy="20" r="20" fill="#53BCDC"/><circle cx="20" cy="20" r="19" stroke="#4AAAC8" stroke-width="2"/></g><g transform="translate(352 509)"><circle cx="20" cy="20" r="20" fill="#80DEB6"/><circle cx="20" cy="20" r="19" stroke="#73C9A5" stroke-width="2"/></g><g transform="translate(261 312)"><circle cx="20" cy="20" r="20" fill="#53BCDC"/><circle cx="20" cy="20" r="19" stroke="#4AAAC8" stroke-width="2"/></g><g transform="translate(112 456)"><circle cx="20" cy="20" r="20" fill="#FBE993"/><circle cx="20" cy="20" r="19" stroke="#E2D385" stroke-width="2"/></g><g transform="translate(469 514)"><circle cx="20" cy="20" r="20" fill="#FBE993"/><circle cx="20" cy="20" r="19" stroke="#E2D385" stroke-width="2"/></g><g transform="translate(397 469)"><circle cx="20" cy="20" r="20" fill="#53BCDC"/><circle cx="20" cy="20" r="19" stroke="#4AAAC8" stroke-width="2"/></g><g transform="translate(321 465)"><circle cx="20" cy="20" r="20" fill="#FBE993"/><circle cx="20" cy="20" r="19" stroke="#E2D385" stroke-width="2"/></g><g transform="translate(258 465)"><circle cx="20" cy="20" r="20" fill="#52CFCF"/><circle cx="20" cy="20" r="19" stroke="#49BBBC" stroke-width="2"/></g><g transform="translate(578)"><circle cx="20" cy="20" r="20" fill="#52CFCF"/><circle cx="20" cy="20" r="19" stroke="#49BBBC" stroke-width="2"/></g></g></g></g></g><ellipse cx="254" cy="299" stroke="#D1D5DB" stroke-width="4" mask="url(#d)" rx="252" ry="297"/></g></g><g mask="url(#b)"><g transform="translate(40 42)"><path stroke="#9CA3AF" stroke-linecap="round" stroke-width="4" d="M208,0 L225,0 C238.254834,-5.98758718e-15 249,10.745166 249,24 L249,224.381606 C249,237.63644 259.745166,248.381606 273,248.381606 L308,248.381606 L308,248.381606"/><g transform="translate(0 257)"><g stroke-linecap="round" stroke-linejoin="round" stroke-width="4.5" transform="translate(6 16)"><path stroke="#52CFCF" d="M15.8335209,42 C7.08890876,42 0,35.5158915 0,27.5173383 C0,19.5187851 7.08890876,13.0346765 15.8335209,13.0346765 C17.1695272,7.34310418 21.9321648,2.69729216 28.3273942,0.847272898 C34.7226236,-1.00274636 41.7788573,0.224089075 46.8380804,4.06564217 C51.8973035,7.90719527 54.1908996,13.7798427 52.8548933,19.4714151 L56.2204726,19.4714151 C62.726126,19.4714152 68,24.5146107 68,30.7357075 C68,36.9568044 62.726126,42 56.2204726,42"/><line x1="1" x2="1" y2="6.667" stroke="#53BCDC" transform="translate(29 26)"/><line x1="1" x2="1" y2="6.667" stroke="#53BCDC" transform="translate(29 42)"/><line x1="1" x2="1" y2="6.667" stroke="#53BCDC" transform="translate(41 32)"/><line x1="1" x2="1" y2="6.667" stroke="#53BCDC" transform="translate(41 50)"/></g><g stroke-linecap="round" stroke-linejoin="round" stroke-width="4.5" transform="translate(12 172)"><circle cx="28" cy="28" r="28" stroke="#53BCDC"/><g stroke="#52CFCF" transform="translate(30 6)"><line x2="16" y1="18" y2="18"/><line x2="16" y1="26" y2="26"/><line x2="12" y1="34" y2="34"/><line x2="4" y1="42" y2="42"/><line x2="12" y1="10" y2="10"/><line x2="4" y1="2" y2="2"/></g></g><g stroke-linecap="round" stroke-linejoin="round" stroke-width="4.5" transform="translate(64 90)"><path stroke="#53BCDC" d="M20.3362899,20.6314979 C23.4557299,17.6186419 24.7067864,13.1570567 23.6086149,8.96155595 C22.5104433,4.76605524 19.2339448,1.4895567 15.038444,0.391385146 C10.8429433,-0.706786406 6.38135808,0.544270099 3.36850212,3.6637101 C-1.17910752,8.37219785 -1.1140703,15.8565749 3.51467739,20.4853226 C8.14342507,25.1140703 15.6278021,25.1791075 20.3362899,20.6314979 L20.3362899,20.6314979 Z" transform="translate(18 18)"/><g stroke="#52CFCF"><line x1="12" x2="8" y1="48" y2="52"/><line x1="12" x2="8" y1="12" y2="8"/><line x1="48" x2="52" y1="12" y2="8"/><line x1="48" x2="52" y1="48" y2="52"/><line x1="6" y1="30" y2="30"/><line x1="30" x2="30" y1="6"/><line x1="54" x2="60" y1="30" y2="30"/><line x1="30" x2="30" y1="54" y2="60"/></g></g><g transform="translate(108 160)"><polygon points="0 0 80 0 80 80 0 80"/><line x1="60" x2="60" y1="20" y2="20.033" stroke="#52CFCF" stroke-linecap="round" stroke-linejoin="round" stroke-width="13.5"/><path stroke="#53BCDC" stroke-linecap="round" stroke-linejoin="round" stroke-width="4.5" d="M60,43.3333333 L48.3333333,26.6666667 C45.2303711,21.0583968 46.556871,14.0358443 51.4917513,9.94585389 C56.4266316,5.85586349 63.5733684,5.85586349 68.5082487,9.94585389 C73.443129,14.0358443 74.7696289,21.0583968 71.6666667,26.6666667 L60,43.3333333"/><polyline stroke="#52CFCF" stroke-linecap="round" stroke-linejoin="round" stroke-width="4.5" points="35 15.833 30 13.333 10 23.333 10 66.667 30 56.667 50 66.667 70 56.667 70 50"/><polyline fill="#53BCDC" stroke="#53BCDC" stroke-linecap="round" stroke-linejoin="round" stroke-width="4.5" points="30 13.333 10 23.333 10 66.667 30 56.667"/><line x1="30" x2="30" y1="13.333" y2="56.667" stroke="#53BCDC" stroke-linecap="round" stroke-linejoin="round" stroke-width="4.5"/><line x1="50" x2="50" y1="50" y2="66.667" stroke="#52CFCF" stroke-linecap="round" stroke-linejoin="round" stroke-width="4.5"/></g><g transform="translate(109)"><polygon points="0 0 80 0 80 80 0 80"/><path stroke="#53BCDC" stroke-linecap="round" stroke-width="4.5" d="M43.3562653,21.8496923 C42.0726171,14.3208826 36.7218114,8.67395909 30.315878,8.67395909 C22.9520813,8.67395909 16.9825446,16.1358799 16.9825446,25.3406258 C16.9825446,34.5453716 22.9520813,42.0072924 30.315878,42.0072924" transform="rotate(45 30.17 25.34)"/><polyline fill="#53BCDC" stroke="#53BCDC" stroke-linecap="round" stroke-linejoin="round" stroke-width="4.5" points="44.415 53.728 67.985 53.728 75.098 46.616 75.056 60.8 67.985 53.728"/><path fill="#52CFCF" d="M19.8904352,29.2773963 L45.3904374,29.3024877 C46.6322108,29.3059246 47.6382212,30.3129255 47.6404363,31.5547016 L47.6404363,57.0547016 C47.6404363,58.2973423 46.633077,59.3047016 45.3904363,59.3047016 L19.8904363,59.3047016 C18.6477956,59.3047016 17.6404363,58.2973423 17.6404363,57.0547016 L17.6404363,31.5251824 C17.6382234,30.2825417 18.6455827,29.2751824 19.8882234,29.2751824 C19.8889614,29.2751824 19.8896994,29.2751827 19.8904352,29.2773963 Z" transform="rotate(45 32.64 44.29)"/></g></g><g transform="translate(100 157)"><circle cx="28.509" cy="27.491" r="22.4" fill="#FB9393"/><g opacity=".751" style="mix-blend-mode:multiply"><polygon points="0 0 56 0 56 56 0 56"/><circle cx="28" cy="28" r="21" stroke="#111827" stroke-linecap="round" stroke-linejoin="round" stroke-width="4"/><line x1="21" x2="21.023" y1="23.333" y2="23.333" stroke="#111827" stroke-linecap="round" stroke-linejoin="round" stroke-width="4"/><line x1="35" x2="35.023" y1="23.333" y2="23.333" stroke="#111827" stroke-linecap="round" stroke-linejoin="round" stroke-width="4"/><path stroke="#111827" stroke-linecap="round" stroke-linejoin="round" stroke-width="4" d="M22.1666667,35.5833333 C23.7027265,34.0155989 25.8051718,33.1321427 28,33.1321427 C30.1948282,33.1321427 32.2972735,34.0155989 33.8333333,35.5833333"/></g></g><g transform="translate(100 79)"><circle cx="28.509" cy="27.491" r="22.4" fill="#BBE69D"/><g opacity=".751" style="mix-blend-mode:multiply"><polygon points="0 0 56 0 56 56 0 56"/><circle cx="28" cy="28" r="21" stroke="#111827" stroke-linecap="round" stroke-linejoin="round" stroke-width="4"/><line x1="21" x2="21.023" y1="23.333" y2="23.333" stroke="#111827" stroke-linecap="round" stroke-linejoin="round" stroke-width="4"/><line x1="35" x2="35.023" y1="23.333" y2="23.333" stroke="#111827" stroke-linecap="round" stroke-linejoin="round" stroke-width="4"/><line x1="21" x2="35" y1="35" y2="35" stroke="#111827" stroke-linecap="round" stroke-linejoin="round" stroke-width="4"/></g></g><g transform="translate(100 1)"><circle cx="28.509" cy="27.491" r="22.4" fill="#FBE993"/><g opacity=".751" style="mix-blend-mode:multiply"><polygon points="0 0 56 0 56 56 0 56"/><circle cx="28" cy="28" r="21" stroke="#111827" stroke-linecap="round" stroke-linejoin="round" stroke-width="4"/><line x1="21" x2="21.023" y1="23.333" y2="23.333" stroke="#111827" stroke-linecap="round" stroke-linejoin="round" stroke-width="4"/><line x1="35" x2="35.023" y1="23.333" y2="23.333" stroke="#111827" stroke-linecap="round" stroke-linejoin="round" stroke-width="4"/><path stroke="#111827" stroke-linecap="round" stroke-linejoin="round" stroke-width="4" d="M22.1666667,35 C23.7027265,36.5677345 25.8051718,37.4511906 28,37.4511906 C30.1948282,37.4511906 32.2972735,36.5677345 33.8333333,35"/></g></g><g transform="translate(143 5)"><circle cx="23.25" cy="23" r="23" fill="#4B5563"/><circle cx="23.25" cy="23.25" r="23.25" stroke="#FFF" stroke-linecap="round" stroke-linejoin="round" stroke-width="5.167" transform="translate(0 .75)"/><path stroke="#9CA3AF" stroke-linecap="round" stroke-linejoin="round" stroke-width="5.167" d="M10.3333333,24 C10.3333333,16.866322 16.116322,11.0833333 23.25,11.0833333"/><g stroke="#53BCDC" stroke-linecap="round" stroke-linejoin="round" stroke-width="5.167" transform="rotate(-144 15.137 13.81)"><circle cx="2.583" cy="10.333" r="2.583"/><line x1="6.226" x2="12.917" y1="6.691"/></g></g><g transform="translate(143 83)"><circle cx="23.25" cy="23" r="23" fill="#4B5563"/><circle cx="23.25" cy="23.25" r="23.25" stroke="#FFF" stroke-linecap="round" stroke-linejoin="round" stroke-width="5.167" transform="translate(0 .75)"/><path stroke="#9CA3AF" stroke-linecap="round" stroke-linejoin="round" stroke-width="5.167" d="M10.3333333,24 C10.3333333,16.866322 16.116322,11.0833333 23.25,11.0833333"/><g stroke="#80DEB6" stroke-linecap="round" stroke-linejoin="round" stroke-width="5.167" transform="rotate(-91 19.632 7.012)"><circle cx="2.583" cy="10.333" r="2.583"/><line x1="6.226" x2="12.917" y1="6.691"/></g></g><g transform="translate(143 161)"><circle cx="23.25" cy="23" r="23" fill="#4B5563"/><circle cx="23.25" cy="23.25" r="23.25" stroke="#FFF" stroke-linecap="round" stroke-linejoin="round" stroke-width="5.167" transform="translate(0 .75)"/><path stroke="#9CA3AF" stroke-linecap="round" stroke-linejoin="round" stroke-width="5.167" d="M10.3333333,24 C10.3333333,16.866322 16.116322,11.0833333 23.25,11.0833333"/><g stroke="#FBE993" stroke-linecap="round" stroke-linejoin="round" stroke-width="5.167" transform="translate(20.667 13.667)"><circle cx="2.583" cy="10.333" r="2.583"/><line x1="6.226" x2="12.917" y1="6.691"/></g></g><path fill="#9CA3AF" fill-rule="nonzero" d="M225,246 C239.359403,246 251,257.640597 251,272 L251,472.381606 C251,484.53187 260.849736,494.381606 273,494.381606 L301.615,494.381 L288.269478,486.874757 C287.352605,486.359016 286.999248,485.228398 287.435466,484.290259 L287.506849,484.151083 C288.048377,483.188367 289.267807,482.846927 290.230522,483.388455 L310.230522,494.638455 L313.329458,496.381606 L310.230522,498.124757 L290.230522,509.374757 C289.267807,509.916284 288.048377,509.574844 287.506849,508.612128 C286.965321,507.649412 287.306762,506.429982 288.269478,505.888455 L301.615,498.381 L273,498.381606 C258.640597,498.381606 247,486.741009 247,472.381606 L247,272 C247,259.849736 237.150264,250 225,250 L208,250 C206.895431,250 206,249.104569 206,248 C206,246.895431 206.895431,246 208,246 L225,246 Z" transform="matrix(1 0 0 -1 0 744.382)"/></g></g><path fill="#9CA3AF" fill-rule="nonzero" d="M528.230522,277.006849 L548.230522,288.256849 C549.589826,289.021457 549.589826,290.978543 548.230522,291.743151 L528.230522,302.993151 C527.267807,303.534679 526.048377,303.193238 525.506849,302.230522 C524.965321,301.267807 525.306762,300.048377 526.269478,299.506849 L539.613,292 L481,292 C479.895431,292 479,291.104569 479,290 C479,288.895431 479.895431,288 481,288 L539.614,288 L526.269478,280.493151 C525.352605,279.97741 524.999248,278.846792 525.435466,277.908654 L525.506849,277.769478 C526.048377,276.806762 527.267807,276.465321 528.230522,277.006849 Z" transform="matrix(1 0 0 -1 0 580)"/><text fill="#4B5563" font-family="Manrope-Bold, Manrope" font-size="64" font-weight="bold" mask="url(#b)">
            <tspan x="391.32" y="342">KI</tspan>
        </text><g mask="url(#b)"><g transform="translate(376 200)"><polygon points="0 0 90 0 90 90 0 90"/><line x1="22.241" x2="27.023" y1="26.01" y2="41.944" stroke="#52CFCF" stroke-linecap="round" stroke-linejoin="round" stroke-width="4"/><line x1="48.049" x2="63.99" y1="62.977" y2="67.759" stroke="#52CFCF" stroke-linecap="round" stroke-linejoin="round" stroke-width="4"/><line x1="43.811" x2="65.407" y1="46.189" y2="24.593" stroke="#52CFCF" stroke-linecap="round" stroke-linejoin="round" stroke-width="4"/><circle cx="20.625" cy="20.625" r="5.625" stroke="#52CFCF" stroke-linecap="round" stroke-linejoin="round" stroke-width="4"/><circle cx="69.375" cy="20.625" r="5.625" stroke="#52CFCF" stroke-linecap="round" stroke-linejoin="round" stroke-width="4"/><circle cx="69.375" cy="69.375" r="5.625" stroke="#52CFCF" stroke-linecap="round" stroke-linejoin="round" stroke-width="4"/><circle cx="31.875" cy="58.125" r="18" fill="#53BCDC"/></g></g></g></svg>