<svg xmlns="http://www.w3.org/2000/svg" xmlns:xlink="http://www.w3.org/1999/xlink" width="752" height="597" style="background:#f9fafb" viewBox="0 0 752 597"><defs><rect id="a" width="752" height="597" x="0" y="0"/><rect id="e" width="752" height="597" x="0" y="0"/><ellipse id="c" cx="254" cy="299" rx="254" ry="299"/></defs><g fill="none" fill-rule="evenodd"><rect width="752" height="597" fill="#F9FAFB"/><mask id="b" fill="#fff"><use xlink:href="#a"/></mask><g mask="url(#b)"><g transform="translate(498)"><mask id="d" fill="#fff"><use xlink:href="#c"/></mask><use xlink:href="#c" fill="#D8D8D8"/><g mask="url(#d)"><g transform="translate(-237 1)"><rect width="752" height="597" fill="#F9FAFB"/><mask id="f" fill="#fff"><use xlink:href="#e"/></mask><g mask="url(#f)"><g stroke-linecap="round" stroke-linejoin="round"><path stroke="#F3F4F6" stroke-width="11" d="M0,5.10760212 C314.157972,23.0458871 503.594884,32.0150295 568.310737,32.0150295 C665.384516,32.0150295 666.969884,22.3447665 693.651547,0"/><line x1="504.703" x2="503.492" y2="30.42" stroke="#F3F4F6" stroke-width="11"/><polyline stroke="#F3F4F6" stroke-width="11" points="459.694 29.039 454.372 138.564 0 116.459"/><line x2="457.866" y1="40.273" y2="66.788" stroke="#F3F4F6" stroke-width="11"/><line x2="701.45" y1="293.348" y2="319.805" stroke="#F3F4F6" stroke-width="11"/><polyline stroke="#F3F4F6" stroke-width="11" points="752 77.936 729.747 97.007 677.253 505.394"/><line x1="751.879" y1="509.586" y2="479.068" stroke="#F3F4F6" stroke-width="11"/><line x1="315.401" x2="489.777" y1="547.436" y2="553.571" stroke="#F3F4F6" stroke-width="11"/><line x1="488.531" x2="492.314" y1="597" y2="499.117" stroke="#F3F4F6" stroke-width="11"/><line x1="559.914" x2="570.274" y1="501.316" y2="315.054" stroke="#F3F4F6" stroke-width="11"/><line x1="526.701" x2="531.602" y1="312.777" y2="224.693" stroke="#F3F4F6" stroke-width="11"/><line x1="693.399" x2="752" y1="379.827" y2="382.622" stroke="#F3F4F6" stroke-width="11"/><line x1="720.287" x2="752" y1="169.94" y2="178.985" stroke="#F3F4F6" stroke-width="11"/></g><g opacity=".749" transform="translate(0 56.284)"><polygon fill="#E5E7EB" points="503.492 0 502.64 19.49 500.208 19.49 499.429 47.956 501.461 47.956 498.174 101.731 539.71 102.881 540.171 98.918 547.052 98.918 547.052 100.906 689.472 107.212 690.816 73.041 693.756 73.041 694.902 51.989 692.62 51.989 694.902 9.978 653.842 7.738 653.1 22.169 543.401 15.678 543.873 1.166"/><polygon fill="#E5E7EB" points="130.587 94.747 125.228 205.957 186.114 209.03 192.071 98.775"/><polygon fill="#E5E7EB" points="259.667 134.956 254.848 212.451 333.036 216.87 337.261 138.772"/><polygon fill="#E5E7EB" points="401.153 140.251 396.485 219.701 499.594 224.154 502.479 145.935"/><polygon fill="#E5E7EB" points="0 258.77 508.475 277.094 502.479 418.098 0 399.419"/><polygon fill="#E5E7EB" points="0 457.569 104.581 462.327 105.859 444.634 303.826 450.952 300.443 540.716 101.817 540.716 103.202 522.252 0 517.81"/><polygon fill="#E5E7EB" points="519.065 540.716 522.426 477.343 657.606 481.199 659.254 463.813 751.879 467.375 752 540.716"/><polygon fill="#E5E7EB" points="752 426.864 722.699 425.1 727.133 353.627 752 355.434"/><polygon fill="#E5E7EB" points="752 307.496 737.35 306.246 743.636 154.975 752 156.207"/></g></g><g mask="url(#f)"><g transform="translate(24 -13)"><g transform="translate(27 265)"><circle cx="20" cy="20" r="20" fill="#BBE69D"/><circle cx="20" cy="20" r="19" stroke="#A8D08E" stroke-width="2"/><text fill="#111827" font-family="Manrope-Medium, Manrope" font-size="18" font-weight="400" opacity=".496">
                                        <tspan x="14.793" y="26">2</tspan>
                                    </text></g><g transform="translate(163 272)"><circle cx="20" cy="20" r="20" fill="#80DEB6"/><circle cx="20" cy="20" r="19" stroke="#73C9A5" stroke-width="2"/><text fill="#111827" font-family="Manrope-Medium, Manrope" font-size="18" font-weight="400" opacity=".496">
                                        <tspan x="14.938" y="26">3</tspan>
                                    </text></g><g transform="translate(203 147)"><circle cx="20" cy="20" r="20" fill="#FBE993"/><circle cx="20" cy="20" r="19" stroke="#E2D385" stroke-width="2"/><text fill="#111827" font-family="Manrope-Medium, Manrope" font-size="18" font-weight="400" opacity=".496">
                                        <tspan x="14.775" y="26">5</tspan>
                                    </text></g><g transform="translate(341 151)"><circle cx="20" cy="20" r="20" fill="#53BCDC"/><circle cx="20" cy="20" r="19" stroke="#4AAAC8" stroke-width="2"/><text fill="#111827" font-family="Manrope-Medium, Manrope" font-size="18" font-weight="400" opacity=".496">
                                        <tspan x="16.346" y="26">1</tspan>
                                    </text></g><g transform="translate(372 151)"><circle cx="20" cy="20" r="20" fill="#80DEB6"/><circle cx="20" cy="20" r="19" stroke="#73C9A5" stroke-width="2"/><text fill="#111827" font-family="Manrope-Medium, Manrope" font-size="18" font-weight="400" opacity=".496">
                                        <tspan x="14.938" y="26">3</tspan>
                                    </text></g><g transform="translate(547 370)"><circle cx="20" cy="20" r="20" fill="#FBE993"/><circle cx="20" cy="20" r="19" stroke="#E2D385" stroke-width="2"/><text fill="#111827" font-family="Manrope-Medium, Manrope" font-size="18" font-weight="400" opacity=".496">
                                        <tspan x="14.775" y="26">5</tspan>
                                    </text></g><g transform="translate(499 370)"><circle cx="20" cy="20" r="20" fill="#53BCDC"/><circle cx="20" cy="20" r="19" stroke="#4AAAC8" stroke-width="2"/><text fill="#111827" font-family="Manrope-Medium, Manrope" font-size="18" font-weight="400" opacity=".496">
                                        <tspan x="16.346" y="26">1</tspan>
                                    </text></g><g transform="translate(499 402)"><circle cx="20" cy="20" r="20" fill="#BBE69D"/><circle cx="20" cy="20" r="19" stroke="#A8D08E" stroke-width="2"/><text fill="#111827" font-family="Manrope-Medium, Manrope" font-size="18" font-weight="400" opacity=".496">
                                        <tspan x="14.793" y="26">2</tspan>
                                    </text></g><g transform="translate(547 402)"><circle cx="20" cy="20" r="20" fill="#53BCDC"/><circle cx="20" cy="20" r="19" stroke="#4AAAC8" stroke-width="2"/><text fill="#111827" font-family="Manrope-Medium, Manrope" font-size="18" font-weight="400" opacity=".496">
                                        <tspan x="16.346" y="26">1</tspan>
                                    </text></g><g transform="translate(543 469)"><circle cx="20" cy="20" r="20" fill="#80DEB6"/><circle cx="20" cy="20" r="19" stroke="#73C9A5" stroke-width="2"/><text fill="#111827" font-family="Manrope-Medium, Manrope" font-size="18" font-weight="400" opacity=".496">
                                        <tspan x="14.938" y="26">3</tspan>
                                    </text></g><g transform="translate(295 35)"><circle cx="20" cy="20" r="20" fill="#53BCDC"/><circle cx="20" cy="20" r="19" stroke="#4AAAC8" stroke-width="2"/><text fill="#111827" font-family="Manrope-Medium, Manrope" font-size="18" font-weight="400" opacity=".496">
                                        <tspan x="16.346" y="26">1</tspan>
                                    </text></g><g transform="translate(295 66)"><circle cx="20" cy="20" r="20" fill="#53BCDC"/><circle cx="20" cy="20" r="19" stroke="#4AAAC8" stroke-width="2"/><text fill="#111827" font-family="Manrope-Medium, Manrope" font-size="18" font-weight="400" opacity=".496">
                                        <tspan x="16.346" y="26">1</tspan>
                                    </text></g><g transform="translate(236 31)"><circle cx="20" cy="20" r="20" fill="#53BCDC"/><circle cx="20" cy="20" r="19" stroke="#4AAAC8" stroke-width="2"/><text fill="#111827" font-family="Manrope-Medium, Manrope" font-size="18" font-weight="400" opacity=".496">
                                        <tspan x="16.346" y="26">1</tspan>
                                    </text></g><g transform="translate(236 62)"><circle cx="20" cy="20" r="20" fill="#80DEB6"/><circle cx="20" cy="20" r="19" stroke="#73C9A5" stroke-width="2"/><text fill="#111827" font-family="Manrope-Medium, Manrope" font-size="18" font-weight="400" opacity=".496">
                                        <tspan x="14.938" y="26">3</tspan>
                                    </text></g><g transform="translate(177 28)"><circle cx="20" cy="20" r="20" fill="#53BCDC"/><circle cx="20" cy="20" r="19" stroke="#4AAAC8" stroke-width="2"/><text fill="#111827" font-family="Manrope-Medium, Manrope" font-size="18" font-weight="400" opacity=".496">
                                        <tspan x="16.346" y="26">1</tspan>
                                    </text></g><g transform="translate(177 59)"><circle cx="20" cy="20" r="20" fill="#80DEB6"/><circle cx="20" cy="20" r="19" stroke="#73C9A5" stroke-width="2"/><text fill="#111827" font-family="Manrope-Medium, Manrope" font-size="18" font-weight="400" opacity=".496">
                                        <tspan x="14.938" y="26">3</tspan>
                                    </text></g><g transform="translate(118 24)"><circle cx="20" cy="20" r="20" fill="#FBE993"/><circle cx="20" cy="20" r="19" stroke="#E2D385" stroke-width="2"/><text fill="#111827" font-family="Manrope-Medium, Manrope" font-size="18" font-weight="400" opacity=".496">
                                        <tspan x="14.775" y="26">5</tspan>
                                    </text></g><g transform="translate(118 55)"><circle cx="20" cy="20" r="20" fill="#BBE69D"/><circle cx="20" cy="20" r="19" stroke="#A8D08E" stroke-width="2"/><text fill="#111827" font-family="Manrope-Medium, Manrope" font-size="18" font-weight="400" opacity=".496">
                                        <tspan x="14.793" y="26">2</tspan>
                                    </text></g><g transform="translate(59 20)"><circle cx="20" cy="20" r="20" fill="#BBE69D"/><circle cx="20" cy="20" r="19" stroke="#A8D08E" stroke-width="2"/><text fill="#111827" font-family="Manrope-Medium, Manrope" font-size="18" font-weight="400" opacity=".496">
                                        <tspan x="14.793" y="26">2</tspan>
                                    </text></g><g transform="translate(59 51)"><circle cx="20" cy="20" r="20" fill="#FBE993"/><circle cx="20" cy="20" r="19" stroke="#E2D385" stroke-width="2"/><text fill="#111827" font-family="Manrope-Medium, Manrope" font-size="18" font-weight="400" opacity=".496">
                                        <tspan x="14.775" y="26">5</tspan>
                                    </text></g><g transform="translate(0 17)"><circle cx="20" cy="20" r="20" fill="#53BCDC"/><circle cx="20" cy="20" r="19" stroke="#4AAAC8" stroke-width="2"/><text fill="#111827" font-family="Manrope-Medium, Manrope" font-size="18" font-weight="400" opacity=".496">
                                        <tspan x="16.346" y="26">1</tspan>
                                    </text></g><g transform="translate(0 48)"><circle cx="20" cy="20" r="20" fill="#53BCDC"/><circle cx="20" cy="20" r="19" stroke="#4AAAC8" stroke-width="2"/><text fill="#111827" font-family="Manrope-Medium, Manrope" font-size="18" font-weight="400" opacity=".496">
                                        <tspan x="16.346" y="26">1</tspan>
                                    </text></g><g transform="translate(377 278)"><circle cx="20" cy="20" r="20" fill="#53BCDC"/><circle cx="20" cy="20" r="19" stroke="#4AAAC8" stroke-width="2"/><text fill="#111827" font-family="Manrope-Medium, Manrope" font-size="18" font-weight="400" opacity=".496">
                                        <tspan x="16.346" y="26">1</tspan>
                                    </text></g><g transform="translate(408 278)"><circle cx="20" cy="20" r="20" fill="#52CFCF"/><circle cx="20" cy="20" r="19" stroke="#49BBBC" stroke-width="2"/><text fill="#111827" font-family="Manrope-Medium, Manrope" font-size="18" font-weight="400" opacity=".496">
                                        <tspan x="14.636" y="26">4</tspan>
                                    </text></g><g transform="translate(571 285)"><circle cx="20" cy="20" r="20" fill="#53BCDC"/><circle cx="20" cy="20" r="19" stroke="#4AAAC8" stroke-width="2"/><text fill="#111827" font-family="Manrope-Medium, Manrope" font-size="18" font-weight="400" opacity=".496">
                                        <tspan x="16.346" y="26">1</tspan>
                                    </text></g><g transform="translate(598 285)"><circle cx="20" cy="20" r="20" fill="#80DEB6"/><circle cx="20" cy="20" r="19" stroke="#73C9A5" stroke-width="2"/><text fill="#111827" font-family="Manrope-Medium, Manrope" font-size="18" font-weight="400" opacity=".496">
                                        <tspan x="14.938" y="26">3</tspan>
                                    </text></g><g transform="translate(627 285)"><circle cx="20" cy="20" r="20" fill="#FBE993"/><circle cx="20" cy="20" r="19" stroke="#E2D385" stroke-width="2"/><text fill="#111827" font-family="Manrope-Medium, Manrope" font-size="18" font-weight="400" opacity=".496">
                                        <tspan x="14.775" y="26">5</tspan>
                                    </text></g><g transform="translate(291 312)"><circle cx="20" cy="20" r="20" fill="#FBE993"/><circle cx="20" cy="20" r="19" stroke="#E2D385" stroke-width="2"/><text fill="#111827" font-family="Manrope-Medium, Manrope" font-size="18" font-weight="400" opacity=".496">
                                        <tspan x="14.775" y="26">5</tspan>
                                    </text></g><g transform="translate(231 312)"><circle cx="20" cy="20" r="20" fill="#52CFCF"/><circle cx="20" cy="20" r="19" stroke="#49BBBC" stroke-width="2"/><text fill="#111827" font-family="Manrope-Medium, Manrope" font-size="18" font-weight="400" opacity=".496">
                                        <tspan x="14.636" y="26">4</tspan>
                                    </text></g><g transform="translate(82 456)"><circle cx="20" cy="20" r="20" fill="#53BCDC"/><circle cx="20" cy="20" r="19" stroke="#4AAAC8" stroke-width="2"/><text fill="#111827" font-family="Manrope-Medium, Manrope" font-size="18" font-weight="400" opacity=".496">
                                        <tspan x="16.346" y="26">1</tspan>
                                    </text></g><g transform="translate(352 509)"><circle cx="20" cy="20" r="20" fill="#80DEB6"/><circle cx="20" cy="20" r="19" stroke="#73C9A5" stroke-width="2"/><text fill="#111827" font-family="Manrope-Medium, Manrope" font-size="18" font-weight="400" opacity=".496">
                                        <tspan x="14.938" y="26">3</tspan>
                                    </text></g><g transform="translate(261 312)"><circle cx="20" cy="20" r="20" fill="#53BCDC"/><circle cx="20" cy="20" r="19" stroke="#4AAAC8" stroke-width="2"/><text fill="#111827" font-family="Manrope-Medium, Manrope" font-size="18" font-weight="400" opacity=".496">
                                        <tspan x="16.346" y="26">1</tspan>
                                    </text></g><g transform="translate(112 456)"><circle cx="20" cy="20" r="20" fill="#FBE993"/><circle cx="20" cy="20" r="19" stroke="#E2D385" stroke-width="2"/><text fill="#111827" font-family="Manrope-Medium, Manrope" font-size="18" font-weight="400" opacity=".496">
                                        <tspan x="14.775" y="26">5</tspan>
                                    </text></g><g transform="translate(469 514)"><circle cx="20" cy="20" r="20" fill="#FBE993"/><circle cx="20" cy="20" r="19" stroke="#E2D385" stroke-width="2"/><text fill="#111827" font-family="Manrope-Medium, Manrope" font-size="18" font-weight="400" opacity=".496">
                                        <tspan x="14.775" y="26">5</tspan>
                                    </text></g><g transform="translate(397 469)"><circle cx="20" cy="20" r="20" fill="#53BCDC"/><circle cx="20" cy="20" r="19" stroke="#4AAAC8" stroke-width="2"/><text fill="#111827" font-family="Manrope-Medium, Manrope" font-size="18" font-weight="400" opacity=".496">
                                        <tspan x="16.346" y="26">1</tspan>
                                    </text></g><g transform="translate(321 465)"><circle cx="20" cy="20" r="20" fill="#FBE993"/><circle cx="20" cy="20" r="19" stroke="#E2D385" stroke-width="2"/><text fill="#111827" font-family="Manrope-Medium, Manrope" font-size="18" font-weight="400" opacity=".496">
                                        <tspan x="14.775" y="26">5</tspan>
                                    </text></g><g transform="translate(258 465)"><circle cx="20" cy="20" r="20" fill="#52CFCF"/><circle cx="20" cy="20" r="19" stroke="#49BBBC" stroke-width="2"/><text fill="#111827" font-family="Manrope-Medium, Manrope" font-size="18" font-weight="400" opacity=".496">
                                        <tspan x="14.636" y="26">4</tspan>
                                    </text></g><g transform="translate(578)"><circle cx="20" cy="20" r="20" fill="#52CFCF"/><circle cx="20" cy="20" r="19" stroke="#49BBBC" stroke-width="2"/><text fill="#111827" font-family="Manrope-Medium, Manrope" font-size="18" font-weight="400" opacity=".496">
                                        <tspan x="14.636" y="26">4</tspan>
                                    </text></g></g></g></g></g><ellipse cx="254" cy="299" stroke="#D1D5DB" stroke-width="4" mask="url(#d)" rx="252" ry="297"/></g></g><g stroke-linecap="round" stroke-linejoin="round" mask="url(#b)"><g transform="translate(46 58)"><path stroke="#52CFCF" stroke-width="4.5" d="M15.8335209,42 C7.08890876,42 0,35.5158915 0,27.5173383 C0,19.5187851 7.08890876,13.0346765 15.8335209,13.0346765 C17.1695272,7.34310418 21.9321648,2.69729216 28.3273942,0.847272898 C34.7226236,-1.00274636 41.7788573,0.224089075 46.8380804,4.06564217 C51.8973035,7.90719527 54.1908996,13.7798427 52.8548933,19.4714151 L56.2204726,19.4714151 C62.726126,19.4714152 68,24.5146107 68,30.7357075 C68,36.9568044 62.726126,42 56.2204726,42"/><line x1="1" x2="1" y2="6.667" stroke="#53BCDC" stroke-width="4.5" transform="translate(29 26)"/><line x1="1" x2="1" y2="6.667" stroke="#53BCDC" stroke-width="4.5" transform="translate(29 42)"/><line x1="1" x2="1" y2="6.667" stroke="#53BCDC" stroke-width="4.5" transform="translate(41 32)"/><line x1="1" x2="1" y2="6.667" stroke="#53BCDC" stroke-width="4.5" transform="translate(41 50)"/></g></g><g stroke-linecap="round" stroke-linejoin="round" mask="url(#b)"><g transform="translate(52 160)"><circle cx="28" cy="28" r="28" stroke="#53BCDC" stroke-width="4.5"/><g transform="translate(30 6)"><line x2="16" y1="18" y2="18" stroke="#52CFCF" stroke-width="4.5"/><line x2="16" y1="26" y2="26" stroke="#52CFCF" stroke-width="4.5"/><line x2="12" y1="34" y2="34" stroke="#52CFCF" stroke-width="4.5"/><line x2="4" y1="42" y2="42" stroke="#52CFCF" stroke-width="4.5"/><line x2="12" y1="10" y2="10" stroke="#52CFCF" stroke-width="4.5"/><line x2="4" y1="2" y2="2" stroke="#52CFCF" stroke-width="4.5"/></g></g></g><g stroke-linecap="round" stroke-linejoin="round" mask="url(#b)"><g transform="translate(50 264)"><path stroke="#53BCDC" stroke-width="4.5" d="M20.3362899,20.6314979 C23.4557299,17.6186419 24.7067864,13.1570567 23.6086149,8.96155595 C22.5104433,4.76605524 19.2339448,1.4895567 15.038444,0.391385146 C10.8429433,-0.706786406 6.38135808,0.544270099 3.36850212,3.6637101 C-1.17910752,8.37219785 -1.1140703,15.8565749 3.51467739,20.4853226 C8.14342507,25.1140703 15.6278021,25.1791075 20.3362899,20.6314979 L20.3362899,20.6314979 Z" transform="translate(18 18)"/><line x1="12" x2="8" y1="48" y2="52" stroke="#52CFCF" stroke-width="4.5"/><line x1="12" x2="8" y1="12" y2="8" stroke="#52CFCF" stroke-width="4.5"/><line x1="48" x2="52" y1="12" y2="8" stroke="#52CFCF" stroke-width="4.5"/><line x1="48" x2="52" y1="48" y2="52" stroke="#52CFCF" stroke-width="4.5"/><line x1="6" y1="30" y2="30" stroke="#52CFCF" stroke-width="4.5"/><line x1="30" x2="30" y1="6" stroke="#52CFCF" stroke-width="4.5"/><line x1="54" x2="60" y1="30" y2="30" stroke="#52CFCF" stroke-width="4.5"/><line x1="30" x2="30" y1="54" y2="60" stroke="#52CFCF" stroke-width="4.5"/></g></g><g mask="url(#b)"><g transform="translate(40 361)"><polygon points="0 0 80 0 80 80 0 80"/><line x1="60" x2="60" y1="20" y2="20.033" stroke="#52CFCF" stroke-linecap="round" stroke-linejoin="round" stroke-width="13.5"/><path stroke="#53BCDC" stroke-linecap="round" stroke-linejoin="round" stroke-width="4.5" d="M60,43.3333333 L48.3333333,26.6666667 C45.2303711,21.0583968 46.556871,14.0358443 51.4917513,9.94585389 C56.4266316,5.85586349 63.5733684,5.85586349 68.5082487,9.94585389 C73.443129,14.0358443 74.7696289,21.0583968 71.6666667,26.6666667 L60,43.3333333"/><polyline stroke="#52CFCF" stroke-linecap="round" stroke-linejoin="round" stroke-width="4.5" points="35 15.833 30 13.333 10 23.333 10 66.667 30 56.667 50 66.667 70 56.667 70 50"/><polyline fill="#53BCDC" stroke="#53BCDC" stroke-linecap="round" stroke-linejoin="round" stroke-width="4.5" points="30 13.333 10 23.333 10 66.667 30 56.667"/><line x1="30" x2="30" y1="13.333" y2="56.667" stroke="#53BCDC" stroke-linecap="round" stroke-linejoin="round" stroke-width="4.5"/><line x1="50" x2="50" y1="50" y2="66.667" stroke="#52CFCF" stroke-linecap="round" stroke-linejoin="round" stroke-width="4.5"/></g></g><g mask="url(#b)"><g transform="translate(40 467)"><polygon points="0 0 80 0 80 80 0 80"/><path stroke="#53BCDC" stroke-linecap="round" stroke-width="4.5" d="M43.3562653,21.8496923 C42.0726171,14.3208826 36.7218114,8.67395909 30.315878,8.67395909 C22.9520813,8.67395909 16.9825446,16.1358799 16.9825446,25.3406258 C16.9825446,34.5453716 22.9520813,42.0072924 30.315878,42.0072924" transform="rotate(45 30.17 25.34)"/><polyline fill="#53BCDC" stroke="#53BCDC" stroke-linecap="round" stroke-linejoin="round" stroke-width="4.5" points="44.415 53.728 67.985 53.728 75.098 46.616 75.056 60.8 67.985 53.728"/><path fill="#52CFCF" d="M19.8904352,29.2773963 L45.3904374,29.3024877 C46.6322108,29.3059246 47.6382212,30.3129255 47.6404363,31.5547016 L47.6404363,57.0547016 C47.6404363,58.2973423 46.633077,59.3047016 45.3904363,59.3047016 L19.8904363,59.3047016 C18.6477956,59.3047016 17.6404363,58.2973423 17.6404363,57.0547016 L17.6404363,31.5251824 C17.6382234,30.2825417 18.6455827,29.2751824 19.8882234,29.2751824 C19.8889614,29.2751824 19.8896994,29.2751827 19.8904352,29.2773963 Z" transform="rotate(45 32.64 44.29)"/></g></g><path stroke="#9CA3AF" stroke-linecap="round" stroke-width="4" d="M160,42 L177,42 C190.254834,42 201,52.745166 201,66 L201,266.381606 C201,279.63644 211.745166,290.381606 225,290.381606 L260,290.381606 L260,290.381606" mask="url(#b)"/><path fill="#9CA3AF" fill-rule="nonzero" d="M177,288 C191.359403,288 203,299.640597 203,314 L203,514.381606 C203,526.53187 212.849736,536.381606 225,536.381606 L253.615,536.381 L240.269478,528.874757 C239.352605,528.359016 238.999248,527.228398 239.435466,526.290259 L239.506849,526.151083 C240.048377,525.188367 241.267807,524.846927 242.230522,525.388455 L262.230522,536.638455 L265.329458,538.381606 L262.230522,540.124757 L242.230522,551.374757 C241.267807,551.916284 240.048377,551.574844 239.506849,550.612128 C238.965321,549.649412 239.306762,548.429982 240.269478,547.888455 L253.615,540.381 L225,540.381606 C210.640597,540.381606 199,528.741009 199,514.381606 L199,314 C199,301.849736 189.150264,292 177,292 L160,292 C158.895431,292 158,291.104569 158,290 C158,288.895431 158.895431,288 160,288 L177,288 Z" transform="matrix(1 0 0 -1 0 828.382)"/><path fill="#9CA3AF" fill-rule="nonzero" d="M456.230522,277.006849 L476.230522,288.256849 C477.589826,289.021457 477.589826,290.978543 476.230522,291.743151 L456.230522,302.993151 C455.267807,303.534679 454.048377,303.193238 453.506849,302.230522 C452.965321,301.267807 453.306762,300.048377 454.269478,299.506849 L467.613,292 L383,292 C381.895431,292 381,291.104569 381,290 C381,288.895431 381.895431,288 383,288 L467.614,288 L454.269478,280.493151 C453.352605,279.97741 452.999248,278.846792 453.435466,277.908654 L453.506849,277.769478 C454.048377,276.806762 455.267807,276.465321 456.230522,277.006849 Z" transform="matrix(1 0 0 -1 0 580)"/><text fill="#4B5563" font-family="Manrope-Bold, Manrope" font-size="64" font-weight="bold" mask="url(#b)">
            <tspan x="299.32" y="342">KI</tspan>
        </text><g mask="url(#b)"><g transform="translate(284 200)"><polygon points="0 0 90 0 90 90 0 90"/><line x1="22.241" x2="27.023" y1="26.01" y2="41.944" stroke="#52CFCF" stroke-linecap="round" stroke-linejoin="round" stroke-width="4"/><line x1="48.049" x2="63.99" y1="62.977" y2="67.759" stroke="#52CFCF" stroke-linecap="round" stroke-linejoin="round" stroke-width="4"/><line x1="43.811" x2="65.407" y1="46.189" y2="24.593" stroke="#52CFCF" stroke-linecap="round" stroke-linejoin="round" stroke-width="4"/><circle cx="20.625" cy="20.625" r="5.625" stroke="#52CFCF" stroke-linecap="round" stroke-linejoin="round" stroke-width="4"/><circle cx="69.375" cy="20.625" r="5.625" stroke="#52CFCF" stroke-linecap="round" stroke-linejoin="round" stroke-width="4"/><circle cx="69.375" cy="69.375" r="5.625" stroke="#52CFCF" stroke-linecap="round" stroke-linejoin="round" stroke-width="4"/><circle cx="31.875" cy="58.125" r="18" fill="#53BCDC"/></g></g></g></svg>