<?xml version="1.0" encoding="UTF-8"?>
<svg width="752px" height="597px" viewBox="0 0 752 597" version="1.1" xmlns="http://www.w3.org/2000/svg" xmlns:xlink="http://www.w3.org/1999/xlink" style="background: #F9FAFB;">
    <title>Home Slider / Slides / 7</title>
    <defs>
        <rect id="path-1" x="0" y="0" width="752" height="597"></rect>
    </defs>
    <g id="Home-Slider-/-Slides-/-7" stroke="none" stroke-width="1" fill="none" fill-rule="evenodd">
        <rect fill="#F9FAFB" x="0" y="0" width="752" height="597"></rect>
        <mask id="mask-2" fill="white">
            <use xlink:href="#path-1"></use>
        </mask>
        <g id="Mask"></g>
        <g id="Group-9" mask="url(#mask-2)">
            <g transform="translate(366.000000, 442.500000) rotate(-6.000000) translate(-366.000000, -442.500000) translate(57.000000, 391.000000)" id="Button-/-CTA">
                <g id="Background" fill="#111827">
                    <rect x="0" y="0" width="618" height="103" rx="7.92307692"></rect>
                </g>
                <g id="Color-Scale" transform="translate(309.000000, 99.038462) scale(-1, 1) translate(-309.000000, -99.038462) translate(0.000000, 95.076923)">
                    <g id="Group" transform="translate(309.000000, 3.961538) scale(-1, 1) translate(-309.000000, -3.961538) ">
                        <rect id="05" fill="#53BCDC" x="494.4" y="1.13686838e-13" width="123.6" height="7.92307692"></rect>
                        <rect id="04" fill="#52CFCF" x="370.8" y="0" width="123.6" height="7.92307692"></rect>
                        <rect id="03" fill="#80DEB6" x="247.2" y="0" width="123.6" height="7.92307692"></rect>
                        <rect id="02" fill="#BBE69D" x="123.6" y="0" width="123.6" height="7.92307692"></rect>
                        <rect id="01" fill="#FBE993" x="0" y="0" width="123.6" height="7.92307692"></rect>
                    </g>
                </g>
                <g id="Contents" transform="translate(172.326923, 23.769231)">
                    <g id="gps" transform="translate(-0.000000, -0.000000)">
                        <polygon id="Path" points="0 0 47.5384615 0 47.5384615 47.5384615 0 47.5384615"></polygon>
                        <circle id="Oval" stroke="#9CA3AF" stroke-width="3.96153846" stroke-linecap="round" stroke-linejoin="round" cx="23.7692308" cy="23.7692308" r="17.8269231"></circle>
                        <polygon id="Path" stroke="#9CA3AF" stroke-width="3.96153846" stroke-linecap="round" stroke-linejoin="round" points="23.7692308 33.6730769 21.7884615 25.75 13.8653846 23.7692308 31.6923077 15.8461538"></polygon>
                    </g>
                    <text id="Text" font-family="Manrope-Medium, Manrope" font-size="35.6538462" font-weight="400" fill="#F9FAFB">
                        <tspan x="63.3846154" y="38">Baum finden</tspan>
                    </text>
                </g>
            </g>
        </g>
        <path id="Path-47" d="M368.179686,191.587029 C368.273592,192.687599 367.457528,193.655913 366.356958,193.749819 C321.275393,197.596376 288.825551,217.385946 267.480745,249.99696 C250.353346,276.164537 241.139726,309.484779 238.69154,345.401864 L238.272,357.686 L246.229912,344.604717 C246.775214,343.708189 247.912872,343.392874 248.834391,343.855719 L248.97798,343.935296 C249.921693,344.509298 250.221403,345.73965 249.647401,346.683363 L237.722751,366.288598 C236.91229,367.621071 234.95634,367.554415 234.238472,366.169859 L223.676175,345.7983 C223.167751,344.817699 223.550525,343.610606 224.531126,343.102181 C225.511727,342.593757 226.718821,342.976531 227.227245,343.957132 L234.275,357.551 L234.697326,345.197802 C237.191848,308.583637 246.583179,274.620719 264.133911,247.806366 C286.144444,214.178242 319.696357,193.716572 366.016896,189.7643 C367.117466,189.670395 368.085781,190.486458 368.179686,191.587029 Z" fill="#9CA3AF" fill-rule="nonzero"></path>
        <text id="Klick!" mask="url(#mask-2)" transform="translate(506.000000, 172.500000) rotate(9.000000) translate(-506.000000, -172.500000) " font-family="Manrope-Bold, Manrope" font-size="64" font-weight="bold" fill="#4B5563">
            <tspan x="420.176" y="197">Klick!</tspan>
        </text>
        <line x1="423.801675" y1="100.946017" x2="414.290838" y2="71.3591181" id="Path-4" stroke="#FBE993" stroke-width="4" stroke-linecap="round" stroke-linejoin="round" mask="url(#mask-2)"></line>
        <line x1="519.801675" y1="118.946017" x2="527" y2="83" id="Path-4" stroke="#BBE69D" stroke-width="4" stroke-linecap="round" stroke-linejoin="round" mask="url(#mask-2)"></line>
        <line x1="485.801675" y1="268.946017" x2="493" y2="233" id="Path-4" stroke="#52CFCF" stroke-width="4" stroke-linecap="round" stroke-linejoin="round" mask="url(#mask-2)"></line>
        <line x1="391" y1="242" x2="408" y2="215" id="Path-4" stroke="#80DEB6" stroke-width="4" stroke-linecap="round" stroke-linejoin="round" mask="url(#mask-2)"></line>
        <line x1="619.801675" y1="144.946017" x2="648" y2="126" id="Path-4" stroke="#80DEB6" stroke-width="4" stroke-linecap="round" stroke-linejoin="round" mask="url(#mask-2)"></line>
        <line x1="626.900837" y1="211.111743" x2="660.604021" y2="219.671071" id="Path-48" stroke="#52CFCF" stroke-width="4" stroke-linecap="round" stroke-linejoin="round" mask="url(#mask-2)"></line>
        <line x1="342.900837" y1="145.111743" x2="376.604021" y2="153.671071" id="Path-48" stroke="#BBE69D" stroke-width="4" stroke-linecap="round" stroke-linejoin="round" mask="url(#mask-2)"></line>
        <line x1="586.900837" y1="246.111743" x2="596" y2="278" id="Path-48" stroke="#53BCDC" stroke-width="4" stroke-linecap="round" stroke-linejoin="round" mask="url(#mask-2)"></line>
    </g>
</svg>