<svg xmlns="http://www.w3.org/2000/svg" width="231" height="60" viewBox="0 0 231 60"><g fill="none" transform="translate(.071 -.487)"><polygon fill="#FC0" points="31.429 40.957 32.929 40.957 32.929 60.957 29.429 60.957 29.429 40.957"/><polygon fill="red" points="31.429 20.857 32.929 20.857 32.929 40.957 29.429 40.957 29.429 20.857"/><polygon fill="#000" points="32.929 .958 32.929 20.957 31.429 20.957 29.429 20.957 29.429 .958"/><path fill="#000" d="M20.321,7.948 C21.344,9.567 22.146,9.54 23.356,9.54 C22.355,8.772 21.693,7.79 21.377,7.288 L19.507,4.296 C19.324,3.372 18.846,2.508 18.131,1.865 C18.371,1.774 18.571,1.678 18.692,1.587 C17.471,1.587 16.261,0.967 15.595,0.967 C15.167,0.967 14.891,1.223 14.891,1.561 C14.919,1.938 15.307,2.321 16.023,2.321 C16.186,2.321 16.393,2.3 16.621,2.262 C17.009,2.803 17.322,3.292 17.322,3.989 C17.322,5.299 15.756,6.32 14.175,6.32 C14.086,6.32 14.001,6.317 13.911,6.31 C13.767,5.986 13.291,5.44 13.291,4.82 C13.291,3.779 13.97,2.929 13.97,1.898 C13.97,1.257 13.658,0.861 13.537,0.696 C13.731,0.516 13.944,0.294 13.993,0.143 C13.88,0.191 13.747,0.198 13.551,0.198 C12.793,0.198 12.176,0 11.573,0 C11.23,0 11.137,0.106 11.137,0.207 C11.137,0.244 11.143,0.282 11.153,0.3 C11.025,0.249 10.904,0.217 10.761,0.19 C10.584,0.156 10.392,0.139 10.188,0.139 C9.456,0.139 9.196,0.446 9.196,0.709 C9.196,0.932 9.371,1.338 9.57,1.647 C9.856,1.504 10.198,1.406 10.355,1.406 C10.743,1.406 11.089,1.776 11.272,2.215 C11.011,2.246 10.96,2.258 10.696,2.258 C9.984,2.258 9.499,2.003 9.399,2.003 C9.389,2.003 9.37,2.008 9.37,2.024 C9.37,2.124 9.572,2.388 9.971,2.534 C10.495,2.726 11.282,2.806 11.413,2.827 C11.413,2.85 11.28,3.098 11.131,3.146 C11.099,3.156 11.075,3.157 11.038,3.15 C10.49,3.042 10.337,2.996 9.642,2.731 C9.621,2.723 9.608,2.736 9.608,2.759 C9.608,3.034 10.32,3.641 10.958,3.873 C10.425,4.553 9.76,5.249 9.446,6.31 C9.357,6.317 9.271,6.32 9.182,6.32 C7.601,6.32 6.034,5.299 6.034,3.989 C6.034,3.291 6.347,2.803 6.736,2.262 C6.964,2.3 7.171,2.321 7.334,2.321 C8.051,2.321 8.439,1.937 8.467,1.561 C8.467,1.223 8.192,0.967 7.762,0.967 C7.096,0.967 5.887,1.587 4.665,1.587 C4.786,1.678 4.986,1.774 5.226,1.865 C4.511,2.508 4.033,3.371 3.85,4.296 L1.98,7.288 C1.665,7.79 1.001,8.772 0,9.54 C1.21,9.54 2.012,9.567 3.036,7.948 L3.994,6.414 C4.065,6.613 4.153,6.807 4.255,6.997 L2.348,10.048 C2.031,10.554 1.373,11.528 0.368,12.3 C1.578,12.3 2.38,12.328 3.404,10.71 L5.046,8.082 C5.169,8.213 5.298,8.341 5.434,8.463 L3.118,12.171 C2.8,12.678 2.146,13.649 1.139,14.421 C2.349,14.421 3.151,14.45 4.175,12.831 L6.433,9.216 C6.582,9.31 6.734,9.402 6.891,9.487 L4.135,13.897 C3.817,14.405 3.163,15.374 2.156,16.147 C3.366,16.147 4.168,16.175 5.192,14.557 L8.03,10.014 C8.198,10.078 8.368,10.14 8.542,10.196 L5.335,15.329 C5.022,15.829 4.352,16.815 3.356,17.579 C4.565,17.579 5.368,17.606 6.391,15.989 L9.809,10.518 C9.844,10.524 9.878,10.53 9.912,10.537 C10.005,10.833 10.07,11.108 10.07,11.384 C10.07,13.103 8.942,14.621 7.588,15.793 C7.674,15.831 7.825,15.844 7.965,15.844 C8.244,15.844 8.425,15.829 8.551,15.807 C8.237,16.52 7.564,17.441 7.223,17.917 C6.78,17.837 6.135,17.774 5.713,17.774 C5.271,17.774 5.221,18.033 5.221,18.263 C5.221,18.664 5.409,18.984 5.627,19.161 C5.709,18.956 5.874,18.682 6.69,18.682 C6.706,18.682 6.734,18.684 6.772,18.687 C6.533,18.953 5.786,19.556 5.786,20.042 C5.786,20.364 6.14,20.847 6.605,20.847 C6.577,20.743 6.581,20.648 6.581,20.576 C6.581,20.181 6.93,19.721 7.225,19.399 C7.216,19.495 7.221,19.485 7.221,19.596 C7.221,20.528 7.305,20.955 7.896,20.955 C8.186,20.955 8.386,20.796 8.455,20.748 C8.071,20.394 8.051,20.117 8.051,19.595 C8.052,19.459 8.053,19.326 8.054,19.143 C8.055,19.024 8.054,18.866 8.034,18.751 C8.246,18.722 8.331,18.722 8.494,18.722 C8.494,18.722 9.334,18.656 9.536,19.092 C9.764,18.883 10.095,18.588 10.095,18.263 C10.095,18.048 9.993,17.805 9.56,17.805 C9.396,17.805 8.881,17.906 8.45,17.906 C8.566,17.648 9.081,16.894 9.528,16.347 C9.595,16.559 9.701,16.788 9.935,16.976 C9.967,16.624 10.174,15.511 10.724,14.861 C10.788,15.3 10.874,15.752 10.874,16.703 C10.874,19.016 10.318,20.725 9.137,21.052 C9.291,21.32 9.616,21.56 9.953,21.56 C10.385,21.56 10.62,21.072 10.86,20.611 C10.985,20.951 11.33,21.785 11.676,21.785 C12.022,21.785 12.367,20.951 12.492,20.611 C12.732,21.072 12.967,21.56 13.399,21.56 C13.736,21.56 14.062,21.32 14.215,21.052 C13.034,20.726 12.477,19.017 12.477,16.703 C12.477,15.752 12.563,15.301 12.627,14.861 C13.177,15.511 13.384,16.625 13.416,16.976 C13.65,16.788 13.756,16.559 13.824,16.347 C14.27,16.894 14.786,17.648 14.902,17.906 C14.47,17.906 13.955,17.805 13.792,17.805 C13.36,17.805 13.258,18.048 13.258,18.263 C13.258,18.588 13.589,18.883 13.817,19.092 C14.019,18.655 14.859,18.722 14.859,18.722 C15.022,18.722 15.107,18.722 15.319,18.751 C15.299,18.865 15.298,19.023 15.299,19.143 C15.301,19.327 15.301,19.459 15.302,19.595 C15.302,20.117 15.282,20.395 14.899,20.748 C14.968,20.796 15.168,20.955 15.458,20.955 C16.049,20.955 16.134,20.527 16.134,19.596 C16.134,19.485 16.137,19.494 16.13,19.399 C16.424,19.72 16.774,20.181 16.774,20.576 C16.774,20.647 16.778,20.743 16.75,20.847 C17.216,20.847 17.569,20.365 17.569,20.042 C17.569,19.556 16.822,18.952 16.583,18.687 C16.622,18.684 16.649,18.682 16.665,18.682 C17.482,18.682 17.646,18.956 17.728,19.161 C17.946,18.983 18.134,18.664 18.134,18.263 C18.134,18.033 18.085,17.774 17.643,17.774 C17.221,17.774 16.576,17.836 16.132,17.917 C15.792,17.44 15.119,16.52 14.804,15.807 C14.93,15.829 15.112,15.844 15.39,15.844 C15.53,15.844 15.681,15.831 15.767,15.793 C14.413,14.621 13.285,13.103 13.285,11.384 C13.285,11.109 13.35,10.833 13.443,10.537 C13.477,10.53 13.512,10.524 13.547,10.518 L16.964,15.989 C17.987,17.606 18.79,17.579 19.999,17.579 C19.003,16.815 18.334,15.829 18.021,15.329 L14.813,10.196 C14.987,10.14 15.157,10.079 15.325,10.014 L18.163,14.557 C19.186,16.175 19.988,16.147 21.199,16.147 C20.192,15.374 19.538,14.405 19.22,13.897 L16.464,9.487 C16.621,9.401 16.774,9.309 16.922,9.216 L19.181,12.831 C20.205,14.45 21.006,14.421 22.216,14.421 C21.21,13.65 20.556,12.678 20.237,12.171 L17.921,8.463 C18.057,8.341 18.187,8.213 18.309,8.082 L19.951,10.71 C20.975,12.328 21.776,12.3 22.987,12.3 C21.981,11.529 21.325,10.554 21.007,10.048 L19.1,6.997 C19.203,6.807 19.29,6.613 19.361,6.414 L20.321,7.948 Z M5.015,4.435 C5.015,3.295 5.844,2.393 6.136,2.14 C6.206,2.157 6.276,2.174 6.346,2.188 C6.036,2.566 5.489,3.201 5.489,4.041 C5.489,5.709 7.271,7.157 9.289,7.157 C9.276,7.3 9.269,7.45 9.269,7.604 C9.269,7.85 9.283,8.079 9.307,8.295 C7.024,8.282 5.015,6.43 5.015,4.435 Z M8.107,18.109 L8.094,18.148 L8.134,18.148 C8.775,18.148 9.087,18.102 9.293,18.072 C9.401,18.058 9.479,18.047 9.563,18.047 C9.729,18.047 9.855,18.063 9.855,18.266 C9.855,18.404 9.694,18.62 9.539,18.746 C9.303,18.523 8.976,18.479 8.496,18.479 C8.271,18.479 7.978,18.519 7.82,18.541 L7.795,18.544 L7.767,18.548 L7.776,18.623 C7.795,18.756 7.818,18.921 7.818,19.144 L7.815,19.346 L7.813,19.597 C7.813,20.141 7.888,20.451 8.078,20.686 C8.029,20.705 7.949,20.719 7.897,20.719 C7.56,20.719 7.461,20.572 7.461,19.598 C7.461,19.403 7.45,19.219 7.443,19.097 L7.434,18.916 L7.391,18.949 C6.889,19.332 6.372,20.015 6.341,20.527 C6.19,20.429 6.026,20.211 6.026,20.043 C6.026,19.764 6.446,19.345 6.931,18.859 L7.211,18.58 L7.246,18.544 L7.154,18.522 C7.05,18.495 6.856,18.446 6.691,18.446 C6.146,18.446 5.805,18.549 5.594,18.778 C5.519,18.669 5.455,18.414 5.455,18.264 C5.455,18.167 5.474,18.099 5.513,18.06 C5.561,18.014 5.635,18.014 5.7,18.014 L5.714,18.014 C6.314,18.014 7.032,18.122 7.312,18.167 L7.329,18.171 L7.34,18.157 C7.388,18.092 8.533,16.567 8.83,15.759 C8.898,15.734 8.958,15.714 9.077,15.714 C9.303,15.714 9.365,15.866 9.43,16.099 C8.715,16.968 8.269,17.644 8.107,18.109 Z M14.281,15.714 C14.401,15.714 14.459,15.734 14.529,15.759 C14.826,16.568 15.971,18.092 16.019,18.157 L16.03,18.171 L16.047,18.167 C16.327,18.122 17.044,18.014 17.645,18.014 L17.658,18.014 C17.723,18.014 17.797,18.014 17.845,18.06 C17.884,18.099 17.903,18.167 17.903,18.264 C17.903,18.413 17.84,18.668 17.764,18.778 C17.554,18.549 17.213,18.446 16.667,18.446 C16.502,18.446 16.309,18.495 16.204,18.522 L16.161,18.532 L16.112,18.545 L16.427,18.86 C16.913,19.345 17.333,19.764 17.333,20.044 C17.333,20.212 17.169,20.431 17.018,20.528 C16.986,20.016 16.469,19.333 15.967,18.95 L15.924,18.918 L15.916,19.098 C15.909,19.22 15.898,19.404 15.898,19.599 C15.898,20.573 15.799,20.72 15.462,20.72 C15.41,20.72 15.331,20.705 15.282,20.687 C15.472,20.453 15.547,20.142 15.547,19.598 L15.544,19.347 L15.542,19.145 C15.542,18.922 15.565,18.757 15.583,18.624 L15.593,18.549 L15.54,18.542 C15.382,18.52 15.089,18.48 14.865,18.48 C14.385,18.48 14.058,18.524 13.822,18.747 C13.666,18.621 13.506,18.404 13.506,18.267 C13.506,18.064 13.633,18.048 13.798,18.048 C13.882,18.048 13.96,18.06 14.068,18.073 C14.275,18.103 14.586,18.149 15.227,18.149 L15.266,18.149 L15.254,18.11 C15.091,17.645 14.646,16.969 13.93,16.1 C13.993,15.866 14.056,15.714 14.281,15.714 Z M11.631,2.414 C11.56,2.118 11.408,1.814 11.215,1.585 C11.039,1.378 10.748,1.131 10.357,1.131 C10.178,1.131 9.878,1.214 9.687,1.295 C9.615,1.166 9.476,0.852 9.476,0.711 C9.476,0.566 9.722,0.419 10.19,0.419 C11.222,0.419 11.839,0.886 11.839,1.668 C11.838,1.942 11.729,2.192 11.631,2.414 Z M12.094,1.397 C12.057,1.176 11.973,0.976 11.845,0.805 C11.851,0.603 11.934,0.41 12.26,0.569 C12.084,0.749 12.22,1.068 12.22,1.068 C12.22,1.068 12.58,0.901 12.506,0.664 C13.039,0.79 12.655,1.507 12.094,1.397 Z M14.102,8.296 C14.129,8.072 14.145,7.841 14.145,7.605 C14.145,7.476 14.146,7.327 14.13,7.157 C16.123,7.129 17.871,5.693 17.871,4.042 C17.871,3.202 17.323,2.567 17.014,2.189 C17.084,2.174 17.154,2.158 17.224,2.141 C17.516,2.395 18.345,3.297 18.345,4.436 C18.344,6.416 16.364,8.255 14.102,8.296 Z"/><path fill="#000" d="M4.926,2.404 C4.926,2.69 4.89,2.939 4.819,3.154 C4.748,3.368 4.65,3.553 4.528,3.707 C4.405,3.862 4.262,3.987 4.1,4.082 C3.937,4.177 3.769,4.249 3.594,4.296 L3.594,4.32 C3.808,4.36 4.008,4.435 4.195,4.546 C4.382,4.657 4.544,4.796 4.683,4.963 C4.822,5.13 4.933,5.326 5.016,5.552 C5.099,5.778 5.141,6.026 5.141,6.296 C5.141,6.621 5.085,6.919 4.974,7.189 C4.863,7.459 4.69,7.693 4.456,7.891 C4.222,8.089 3.926,8.244 3.57,8.355 C3.213,8.466 2.789,8.522 2.297,8.522 L0.618,8.522 L0.618,0.311 L2.201,0.311 C2.685,0.311 3.099,0.361 3.445,0.46 C3.79,0.559 4.074,0.7 4.296,0.883 C4.518,1.065 4.679,1.286 4.778,1.543 C4.876,1.799 4.926,2.086 4.926,2.404 Z M3.879,2.439 C3.879,2.058 3.744,1.745 3.474,1.499 C3.204,1.253 2.78,1.13 2.201,1.13 L1.654,1.13 L1.654,3.962 L2.189,3.962 C2.744,3.962 3.165,3.827 3.45,3.557 C3.735,3.287 3.879,2.915 3.879,2.439 Z M4.033,6.224 C4.033,5.78 3.888,5.429 3.599,5.171 C3.309,4.913 2.895,4.784 2.355,4.784 L1.653,4.784 L1.653,7.664 L2.296,7.664 C2.907,7.664 3.349,7.543 3.623,7.301 C3.897,7.059 4.033,6.7 4.033,6.224 Z M10.412,8.52 L9.531,8.52 L9.531,7.877 L9.507,7.877 C9.483,7.925 9.432,7.994 9.352,8.085 C9.273,8.176 9.172,8.264 9.049,8.347 C8.926,8.43 8.777,8.504 8.603,8.567 C8.429,8.631 8.234,8.662 8.02,8.662 C7.766,8.662 7.538,8.624 7.336,8.549 C7.134,8.474 6.961,8.353 6.818,8.186 C6.675,8.019 6.566,7.803 6.491,7.537 C6.416,7.271 6.378,6.944 6.378,6.555 L6.378,2.806 L7.342,2.806 L7.342,6.483 C7.342,6.959 7.419,7.298 7.574,7.5 C7.729,7.702 7.969,7.803 8.294,7.803 C8.572,7.803 8.806,7.734 8.996,7.595 C9.186,7.456 9.337,7.319 9.448,7.185 L9.448,2.806 L10.412,2.806 L10.412,8.52 Z M15.005,8.52 L15.005,4.843 C15.005,4.359 14.924,4.012 14.761,3.802 C14.598,3.592 14.35,3.487 14.017,3.487 C13.731,3.487 13.493,3.558 13.303,3.701 C13.113,3.844 12.962,3.983 12.851,4.118 L12.851,8.521 L11.887,8.521 L11.887,2.809 L12.768,2.809 L12.768,3.452 L12.792,3.452 C12.816,3.404 12.867,3.335 12.947,3.244 C13.026,3.153 13.13,3.065 13.256,2.982 C13.383,2.899 13.534,2.825 13.708,2.762 C13.882,2.699 14.081,2.667 14.303,2.667 C14.557,2.667 14.787,2.705 14.993,2.78 C15.199,2.855 15.374,2.976 15.517,3.143 C15.66,3.31 15.771,3.526 15.85,3.792 C15.929,4.058 15.969,4.385 15.969,4.774 L15.969,8.522 L15.005,8.522 L15.005,8.52 Z M17.147,5.748 C17.147,5.169 17.222,4.685 17.373,4.296 C17.524,3.907 17.718,3.594 17.956,3.356 C18.194,3.118 18.464,2.949 18.765,2.85 C19.066,2.751 19.368,2.701 19.669,2.701 C19.851,2.701 20.01,2.715 20.145,2.743 C20.28,2.771 20.391,2.804 20.478,2.844 L20.478,0.107 L21.442,0 L21.442,8.52 L20.561,8.52 L20.561,7.913 L20.537,7.913 C20.513,7.961 20.47,8.026 20.406,8.109 C20.342,8.192 20.255,8.276 20.144,8.359 C20.033,8.442 19.894,8.514 19.727,8.573 C19.56,8.633 19.366,8.662 19.144,8.662 C18.874,8.662 18.618,8.608 18.377,8.501 C18.135,8.394 17.923,8.223 17.74,7.989 C17.557,7.755 17.413,7.454 17.306,7.085 C17.201,6.717 17.147,6.271 17.147,5.748 Z M19.408,7.806 C19.559,7.806 19.694,7.786 19.813,7.746 C19.932,7.706 20.035,7.657 20.122,7.597 C20.209,7.537 20.283,7.476 20.342,7.413 C20.402,7.349 20.447,7.294 20.479,7.246 L20.479,3.724 C20.392,3.668 20.291,3.621 20.176,3.581 C20.061,3.541 19.916,3.522 19.742,3.522 C19.52,3.522 19.312,3.56 19.117,3.635 C18.923,3.71 18.754,3.835 18.611,4.01 C18.468,4.185 18.355,4.411 18.272,4.688 C18.189,4.966 18.147,5.307 18.147,5.711 C18.147,6.108 18.181,6.439 18.248,6.705 C18.315,6.971 18.409,7.185 18.528,7.348 C18.647,7.511 18.782,7.628 18.933,7.699 C19.083,7.771 19.242,7.806 19.408,7.806 Z M26.584,4.736 C26.584,4.982 26.576,5.194 26.56,5.373 C26.544,5.552 26.528,5.708 26.512,5.843 L23.596,5.843 C23.628,6.517 23.773,7.013 24.03,7.33 C24.288,7.647 24.659,7.806 25.143,7.806 C25.31,7.806 25.46,7.786 25.595,7.746 C25.73,7.706 25.847,7.659 25.946,7.603 C26.045,7.547 26.128,7.492 26.196,7.436 C26.263,7.38 26.313,7.337 26.345,7.305 L26.702,7.983 C26.662,8.023 26.603,8.08 26.524,8.156 C26.445,8.231 26.338,8.307 26.203,8.382 C26.068,8.457 25.902,8.523 25.703,8.578 C25.505,8.634 25.271,8.661 25.001,8.661 C24.644,8.661 24.321,8.601 24.031,8.482 C23.741,8.363 23.496,8.178 23.293,7.929 C23.091,7.679 22.934,7.362 22.823,6.977 C22.712,6.592 22.656,6.13 22.656,5.591 C22.656,5.083 22.713,4.645 22.829,4.276 C22.944,3.907 23.101,3.604 23.299,3.366 C23.497,3.128 23.727,2.951 23.989,2.836 C24.251,2.721 24.532,2.664 24.834,2.664 C25.381,2.664 25.81,2.836 26.119,3.182 C26.429,3.528 26.584,4.046 26.584,4.736 Z M24.775,3.451 C24.434,3.451 24.16,3.594 23.954,3.879 C23.748,4.164 23.629,4.577 23.597,5.117 L25.68,5.117 C25.688,5.077 25.694,5.02 25.698,4.944 C25.702,4.869 25.704,4.787 25.704,4.7 C25.704,4.303 25.625,3.996 25.466,3.778 C25.307,3.56 25.077,3.451 24.775,3.451 Z M30.332,3.963 C30.269,3.892 30.153,3.794 29.987,3.671 C29.82,3.548 29.602,3.487 29.332,3.487 C29.078,3.487 28.884,3.547 28.749,3.666 C28.614,3.785 28.547,3.928 28.547,4.094 C28.547,4.308 28.609,4.485 28.732,4.624 C28.855,4.763 29.043,4.912 29.297,5.07 L29.654,5.284 C30.043,5.514 30.348,5.762 30.57,6.028 C30.792,6.294 30.903,6.637 30.903,7.057 C30.903,7.509 30.746,7.89 30.433,8.199 C30.12,8.508 29.669,8.663 29.082,8.663 C28.852,8.663 28.65,8.639 28.475,8.592 C28.3,8.545 28.148,8.489 28.017,8.425 C27.886,8.362 27.777,8.292 27.69,8.217 C27.603,8.142 27.531,8.072 27.476,8.009 L27.94,7.247 C27.988,7.295 28.045,7.35 28.113,7.414 C28.18,7.477 28.262,7.539 28.357,7.598 C28.452,7.657 28.559,7.707 28.678,7.747 C28.797,7.787 28.936,7.807 29.095,7.807 C29.381,7.807 29.599,7.743 29.75,7.617 C29.901,7.49 29.976,7.335 29.976,7.153 C29.976,7.018 29.958,6.901 29.923,6.802 C29.887,6.703 29.834,6.614 29.762,6.534 C29.691,6.455 29.603,6.379 29.5,6.308 C29.397,6.237 29.278,6.157 29.143,6.07 L28.786,5.844 C28.429,5.614 28.149,5.372 27.947,5.118 C27.745,4.864 27.644,4.539 27.644,4.142 C27.644,3.928 27.686,3.731 27.769,3.553 C27.852,3.375 27.969,3.22 28.12,3.089 C28.271,2.958 28.447,2.855 28.65,2.78 C28.852,2.705 29.068,2.667 29.298,2.667 C29.52,2.667 29.71,2.689 29.869,2.732 C30.028,2.776 30.165,2.831 30.28,2.899 C30.395,2.967 30.49,3.034 30.566,3.101 C30.641,3.169 30.703,3.226 30.75,3.274 L30.332,3.963 Z M35.033,8.52 L35.033,4.843 C35.033,4.375 34.966,4.038 34.831,3.831 C34.696,3.625 34.478,3.522 34.176,3.522 C34.017,3.522 33.877,3.542 33.754,3.581 C33.631,3.621 33.522,3.67 33.427,3.73 C33.332,3.79 33.249,3.855 33.177,3.926 C33.106,3.997 33.046,4.061 32.998,4.116 L32.998,8.519 L32.034,8.519 L32.034,2.807 L32.915,2.807 L32.915,3.45 L32.939,3.45 C32.979,3.386 33.038,3.309 33.118,3.218 C33.197,3.127 33.296,3.039 33.416,2.956 C33.535,2.873 33.674,2.803 33.832,2.748 C33.99,2.693 34.169,2.665 34.367,2.665 C35.018,2.665 35.478,2.919 35.747,3.427 C35.803,3.348 35.878,3.262 35.973,3.171 C36.068,3.08 36.179,2.997 36.306,2.921 C36.433,2.846 36.576,2.784 36.734,2.737 C36.892,2.69 37.067,2.666 37.258,2.666 C38.416,2.666 38.995,3.34 38.995,4.689 L38.995,8.521 L38.031,8.521 L38.031,4.844 C38.031,4.376 37.948,4.039 37.781,3.832 C37.614,3.626 37.369,3.523 37.043,3.523 C36.773,3.523 36.549,3.588 36.371,3.719 C36.192,3.85 36.052,3.975 35.948,4.094 C35.964,4.181 35.976,4.275 35.984,4.374 C35.992,4.473 35.996,4.578 35.996,4.689 L35.996,8.521 L35.033,8.521 L35.033,8.52 Z M41.399,8.52 L40.435,8.52 L40.435,2.808 L41.399,2.808 L41.399,8.52 Z M40.923,1.428 C40.725,1.428 40.566,1.365 40.447,1.238 C40.328,1.111 40.268,0.945 40.268,0.738 C40.268,0.54 40.328,0.377 40.447,0.25 C40.566,0.123 40.725,0.06 40.923,0.06 C41.113,0.06 41.268,0.123 41.387,0.25 C41.506,0.377 41.566,0.54 41.566,0.738 C41.566,0.944 41.506,1.111 41.387,1.238 C41.268,1.364 41.114,1.428 40.923,1.428 Z M45.993,8.52 L45.993,4.843 C45.993,4.359 45.912,4.012 45.749,3.802 C45.586,3.592 45.338,3.487 45.005,3.487 C44.719,3.487 44.481,3.558 44.291,3.701 C44.101,3.844 43.95,3.983 43.839,4.118 L43.839,8.521 L42.875,8.521 L42.875,2.809 L43.756,2.809 L43.756,3.452 L43.78,3.452 C43.804,3.404 43.855,3.335 43.935,3.244 C44.014,3.153 44.118,3.065 44.244,2.982 C44.371,2.899 44.522,2.825 44.696,2.762 C44.87,2.699 45.069,2.667 45.291,2.667 C45.545,2.667 45.775,2.705 45.981,2.78 C46.187,2.855 46.362,2.976 46.505,3.143 C46.648,3.31 46.759,3.526 46.838,3.792 C46.917,4.058 46.957,4.385 46.957,4.774 L46.957,8.522 L45.993,8.522 L45.993,8.52 Z M49.36,8.52 L48.396,8.52 L48.396,2.808 L49.36,2.808 L49.36,8.52 Z M48.884,1.428 C48.686,1.428 48.527,1.365 48.408,1.238 C48.289,1.111 48.23,0.945 48.23,0.738 C48.23,0.54 48.289,0.377 48.408,0.25 C48.527,0.123 48.686,0.06 48.884,0.06 C49.074,0.06 49.229,0.123 49.348,0.25 C49.467,0.377 49.526,0.54 49.526,0.738 C49.526,0.944 49.466,1.111 49.348,1.238 C49.23,1.364 49.075,1.428 48.884,1.428 Z M53.299,3.963 C53.236,3.892 53.121,3.794 52.954,3.671 C52.787,3.548 52.569,3.487 52.299,3.487 C52.045,3.487 51.851,3.547 51.716,3.666 C51.581,3.785 51.514,3.928 51.514,4.094 C51.514,4.308 51.576,4.485 51.699,4.624 C51.822,4.763 52.01,4.912 52.264,5.07 L52.621,5.284 C53.01,5.514 53.315,5.762 53.537,6.028 C53.759,6.294 53.87,6.637 53.87,7.057 C53.87,7.509 53.713,7.89 53.4,8.199 C53.087,8.508 52.636,8.663 52.049,8.663 C51.819,8.663 51.617,8.639 51.442,8.592 C51.267,8.545 51.115,8.489 50.984,8.425 C50.853,8.362 50.744,8.292 50.657,8.217 C50.57,8.142 50.498,8.072 50.443,8.009 L50.907,7.247 C50.955,7.295 51.012,7.35 51.08,7.414 C51.147,7.477 51.229,7.539 51.324,7.598 C51.419,7.658 51.526,7.707 51.645,7.747 C51.764,7.787 51.903,7.807 52.061,7.807 C52.347,7.807 52.565,7.743 52.716,7.617 C52.867,7.491 52.942,7.335 52.942,7.153 C52.942,7.018 52.924,6.901 52.889,6.802 C52.853,6.703 52.8,6.614 52.728,6.534 C52.657,6.455 52.569,6.379 52.466,6.308 C52.363,6.237 52.244,6.157 52.109,6.07 L51.752,5.844 C51.395,5.614 51.115,5.372 50.913,5.118 C50.711,4.864 50.61,4.539 50.61,4.142 C50.61,3.928 50.652,3.731 50.735,3.553 C50.818,3.375 50.935,3.22 51.086,3.089 C51.237,2.958 51.413,2.855 51.616,2.78 C51.818,2.705 52.034,2.667 52.264,2.667 C52.486,2.667 52.676,2.689 52.835,2.732 C52.994,2.776 53.131,2.831 53.246,2.899 C53.361,2.967 53.456,3.034 53.532,3.101 C53.607,3.169 53.669,3.226 53.716,3.274 L53.299,3.963 Z M57.441,3.594 L56.192,3.594 L56.192,6.759 C56.192,7.164 56.244,7.439 56.347,7.586 C56.45,7.733 56.625,7.806 56.871,7.806 C57.014,7.806 57.137,7.786 57.24,7.746 C57.343,7.706 57.419,7.671 57.466,7.639 L57.597,8.413 C57.557,8.445 57.462,8.494 57.311,8.562 C57.16,8.629 56.958,8.663 56.704,8.663 C56.212,8.663 55.843,8.526 55.597,8.252 C55.351,7.978 55.228,7.524 55.228,6.89 L55.228,3.594 L54.538,3.594 L54.538,2.951 L55.228,2.808 L55.335,1.213 L56.192,1.213 L56.192,2.808 L57.56,2.808 L57.441,3.594 Z M62.117,4.736 C62.117,4.982 62.109,5.194 62.093,5.373 C62.077,5.552 62.061,5.708 62.045,5.843 L59.13,5.843 C59.162,6.517 59.306,7.013 59.564,7.33 C59.822,7.647 60.193,7.806 60.677,7.806 C60.844,7.806 60.994,7.786 61.129,7.746 C61.264,7.706 61.381,7.659 61.48,7.603 C61.579,7.547 61.662,7.492 61.73,7.436 C61.797,7.38 61.847,7.337 61.879,7.305 L62.236,7.983 C62.196,8.023 62.137,8.08 62.058,8.156 C61.979,8.231 61.872,8.307 61.737,8.382 C61.602,8.457 61.436,8.523 61.237,8.578 C61.038,8.633 60.805,8.661 60.535,8.661 C60.178,8.661 59.855,8.601 59.565,8.482 C59.275,8.363 59.03,8.178 58.827,7.929 C58.625,7.679 58.468,7.362 58.357,6.977 C58.246,6.592 58.19,6.13 58.19,5.591 C58.19,5.083 58.248,4.645 58.363,4.276 C58.478,3.907 58.635,3.604 58.833,3.366 C59.031,3.128 59.261,2.951 59.523,2.836 C59.785,2.721 60.066,2.664 60.368,2.664 C60.915,2.664 61.344,2.836 61.653,3.182 C61.962,3.528 62.117,4.046 62.117,4.736 Z M60.309,3.451 C59.968,3.451 59.694,3.594 59.488,3.879 C59.282,4.165 59.163,4.577 59.131,5.117 L61.213,5.117 C61.221,5.077 61.227,5.02 61.231,4.944 C61.235,4.869 61.237,4.787 61.237,4.7 C61.237,4.303 61.158,3.996 60.999,3.778 C60.84,3.56 60.61,3.451 60.309,3.451 Z M65.913,3.653 C65.889,3.637 65.838,3.617 65.758,3.594 C65.678,3.571 65.572,3.558 65.437,3.558 C65.136,3.558 64.9,3.639 64.729,3.802 C64.558,3.965 64.437,4.141 64.366,4.332 L64.366,8.521 L63.402,8.521 L63.402,2.809 L64.283,2.809 L64.283,3.582 L64.307,3.582 C64.347,3.471 64.398,3.362 64.462,3.255 C64.525,3.148 64.605,3.053 64.7,2.969 C64.795,2.886 64.908,2.82 65.039,2.773 C65.17,2.725 65.327,2.702 65.509,2.702 C65.644,2.702 65.753,2.714 65.836,2.738 C65.919,2.762 65.985,2.782 66.032,2.797 L65.913,3.653 Z M67.829,8.52 L66.865,8.52 L66.865,2.808 L67.829,2.808 L67.829,8.52 Z M67.353,1.428 C67.155,1.428 66.996,1.365 66.877,1.238 C66.758,1.111 66.699,0.945 66.699,0.738 C66.699,0.54 66.758,0.377 66.877,0.25 C66.996,0.123 67.155,0.06 67.353,0.06 C67.543,0.06 67.698,0.123 67.817,0.25 C67.936,0.377 67.995,0.54 67.995,0.738 C67.995,0.944 67.935,1.111 67.817,1.238 C67.698,1.364 67.544,1.428 67.353,1.428 Z M73.303,8.52 L72.422,8.52 L72.422,7.877 L72.398,7.877 C72.374,7.925 72.323,7.994 72.243,8.085 C72.164,8.176 72.063,8.264 71.94,8.347 C71.817,8.43 71.668,8.504 71.494,8.567 C71.32,8.631 71.125,8.662 70.911,8.662 C70.657,8.662 70.429,8.624 70.227,8.549 C70.025,8.474 69.852,8.353 69.709,8.186 C69.566,8.019 69.457,7.803 69.382,7.537 C69.307,7.271 69.269,6.944 69.269,6.555 L69.269,2.806 L70.233,2.806 L70.233,6.483 C70.233,6.959 70.31,7.298 70.465,7.5 C70.62,7.702 70.86,7.803 71.185,7.803 C71.463,7.803 71.697,7.734 71.887,7.595 C72.077,7.456 72.228,7.319 72.339,7.185 L72.339,2.806 L73.303,2.806 L73.303,8.52 Z M77.778,8.52 L77.778,4.843 C77.778,4.375 77.711,4.038 77.576,3.831 C77.441,3.624 77.223,3.522 76.922,3.522 C76.763,3.522 76.623,3.542 76.5,3.581 C76.377,3.621 76.268,3.67 76.173,3.73 C76.078,3.79 75.995,3.855 75.923,3.926 C75.852,3.997 75.792,4.061 75.745,4.116 L75.745,8.519 L74.781,8.519 L74.781,2.807 L75.662,2.807 L75.662,3.45 L75.686,3.45 C75.726,3.386 75.785,3.309 75.864,3.218 C75.943,3.127 76.043,3.039 76.162,2.956 C76.281,2.873 76.42,2.803 76.579,2.748 C76.738,2.692 76.916,2.665 77.115,2.665 C77.765,2.665 78.226,2.919 78.495,3.427 C78.551,3.348 78.626,3.262 78.721,3.171 C78.816,3.08 78.927,2.997 79.054,2.921 C79.181,2.846 79.324,2.784 79.482,2.737 C79.641,2.689 79.815,2.666 80.006,2.666 C81.164,2.666 81.743,3.34 81.743,4.689 L81.743,8.521 L80.779,8.521 L80.779,4.844 C80.779,4.376 80.696,4.039 80.529,3.832 C80.362,3.625 80.116,3.523 79.791,3.523 C79.521,3.523 79.297,3.588 79.119,3.719 C78.941,3.85 78.8,3.975 78.697,4.094 C78.713,4.181 78.725,4.275 78.733,4.374 C78.741,4.473 78.745,4.578 78.745,4.689 L78.745,8.521 L77.778,8.521 L77.778,8.52 Z M2.82,15.594 L1.654,15.594 L1.654,20.521 L0.69,20.521 L0.69,15.594 L0,15.594 L0,14.951 L0.69,14.82 L0.69,13.678 C0.69,13.369 0.734,13.103 0.821,12.881 C0.908,12.659 1.023,12.476 1.166,12.334 C1.309,12.191 1.475,12.088 1.666,12.025 C1.856,11.961 2.059,11.93 2.273,11.93 C2.479,11.93 2.654,11.958 2.797,12.013 C2.94,12.069 3.035,12.112 3.083,12.144 L2.881,12.941 C2.833,12.909 2.766,12.876 2.679,12.84 C2.592,12.804 2.485,12.787 2.358,12.787 C2.128,12.787 1.953,12.858 1.834,13.001 C1.715,13.144 1.656,13.406 1.656,13.786 L1.656,14.809 L2.941,14.809 L2.82,15.594 Z M7.77,20.52 L6.889,20.52 L6.889,19.877 L6.865,19.877 C6.841,19.925 6.79,19.994 6.71,20.085 C6.631,20.176 6.53,20.264 6.407,20.347 C6.284,20.43 6.135,20.504 5.961,20.567 C5.787,20.63 5.592,20.662 5.378,20.662 C5.124,20.662 4.896,20.624 4.694,20.549 C4.492,20.474 4.319,20.353 4.176,20.186 C4.033,20.019 3.924,19.803 3.849,19.537 C3.774,19.271 3.736,18.944 3.736,18.555 L3.736,14.807 L4.7,14.807 L4.7,18.484 C4.7,18.96 4.777,19.299 4.932,19.502 C5.087,19.704 5.327,19.805 5.652,19.805 C5.93,19.805 6.164,19.736 6.354,19.597 C6.544,19.458 6.695,19.321 6.806,19.187 L6.806,14.808 L7.77,14.808 L7.77,20.52 Z M5.402,13.166 C5.402,13.349 5.347,13.495 5.235,13.606 C5.124,13.717 4.989,13.773 4.83,13.773 C4.671,13.773 4.536,13.718 4.425,13.606 C4.314,13.495 4.258,13.348 4.258,13.166 C4.258,12.984 4.313,12.837 4.425,12.726 C4.537,12.615 4.671,12.559 4.83,12.559 C4.989,12.559 5.123,12.615 5.235,12.726 C5.346,12.837 5.402,12.984 5.402,13.166 Z M7.235,13.166 C7.235,13.349 7.179,13.495 7.068,13.606 C6.957,13.717 6.822,13.773 6.663,13.773 C6.504,13.773 6.37,13.718 6.258,13.606 C6.147,13.495 6.091,13.348 6.091,13.166 C6.091,12.984 6.147,12.837 6.258,12.726 C6.369,12.615 6.504,12.559 6.663,12.559 C6.822,12.559 6.957,12.615 7.068,12.726 C7.179,12.837 7.235,12.984 7.235,13.166 Z M11.756,15.653 C11.732,15.637 11.681,15.617 11.601,15.593 C11.522,15.569 11.415,15.557 11.28,15.557 C10.979,15.557 10.743,15.638 10.572,15.801 C10.401,15.964 10.28,16.14 10.209,16.331 L10.209,20.52 L9.245,20.52 L9.245,14.808 L10.126,14.808 L10.126,15.581 L10.15,15.581 C10.19,15.47 10.241,15.361 10.305,15.254 C10.369,15.147 10.448,15.052 10.543,14.968 C10.638,14.884 10.751,14.819 10.882,14.772 C11.013,14.724 11.17,14.701 11.352,14.701 C11.487,14.701 11.596,14.713 11.679,14.737 C11.762,14.761 11.828,14.781 11.875,14.797 L11.756,15.653 Z M20.479,17.343 C20.479,18.43 20.253,19.255 19.801,19.818 C19.349,20.381 18.667,20.663 17.754,20.663 C16.858,20.663 16.189,20.401 15.749,19.878 C15.309,19.354 15.089,18.51 15.089,17.343 L15.089,12.309 L16.124,12.309 L16.124,17.355 C16.124,18.196 16.265,18.809 16.547,19.194 C16.829,19.579 17.251,19.771 17.814,19.771 C18.385,19.771 18.806,19.583 19.075,19.206 C19.345,18.829 19.48,18.212 19.48,17.356 L19.48,12.31 L20.48,12.31 L20.48,17.343 L20.479,17.343 Z M25.037,20.52 L25.037,16.843 C25.037,16.375 24.97,16.038 24.835,15.832 C24.7,15.626 24.482,15.523 24.18,15.523 C24.021,15.523 23.881,15.543 23.758,15.583 C23.635,15.623 23.526,15.672 23.431,15.732 C23.336,15.791 23.252,15.857 23.181,15.928 C23.11,15.999 23.05,16.063 23.002,16.118 L23.002,20.521 L22.038,20.521 L22.038,14.809 L22.919,14.809 L22.919,15.452 L22.943,15.452 C22.983,15.389 23.042,15.311 23.121,15.22 C23.2,15.129 23.299,15.041 23.419,14.958 C23.538,14.875 23.677,14.805 23.835,14.75 C23.994,14.695 24.172,14.667 24.371,14.667 C25.021,14.667 25.482,14.921 25.751,15.429 C25.807,15.35 25.882,15.264 25.977,15.173 C26.072,15.082 26.183,14.999 26.31,14.923 C26.437,14.848 26.58,14.786 26.738,14.739 C26.896,14.692 27.071,14.668 27.262,14.668 C28.42,14.668 28.999,15.342 28.999,16.691 L28.999,20.523 L28.035,20.523 L28.035,16.846 C28.035,16.378 27.952,16.041 27.785,15.835 C27.618,15.629 27.373,15.526 27.047,15.526 C26.777,15.526 26.553,15.592 26.375,15.722 C26.197,15.853 26.056,15.978 25.952,16.097 C25.968,16.184 25.98,16.277 25.988,16.377 C25.996,16.476 26,16.581 26,16.692 L26,20.524 L25.037,20.524 L25.037,20.52 Z M36.973,14.808 L35.236,20.52 L34.378,20.52 L33.795,18.521 C33.708,18.235 33.634,17.97 33.575,17.724 C33.515,17.478 33.478,17.244 33.462,17.022 L33.438,17.022 C33.422,17.244 33.378,17.482 33.307,17.736 C33.236,17.99 33.152,18.256 33.057,18.533 L32.402,20.52 L31.581,20.52 L29.784,14.808 L30.819,14.808 L31.676,18.045 C31.755,18.346 31.825,18.626 31.884,18.884 C31.944,19.142 31.977,19.386 31.985,19.616 L32.009,19.616 C32.033,19.386 32.082,19.146 32.158,18.896 C32.233,18.646 32.319,18.374 32.414,18.081 L33.033,16.213 L32.605,14.809 L33.605,14.809 L34.474,17.962 C34.561,18.287 34.641,18.593 34.712,18.878 C34.783,19.164 34.823,19.41 34.831,19.616 L34.855,19.616 C34.871,19.41 34.911,19.162 34.974,18.872 C35.037,18.583 35.113,18.279 35.2,17.962 L36.045,14.809 L36.973,14.809 L36.973,14.808 Z M41.447,16.736 C41.447,16.982 41.439,17.194 41.423,17.373 C41.407,17.552 41.391,17.708 41.375,17.843 L38.459,17.843 C38.491,18.517 38.635,19.013 38.893,19.33 C39.151,19.647 39.522,19.806 40.006,19.806 C40.173,19.806 40.323,19.786 40.458,19.746 C40.593,19.706 40.71,19.659 40.809,19.603 C40.908,19.547 40.991,19.492 41.059,19.436 C41.126,19.381 41.176,19.337 41.208,19.305 L41.565,19.983 C41.525,20.023 41.466,20.08 41.386,20.156 C41.307,20.231 41.2,20.307 41.065,20.382 C40.93,20.457 40.764,20.523 40.565,20.578 C40.367,20.633 40.133,20.661 39.863,20.661 C39.506,20.661 39.183,20.601 38.893,20.483 C38.603,20.364 38.358,20.18 38.155,19.93 C37.952,19.68 37.796,19.363 37.685,18.978 C37.574,18.593 37.518,18.131 37.518,17.592 C37.518,17.084 37.575,16.646 37.691,16.277 C37.806,15.908 37.963,15.605 38.161,15.367 C38.359,15.129 38.589,14.953 38.851,14.837 C39.113,14.722 39.394,14.664 39.696,14.664 C40.243,14.664 40.672,14.837 40.981,15.182 C41.292,15.528 41.447,16.046 41.447,16.736 Z M39.638,15.451 C39.297,15.451 39.023,15.594 38.817,15.879 C38.611,16.164 38.492,16.577 38.46,17.117 L40.543,17.117 C40.551,17.077 40.557,17.02 40.561,16.944 C40.565,16.869 40.567,16.787 40.567,16.7 C40.567,16.303 40.488,15.996 40.329,15.778 C40.17,15.56 39.94,15.451 39.638,15.451 Z M43.684,19.187 C43.684,19.425 43.718,19.592 43.785,19.687 C43.852,19.782 43.969,19.83 44.136,19.83 C44.223,19.83 44.297,19.822 44.356,19.806 C44.415,19.79 44.461,19.774 44.493,19.758 L44.576,20.472 C44.528,20.496 44.441,20.528 44.314,20.567 C44.187,20.607 44.016,20.627 43.802,20.627 C43.477,20.627 43.215,20.528 43.017,20.329 C42.819,20.131 42.719,19.778 42.719,19.27 L42.719,12.106 L43.683,11.999 L43.683,19.187 L43.684,19.187 Z M47.885,15.594 L46.635,15.594 L46.635,18.759 C46.635,19.164 46.687,19.439 46.79,19.586 C46.893,19.733 47.068,19.806 47.314,19.806 C47.457,19.806 47.58,19.786 47.683,19.746 C47.786,19.706 47.861,19.671 47.909,19.639 L48.04,20.412 C48,20.444 47.905,20.493 47.754,20.561 C47.603,20.628 47.401,20.662 47.147,20.662 C46.655,20.662 46.286,20.525 46.04,20.251 C45.794,19.977 45.671,19.523 45.671,18.888 L45.671,15.592 L44.981,15.592 L44.981,14.949 L45.671,14.806 L45.778,13.211 L46.635,13.211 L46.635,14.806 L48.003,14.806 L47.885,15.594 Z M48.825,19.842 C48.825,19.628 48.886,19.467 49.009,19.36 C49.132,19.253 49.277,19.199 49.443,19.199 C49.673,19.199 49.861,19.294 50.008,19.485 C50.155,19.675 50.228,19.969 50.228,20.366 C50.228,20.636 50.186,20.872 50.103,21.074 C50.02,21.276 49.911,21.451 49.776,21.598 C49.641,21.745 49.492,21.866 49.33,21.961 C49.167,22.056 49.007,22.132 48.848,22.187 L48.646,21.771 C48.892,21.644 49.094,21.491 49.253,21.313 C49.412,21.134 49.499,20.871 49.515,20.522 L49.479,20.522 C49.297,20.522 49.142,20.465 49.015,20.349 C48.888,20.233 48.825,20.064 48.825,19.842 Z M59.404,12.309 L59.404,20.52 L58.464,20.52 L55.703,15.593 C55.536,15.292 55.38,15.002 55.233,14.724 C55.086,14.446 54.993,14.22 54.953,14.046 L54.929,14.046 C54.969,14.221 54.991,14.463 54.994,14.772 C54.998,15.081 55,15.407 55,15.748 L55,20.52 L53.965,20.52 L53.965,12.309 L54.905,12.309 L57.666,17.176 C57.833,17.477 57.989,17.767 58.136,18.045 C58.283,18.323 58.376,18.549 58.416,18.723 L58.44,18.723 C58.4,18.549 58.378,18.306 58.375,17.997 C58.371,17.688 58.369,17.362 58.369,17.021 L58.369,12.309 L59.404,12.309 L59.404,12.309 Z M60.749,19.068 C60.749,18.735 60.812,18.457 60.939,18.235 C61.066,18.013 61.237,17.832 61.451,17.693 C61.665,17.554 61.917,17.455 62.207,17.395 C62.497,17.336 62.804,17.306 63.129,17.306 L63.427,17.306 L63.427,16.76 C63.427,16.276 63.342,15.943 63.171,15.76 C63,15.578 62.76,15.486 62.451,15.486 C62.165,15.486 61.927,15.548 61.737,15.67 C61.547,15.793 61.396,15.902 61.285,15.997 L60.88,15.354 C60.943,15.291 61.025,15.219 61.124,15.14 C61.223,15.061 61.344,14.985 61.487,14.914 C61.63,14.843 61.792,14.783 61.975,14.735 C62.158,14.687 62.364,14.664 62.594,14.664 C63.181,14.664 63.625,14.827 63.927,15.152 C64.229,15.477 64.379,16.001 64.379,16.723 L64.379,19.329 C64.379,19.575 64.387,19.815 64.403,20.049 C64.419,20.283 64.435,20.44 64.451,20.519 L63.535,20.519 L63.499,19.888 L63.475,19.888 C63.443,19.959 63.396,20.041 63.332,20.132 C63.269,20.223 63.189,20.307 63.094,20.382 C62.999,20.457 62.884,20.523 62.749,20.578 C62.614,20.633 62.455,20.661 62.273,20.661 C62.059,20.661 61.858,20.621 61.672,20.542 C61.485,20.463 61.323,20.352 61.184,20.209 C61.045,20.066 60.938,19.898 60.863,19.703 C60.786,19.511 60.749,19.299 60.749,19.068 Z M62.474,19.842 C62.609,19.842 62.728,19.822 62.831,19.782 C62.934,19.742 63.023,19.695 63.099,19.639 C63.174,19.584 63.238,19.522 63.289,19.454 C63.341,19.387 63.386,19.329 63.426,19.281 L63.426,18.02 L63.117,18.032 C62.657,18.048 62.308,18.127 62.07,18.27 C61.832,18.413 61.713,18.643 61.713,18.96 C61.713,19.254 61.78,19.474 61.915,19.62 C62.05,19.769 62.236,19.842 62.474,19.842 Z M68.27,15.594 L67.021,15.594 L67.021,18.759 C67.021,19.164 67.073,19.439 67.176,19.586 C67.279,19.733 67.454,19.806 67.7,19.806 C67.843,19.806 67.966,19.786 68.069,19.746 C68.172,19.706 68.247,19.671 68.295,19.639 L68.426,20.412 C68.386,20.444 68.291,20.493 68.14,20.561 C67.989,20.628 67.787,20.662 67.533,20.662 C67.041,20.662 66.672,20.525 66.426,20.251 C66.18,19.977 66.057,19.523 66.057,18.888 L66.057,15.592 L65.367,15.592 L65.367,14.949 L66.057,14.806 L66.164,13.211 L67.021,13.211 L67.021,14.806 L68.389,14.806 L68.27,15.594 Z M73.363,20.52 L72.482,20.52 L72.482,19.877 L72.458,19.877 C72.434,19.925 72.383,19.994 72.303,20.085 C72.224,20.176 72.122,20.264 72,20.347 C71.877,20.43 71.728,20.504 71.554,20.567 C71.379,20.63 71.185,20.662 70.971,20.662 C70.717,20.662 70.489,20.624 70.287,20.549 C70.085,20.474 69.912,20.353 69.769,20.186 C69.626,20.019 69.517,19.803 69.442,19.537 C69.367,19.271 69.329,18.944 69.329,18.555 L69.329,14.807 L70.293,14.807 L70.293,18.484 C70.293,18.96 70.37,19.299 70.525,19.502 C70.68,19.704 70.92,19.805 71.245,19.805 C71.523,19.805 71.757,19.736 71.947,19.597 C72.137,19.458 72.288,19.321 72.399,19.187 L72.399,14.808 L73.363,14.808 L73.363,20.52 Z M77.349,15.653 C77.325,15.637 77.274,15.617 77.194,15.593 C77.115,15.569 77.008,15.557 76.873,15.557 C76.572,15.557 76.335,15.638 76.165,15.801 C75.994,15.964 75.873,16.14 75.802,16.331 L75.802,20.52 L74.838,20.52 L74.838,14.808 L75.719,14.808 L75.719,15.581 L75.743,15.581 C75.783,15.47 75.834,15.361 75.898,15.254 C75.962,15.147 76.041,15.052 76.136,14.968 C76.231,14.884 76.344,14.819 76.475,14.772 C76.606,14.724 76.763,14.701 76.945,14.701 C77.08,14.701 77.189,14.713 77.272,14.737 C77.355,14.761 77.421,14.781 77.468,14.797 L77.349,15.653 Z M80.717,15.963 C80.653,15.892 80.539,15.794 80.372,15.671 C80.205,15.548 79.987,15.487 79.718,15.487 C79.464,15.487 79.27,15.547 79.135,15.665 C79,15.784 78.933,15.927 78.933,16.093 C78.933,16.307 78.994,16.484 79.117,16.622 C79.24,16.761 79.428,16.91 79.682,17.068 L80.039,17.282 C80.428,17.512 80.733,17.76 80.955,18.026 C81.177,18.292 81.288,18.635 81.288,19.055 C81.288,19.507 81.131,19.888 80.818,20.197 C80.505,20.506 80.054,20.661 79.467,20.661 C79.237,20.661 79.035,20.637 78.86,20.59 C78.685,20.543 78.533,20.487 78.402,20.423 C78.271,20.36 78.162,20.29 78.075,20.215 C77.988,20.14 77.916,20.07 77.861,20.007 L78.325,19.245 C78.373,19.293 78.43,19.348 78.498,19.412 C78.565,19.475 78.647,19.537 78.742,19.596 C78.837,19.656 78.944,19.705 79.063,19.745 C79.182,19.785 79.321,19.805 79.479,19.805 C79.765,19.805 79.983,19.742 80.134,19.615 C80.285,19.488 80.36,19.333 80.36,19.151 C80.36,19.016 80.342,18.899 80.306,18.8 C80.27,18.701 80.217,18.612 80.145,18.532 C80.074,18.453 79.986,18.377 79.883,18.306 C79.78,18.235 79.661,18.155 79.526,18.068 L79.169,17.842 C78.812,17.612 78.532,17.37 78.33,17.116 C78.128,16.862 78.027,16.537 78.027,16.14 C78.027,15.926 78.069,15.729 78.152,15.551 C78.235,15.373 78.352,15.218 78.503,15.087 C78.654,14.956 78.83,14.853 79.033,14.778 C79.235,14.703 79.451,14.665 79.681,14.665 C79.903,14.665 80.094,14.687 80.252,14.73 C80.411,14.774 80.548,14.829 80.663,14.897 C80.778,14.964 80.873,15.032 80.949,15.099 C81.024,15.167 81.086,15.224 81.133,15.272 L80.717,15.963 Z M85.596,15.915 C85.572,15.891 85.534,15.856 85.483,15.808 C85.431,15.76 85.366,15.713 85.287,15.665 C85.208,15.617 85.113,15.576 85.001,15.54 C84.89,15.504 84.763,15.487 84.62,15.487 C84.414,15.487 84.221,15.525 84.043,15.6 C83.865,15.675 83.71,15.796 83.579,15.963 C83.448,16.13 83.345,16.346 83.27,16.612 C83.195,16.878 83.157,17.201 83.157,17.582 C83.157,18.003 83.191,18.355 83.258,18.641 C83.325,18.927 83.419,19.155 83.538,19.325 C83.657,19.496 83.802,19.619 83.972,19.694 C84.143,19.769 84.331,19.807 84.537,19.807 C84.831,19.807 85.055,19.755 85.209,19.652 C85.364,19.549 85.473,19.466 85.536,19.402 L85.929,20.068 C85.889,20.116 85.832,20.173 85.757,20.241 C85.682,20.309 85.584,20.374 85.465,20.437 C85.346,20.5 85.201,20.554 85.031,20.598 C84.86,20.642 84.664,20.663 84.442,20.663 C84.125,20.663 83.827,20.611 83.549,20.508 C83.271,20.405 83.029,20.234 82.823,19.996 C82.617,19.758 82.454,19.449 82.335,19.068 C82.216,18.687 82.157,18.215 82.157,17.652 C82.157,17.105 82.228,16.64 82.371,16.26 C82.514,15.879 82.7,15.572 82.93,15.338 C83.16,15.104 83.416,14.933 83.698,14.826 C83.98,14.719 84.263,14.665 84.549,14.665 C84.763,14.665 84.952,14.685 85.114,14.725 C85.277,14.765 85.415,14.814 85.531,14.874 C85.646,14.934 85.741,14.997 85.817,15.064 C85.892,15.131 85.954,15.189 86.001,15.237 L85.596,15.915 Z M90.13,20.52 L90.13,16.843 C90.13,16.359 90.049,16.012 89.886,15.802 C89.723,15.592 89.475,15.487 89.142,15.487 C88.856,15.487 88.618,15.558 88.428,15.701 C88.238,15.844 88.087,15.983 87.976,16.117 L87.976,20.52 L87.012,20.52 L87.012,12.107 L87.976,12 L87.976,15.391 L88,15.391 C88.032,15.343 88.081,15.28 88.149,15.201 C88.216,15.122 88.31,15.042 88.429,14.963 C88.548,14.884 88.693,14.814 88.863,14.755 C89.034,14.696 89.234,14.666 89.464,14.666 C89.964,14.666 90.361,14.829 90.654,15.154 C90.948,15.479 91.094,16.019 91.094,16.772 L91.094,20.52 L90.13,20.52 L90.13,20.52 Z M96.532,20.52 L95.651,20.52 L95.651,19.877 L95.627,19.877 C95.603,19.925 95.552,19.994 95.472,20.085 C95.393,20.176 95.292,20.264 95.169,20.347 C95.046,20.43 94.897,20.504 94.723,20.567 C94.549,20.63 94.354,20.662 94.14,20.662 C93.886,20.662 93.658,20.624 93.456,20.549 C93.254,20.474 93.081,20.353 92.938,20.186 C92.795,20.019 92.686,19.803 92.611,19.537 C92.536,19.271 92.498,18.944 92.498,18.555 L92.498,14.807 L93.462,14.807 L93.462,18.484 C93.462,18.96 93.539,19.299 93.694,19.502 C93.849,19.704 94.089,19.805 94.414,19.805 C94.692,19.805 94.926,19.736 95.116,19.597 C95.306,19.458 95.457,19.321 95.568,19.187 L95.568,14.808 L96.532,14.808 L96.532,20.52 Z M100.447,15.594 L99.198,15.594 L99.198,18.759 C99.198,19.164 99.25,19.439 99.353,19.586 C99.456,19.733 99.631,19.806 99.877,19.806 C100.02,19.806 100.143,19.786 100.246,19.746 C100.349,19.706 100.424,19.671 100.472,19.639 L100.603,20.412 C100.563,20.444 100.468,20.493 100.317,20.561 C100.166,20.628 99.964,20.662 99.71,20.662 C99.218,20.662 98.849,20.525 98.603,20.251 C98.357,19.977 98.234,19.523 98.234,18.888 L98.234,15.592 L97.544,15.592 L97.544,14.949 L98.234,14.806 L98.341,13.211 L99.198,13.211 L99.198,14.806 L100.566,14.806 L100.447,15.594 Z M104.731,15.427 L102.422,19.675 L102.422,19.699 L104.885,19.699 L104.802,20.52 L101.172,20.52 L101.172,19.901 L103.552,15.617 L103.552,15.593 L101.303,15.593 L101.303,14.808 L104.73,14.808 L104.73,15.427 L104.731,15.427 Z M105.79,19.842 C105.79,19.628 105.852,19.467 105.975,19.36 C106.098,19.253 106.243,19.199 106.409,19.199 C106.639,19.199 106.828,19.294 106.974,19.485 C107.121,19.675 107.194,19.969 107.194,20.366 C107.194,20.636 107.152,20.872 107.069,21.074 C106.986,21.276 106.877,21.451 106.742,21.598 C106.607,21.745 106.458,21.866 106.296,21.961 C106.133,22.056 105.973,22.132 105.814,22.187 L105.612,21.771 C105.858,21.644 106.06,21.491 106.219,21.313 C106.378,21.134 106.465,20.871 106.481,20.522 L106.445,20.522 C106.262,20.522 106.108,20.465 105.981,20.349 C105.854,20.233 105.79,20.064 105.79,19.842 Z M113.847,20.52 L113.847,16.843 C113.847,16.359 113.766,16.012 113.603,15.802 C113.44,15.592 113.192,15.487 112.859,15.487 C112.573,15.487 112.335,15.558 112.145,15.701 C111.955,15.844 111.804,15.983 111.693,16.117 L111.693,20.52 L110.729,20.52 L110.729,14.808 L111.61,14.808 L111.61,15.451 L111.634,15.451 C111.658,15.403 111.709,15.334 111.789,15.243 C111.868,15.152 111.972,15.065 112.098,14.981 C112.225,14.898 112.376,14.824 112.55,14.761 C112.725,14.698 112.923,14.666 113.145,14.666 C113.399,14.666 113.629,14.704 113.835,14.779 C114.041,14.854 114.216,14.975 114.359,15.142 C114.502,15.309 114.613,15.525 114.692,15.79 C114.771,16.056 114.811,16.383 114.811,16.772 L114.811,20.52 L113.847,20.52 Z M120.249,20.52 L119.368,20.52 L119.368,19.877 L119.344,19.877 C119.32,19.925 119.269,19.994 119.189,20.085 C119.11,20.176 119.008,20.264 118.886,20.347 C118.763,20.43 118.614,20.504 118.44,20.567 C118.265,20.63 118.071,20.662 117.857,20.662 C117.603,20.662 117.375,20.624 117.173,20.549 C116.971,20.474 116.798,20.353 116.655,20.186 C116.512,20.019 116.403,19.803 116.328,19.537 C116.253,19.271 116.215,18.944 116.215,18.555 L116.215,14.807 L117.179,14.807 L117.179,18.484 C117.179,18.96 117.256,19.299 117.411,19.502 C117.566,19.704 117.806,19.805 118.131,19.805 C118.409,19.805 118.643,19.736 118.833,19.597 C119.023,19.458 119.174,19.321 119.285,19.187 L119.285,14.808 L120.249,14.808 L120.249,20.52 Z M123.878,17.426 L125.842,20.52 L124.688,20.52 L123.082,17.854 L122.689,17.854 L122.689,20.52 L121.725,20.52 L121.725,12.107 L122.689,12 L122.689,17.034 L123.094,17.034 L124.629,14.809 L125.771,14.809 L123.878,17.426 Z M127.651,19.187 C127.651,19.425 127.685,19.592 127.752,19.687 C127.819,19.782 127.936,19.83 128.103,19.83 C128.19,19.83 128.264,19.822 128.323,19.806 C128.382,19.79 128.428,19.774 128.46,19.758 L128.543,20.472 C128.495,20.496 128.408,20.528 128.281,20.567 C128.154,20.607 127.983,20.627 127.769,20.627 C127.444,20.627 127.182,20.528 126.984,20.329 C126.786,20.13 126.686,19.778 126.686,19.27 L126.686,12.106 L127.65,11.999 L127.65,19.187 L127.651,19.187 Z M133.077,16.736 C133.077,16.982 133.069,17.194 133.053,17.373 C133.037,17.552 133.021,17.708 133.005,17.843 L130.09,17.843 C130.122,18.517 130.266,19.013 130.524,19.33 C130.782,19.647 131.153,19.806 131.637,19.806 C131.804,19.806 131.954,19.786 132.089,19.746 C132.224,19.706 132.341,19.659 132.44,19.603 C132.539,19.547 132.622,19.492 132.69,19.436 C132.757,19.381 132.807,19.337 132.839,19.305 L133.196,19.983 C133.156,20.023 133.097,20.08 133.017,20.156 C132.938,20.231 132.831,20.307 132.696,20.382 C132.561,20.457 132.394,20.523 132.196,20.578 C131.998,20.633 131.764,20.661 131.494,20.661 C131.137,20.661 130.814,20.601 130.524,20.483 C130.234,20.364 129.989,20.18 129.786,19.93 C129.583,19.68 129.427,19.363 129.316,18.978 C129.205,18.593 129.149,18.131 129.149,17.592 C129.149,17.084 129.206,16.646 129.322,16.277 C129.437,15.908 129.594,15.605 129.792,15.367 C129.99,15.129 130.22,14.953 130.482,14.837 C130.744,14.722 131.025,14.664 131.327,14.664 C131.874,14.664 132.303,14.837 132.612,15.182 C132.922,15.528 133.077,16.046 133.077,16.736 Z M131.268,15.451 C130.927,15.451 130.653,15.594 130.447,15.879 C130.241,16.165 130.122,16.577 130.09,17.117 L132.173,17.117 C132.181,17.077 132.187,17.02 132.191,16.944 C132.195,16.869 132.197,16.787 132.197,16.7 C132.197,16.303 132.118,15.996 131.959,15.778 C131.8,15.56 131.57,15.451 131.268,15.451 Z M134.029,19.068 C134.029,18.735 134.092,18.457 134.219,18.235 C134.346,18.013 134.517,17.832 134.731,17.693 C134.945,17.554 135.197,17.455 135.487,17.395 C135.777,17.336 136.084,17.306 136.409,17.306 L136.707,17.306 L136.707,16.76 C136.707,16.276 136.622,15.943 136.451,15.76 C136.28,15.578 136.04,15.486 135.731,15.486 C135.445,15.486 135.207,15.548 135.017,15.67 C134.827,15.793 134.676,15.902 134.565,15.997 L134.16,15.354 C134.223,15.291 134.305,15.219 134.404,15.14 C134.503,15.061 134.624,14.985 134.767,14.914 C134.91,14.843 135.072,14.783 135.255,14.735 C135.438,14.687 135.644,14.664 135.874,14.664 C136.461,14.664 136.905,14.827 137.207,15.152 C137.509,15.477 137.659,16.001 137.659,16.723 L137.659,19.329 C137.659,19.575 137.667,19.815 137.683,20.049 C137.699,20.283 137.715,20.44 137.731,20.519 L136.815,20.519 L136.778,19.89 L136.754,19.89 C136.722,19.961 136.675,20.043 136.611,20.134 C136.547,20.225 136.468,20.309 136.373,20.384 C136.278,20.459 136.163,20.525 136.028,20.58 C135.893,20.635 135.735,20.663 135.552,20.663 C135.338,20.663 135.138,20.623 134.951,20.544 C134.764,20.465 134.602,20.354 134.463,20.211 C134.324,20.068 134.217,19.9 134.142,19.705 C134.067,19.511 134.029,19.299 134.029,19.068 Z M135.754,19.842 C135.889,19.842 136.008,19.822 136.111,19.782 C136.214,19.742 136.303,19.695 136.379,19.639 C136.454,19.584 136.518,19.522 136.569,19.454 C136.62,19.387 136.666,19.329 136.706,19.281 L136.706,18.02 L136.397,18.032 C135.937,18.048 135.588,18.127 135.35,18.27 C135.112,18.413 134.993,18.643 134.993,18.96 C134.993,19.254 135.06,19.474 135.195,19.62 C135.33,19.769 135.517,19.842 135.754,19.842 Z M141.621,15.653 C141.597,15.637 141.546,15.617 141.466,15.593 C141.387,15.569 141.28,15.557 141.145,15.557 C140.844,15.557 140.608,15.638 140.437,15.801 C140.266,15.964 140.145,16.14 140.074,16.331 L140.074,20.52 L139.11,20.52 L139.11,14.808 L139.991,14.808 L139.991,15.581 L140.015,15.581 C140.055,15.47 140.106,15.361 140.17,15.254 C140.234,15.147 140.313,15.052 140.408,14.968 C140.503,14.884 140.616,14.819 140.747,14.772 C140.878,14.724 141.035,14.701 141.217,14.701 C141.352,14.701 141.461,14.713 141.544,14.737 C141.627,14.761 141.693,14.781 141.74,14.797 L141.621,15.653 Z M146.096,16.736 C146.096,16.982 146.088,17.194 146.072,17.373 C146.056,17.552 146.04,17.708 146.024,17.843 L143.109,17.843 C143.141,18.517 143.285,19.013 143.543,19.33 C143.801,19.647 144.172,19.806 144.656,19.806 C144.823,19.806 144.973,19.786 145.108,19.746 C145.243,19.706 145.36,19.659 145.459,19.603 C145.558,19.547 145.641,19.492 145.709,19.436 C145.776,19.381 145.826,19.337 145.858,19.305 L146.215,19.983 C146.175,20.023 146.116,20.08 146.037,20.156 C145.958,20.231 145.851,20.307 145.716,20.382 C145.581,20.457 145.415,20.523 145.216,20.578 C145.018,20.633 144.784,20.661 144.514,20.661 C144.157,20.661 143.834,20.601 143.544,20.483 C143.254,20.364 143.008,20.18 142.806,19.93 C142.604,19.68 142.447,19.363 142.336,18.978 C142.225,18.593 142.169,18.131 142.169,17.592 C142.169,17.084 142.226,16.646 142.342,16.277 C142.457,15.908 142.614,15.605 142.812,15.367 C143.01,15.129 143.24,14.953 143.502,14.837 C143.764,14.722 144.045,14.664 144.347,14.664 C144.894,14.664 145.323,14.837 145.632,15.182 C145.941,15.527 146.096,16.046 146.096,16.736 Z M144.287,15.451 C143.946,15.451 143.672,15.594 143.466,15.879 C143.26,16.165 143.141,16.577 143.109,17.117 L145.192,17.117 C145.2,17.077 145.206,17.02 145.21,16.944 C145.214,16.869 145.216,16.787 145.216,16.7 C145.216,16.303 145.137,15.996 144.978,15.778 C144.818,15.56 144.588,15.451 144.287,15.451 Z M153.212,13.571 C153.18,13.539 153.127,13.494 153.051,13.434 C152.976,13.375 152.88,13.317 152.765,13.262 C152.65,13.206 152.515,13.159 152.36,13.119 C152.205,13.079 152.033,13.06 151.842,13.06 C151.485,13.06 151.215,13.155 151.033,13.346 C150.851,13.537 150.759,13.758 150.759,14.012 C150.759,14.171 150.781,14.317 150.825,14.452 C150.869,14.587 150.936,14.72 151.027,14.851 C151.118,14.982 151.231,15.113 151.366,15.244 C151.501,15.375 151.664,15.516 151.854,15.667 L152.52,16.214 C152.71,16.373 152.891,16.535 153.062,16.702 C153.233,16.869 153.379,17.045 153.502,17.232 C153.625,17.419 153.722,17.621 153.794,17.839 C153.865,18.057 153.901,18.301 153.901,18.571 C153.901,19.198 153.707,19.703 153.318,20.088 C152.929,20.473 152.362,20.665 151.616,20.665 C151.322,20.665 151.063,20.637 150.837,20.582 C150.611,20.526 150.414,20.459 150.248,20.38 C150.082,20.301 149.943,20.219 149.831,20.136 C149.72,20.053 149.637,19.983 149.581,19.928 L149.998,19.024 C150.046,19.072 150.117,19.135 150.212,19.214 C150.307,19.293 150.422,19.373 150.557,19.452 C150.692,19.531 150.845,19.599 151.015,19.654 C151.185,19.709 151.378,19.737 151.592,19.737 C151.997,19.737 152.308,19.636 152.526,19.434 C152.744,19.232 152.853,18.992 152.853,18.714 C152.853,18.54 152.831,18.381 152.788,18.238 C152.744,18.095 152.681,17.958 152.598,17.827 C152.515,17.696 152.409,17.567 152.283,17.44 C152.156,17.313 152.005,17.178 151.831,17.035 L151.165,16.476 C150.935,16.286 150.733,16.105 150.558,15.934 C150.384,15.764 150.235,15.585 150.112,15.399 C149.989,15.213 149.896,15.01 149.832,14.792 C149.769,14.574 149.737,14.322 149.737,14.036 C149.737,13.774 149.787,13.528 149.886,13.298 C149.985,13.068 150.126,12.87 150.308,12.703 C150.49,12.536 150.711,12.405 150.968,12.31 C151.226,12.215 151.517,12.167 151.843,12.167 C152.113,12.167 152.351,12.193 152.557,12.244 C152.763,12.296 152.94,12.355 153.087,12.422 C153.234,12.49 153.351,12.559 153.438,12.63 C153.525,12.701 153.593,12.753 153.64,12.785 L153.212,13.571 Z M156.02,20.52 L155.056,20.52 L155.056,14.808 L156.02,14.808 L156.02,20.52 Z M155.544,13.428 C155.346,13.428 155.187,13.365 155.068,13.238 C154.949,13.111 154.89,12.945 154.89,12.738 C154.89,12.54 154.949,12.377 155.068,12.25 C155.187,12.123 155.346,12.06 155.544,12.06 C155.734,12.06 155.889,12.123 156.008,12.25 C156.127,12.377 156.186,12.54 156.186,12.738 C156.186,12.944 156.127,13.111 156.008,13.238 C155.889,13.365 155.735,13.428 155.544,13.428 Z M160.673,15.915 C160.649,15.891 160.611,15.856 160.56,15.808 C160.508,15.76 160.443,15.713 160.364,15.665 C160.285,15.617 160.19,15.576 160.078,15.54 C159.967,15.504 159.84,15.487 159.697,15.487 C159.491,15.487 159.298,15.525 159.12,15.6 C158.942,15.675 158.787,15.796 158.656,15.963 C158.525,16.13 158.422,16.346 158.347,16.612 C158.272,16.878 158.234,17.201 158.234,17.582 C158.234,18.003 158.268,18.355 158.335,18.641 C158.402,18.927 158.496,19.155 158.615,19.325 C158.734,19.496 158.879,19.619 159.049,19.694 C159.22,19.769 159.408,19.807 159.614,19.807 C159.907,19.807 160.132,19.755 160.286,19.652 C160.441,19.549 160.55,19.466 160.613,19.402 L161.006,20.068 C160.966,20.116 160.909,20.173 160.833,20.241 C160.758,20.309 160.66,20.374 160.541,20.437 C160.422,20.5 160.277,20.554 160.107,20.598 C159.936,20.642 159.74,20.663 159.518,20.663 C159.201,20.663 158.903,20.611 158.626,20.508 C158.348,20.405 158.106,20.234 157.9,19.996 C157.694,19.758 157.531,19.449 157.412,19.068 C157.293,18.687 157.234,18.215 157.234,17.652 C157.234,17.105 157.305,16.64 157.448,16.26 C157.591,15.879 157.777,15.572 158.007,15.338 C158.237,15.104 158.493,14.933 158.775,14.826 C159.057,14.719 159.34,14.665 159.626,14.665 C159.84,14.665 160.029,14.685 160.191,14.725 C160.354,14.765 160.492,14.814 160.608,14.874 C160.723,14.934 160.818,14.997 160.894,15.064 C160.969,15.131 161.031,15.189 161.078,15.237 L160.673,15.915 Z M165.207,20.52 L165.207,16.843 C165.207,16.359 165.126,16.012 164.963,15.802 C164.8,15.592 164.552,15.487 164.219,15.487 C163.933,15.487 163.695,15.558 163.505,15.701 C163.315,15.844 163.164,15.983 163.053,16.117 L163.053,20.52 L162.089,20.52 L162.089,12.107 L163.053,12 L163.053,15.391 L163.077,15.391 C163.109,15.343 163.158,15.28 163.226,15.201 C163.293,15.122 163.387,15.042 163.506,14.963 C163.625,14.884 163.77,14.814 163.94,14.755 C164.111,14.696 164.311,14.666 164.541,14.666 C165.041,14.666 165.437,14.829 165.731,15.154 C166.025,15.479 166.171,16.019 166.171,16.772 L166.171,20.52 L165.207,20.52 L165.207,20.52 Z M171.276,16.736 C171.276,16.982 171.268,17.194 171.252,17.373 C171.236,17.552 171.22,17.708 171.204,17.843 L168.289,17.843 C168.321,18.517 168.465,19.013 168.723,19.33 C168.981,19.647 169.352,19.806 169.836,19.806 C170.003,19.806 170.153,19.786 170.288,19.746 C170.423,19.706 170.54,19.659 170.639,19.603 C170.738,19.547 170.821,19.492 170.889,19.436 C170.956,19.381 171.006,19.337 171.038,19.305 L171.395,19.983 C171.355,20.023 171.296,20.08 171.217,20.156 C171.138,20.231 171.031,20.307 170.896,20.382 C170.761,20.457 170.595,20.523 170.396,20.578 C170.198,20.633 169.964,20.661 169.694,20.661 C169.337,20.661 169.014,20.601 168.724,20.483 C168.434,20.364 168.188,20.18 167.986,19.93 C167.784,19.68 167.627,19.363 167.516,18.978 C167.405,18.593 167.349,18.131 167.349,17.592 C167.349,17.084 167.406,16.646 167.522,16.277 C167.637,15.908 167.794,15.605 167.992,15.367 C168.19,15.129 168.42,14.953 168.682,14.837 C168.944,14.722 169.225,14.664 169.527,14.664 C170.074,14.664 170.503,14.837 170.812,15.182 C171.121,15.527 171.276,16.046 171.276,16.736 Z M169.467,15.451 C169.126,15.451 168.852,15.594 168.646,15.879 C168.44,16.164 168.321,16.577 168.289,17.117 L170.371,17.117 C170.379,17.077 170.385,17.02 170.389,16.944 C170.393,16.869 170.395,16.787 170.395,16.7 C170.395,16.303 170.316,15.996 170.157,15.778 C169.999,15.56 169.769,15.451 169.467,15.451 Z M175.072,15.653 C175.048,15.637 174.997,15.617 174.917,15.593 C174.838,15.569 174.731,15.557 174.596,15.557 C174.295,15.557 174.059,15.638 173.888,15.801 C173.717,15.964 173.596,16.14 173.525,16.331 L173.525,20.52 L172.561,20.52 L172.561,14.808 L173.442,14.808 L173.442,15.581 L173.466,15.581 C173.506,15.47 173.557,15.361 173.621,15.254 C173.685,15.147 173.764,15.052 173.859,14.968 C173.954,14.884 174.067,14.819 174.198,14.772 C174.329,14.724 174.486,14.701 174.668,14.701 C174.803,14.701 174.912,14.713 174.995,14.737 C175.078,14.761 175.144,14.781 175.191,14.797 L175.072,15.653 Z M179.142,20.52 L179.142,16.843 C179.142,16.359 179.061,16.012 178.898,15.802 C178.735,15.592 178.487,15.487 178.154,15.487 C177.868,15.487 177.63,15.558 177.44,15.701 C177.25,15.844 177.099,15.983 176.988,16.117 L176.988,20.52 L176.024,20.52 L176.024,12.107 L176.988,12 L176.988,15.391 L177.012,15.391 C177.044,15.343 177.093,15.28 177.161,15.201 C177.228,15.122 177.322,15.042 177.441,14.963 C177.56,14.884 177.705,14.814 177.875,14.755 C178.046,14.696 178.246,14.666 178.476,14.666 C178.976,14.666 179.372,14.829 179.666,15.154 C179.96,15.479 180.106,16.019 180.106,16.772 L180.106,20.52 L179.142,20.52 L179.142,20.52 Z M185.211,16.736 C185.211,16.982 185.203,17.194 185.187,17.373 C185.171,17.552 185.155,17.708 185.139,17.843 L182.224,17.843 C182.256,18.517 182.4,19.013 182.658,19.33 C182.916,19.647 183.287,19.806 183.771,19.806 C183.938,19.806 184.088,19.786 184.223,19.746 C184.358,19.706 184.475,19.659 184.574,19.603 C184.673,19.547 184.756,19.492 184.824,19.436 C184.891,19.381 184.941,19.337 184.973,19.305 L185.33,19.983 C185.29,20.023 185.231,20.08 185.151,20.156 C185.072,20.231 184.965,20.307 184.83,20.382 C184.695,20.457 184.529,20.523 184.33,20.578 C184.132,20.633 183.898,20.661 183.628,20.661 C183.271,20.661 182.948,20.601 182.658,20.483 C182.368,20.364 182.123,20.18 181.92,19.93 C181.717,19.68 181.561,19.363 181.45,18.978 C181.339,18.593 181.283,18.131 181.283,17.592 C181.283,17.084 181.34,16.646 181.456,16.277 C181.571,15.908 181.728,15.605 181.926,15.367 C182.124,15.129 182.354,14.953 182.616,14.837 C182.878,14.722 183.159,14.664 183.461,14.664 C184.008,14.664 184.437,14.837 184.746,15.182 C185.056,15.528 185.211,16.046 185.211,16.736 Z M183.402,15.451 C183.061,15.451 182.787,15.594 182.581,15.879 C182.375,16.164 182.256,16.577 182.224,17.117 L184.306,17.117 C184.314,17.077 184.32,17.02 184.324,16.944 C184.328,16.869 184.33,16.787 184.33,16.7 C184.33,16.303 184.251,15.996 184.092,15.778 C183.934,15.56 183.704,15.451 183.402,15.451 Z M187.46,20.52 L186.496,20.52 L186.496,14.808 L187.46,14.808 L187.46,20.52 Z M186.984,13.428 C186.786,13.428 186.627,13.365 186.508,13.238 C186.389,13.111 186.329,12.945 186.329,12.738 C186.329,12.54 186.389,12.377 186.508,12.25 C186.627,12.123 186.786,12.06 186.984,12.06 C187.174,12.06 187.329,12.123 187.448,12.25 C187.567,12.377 187.626,12.54 187.626,12.738 C187.626,12.944 187.567,13.111 187.448,13.238 C187.329,13.365 187.174,13.428 186.984,13.428 Z M191.375,15.594 L190.126,15.594 L190.126,18.759 C190.126,19.164 190.178,19.439 190.281,19.586 C190.384,19.733 190.559,19.806 190.805,19.806 C190.948,19.806 191.071,19.786 191.174,19.746 C191.277,19.706 191.352,19.671 191.4,19.639 L191.531,20.412 C191.491,20.444 191.396,20.493 191.245,20.561 C191.094,20.628 190.892,20.662 190.638,20.662 C190.146,20.662 189.777,20.525 189.531,20.251 C189.285,19.977 189.162,19.523 189.162,18.888 L189.162,15.592 L188.472,15.592 L188.472,14.949 L189.162,14.806 L189.269,13.211 L190.126,13.211 L190.126,14.806 L191.494,14.806 L191.375,15.594 Z M4.414,32.52 L3.533,32.52 L3.533,31.877 L3.509,31.877 C3.485,31.925 3.434,31.994 3.354,32.085 C3.275,32.176 3.174,32.264 3.051,32.347 C2.928,32.43 2.779,32.504 2.605,32.567 C2.431,32.63 2.236,32.662 2.022,32.662 C1.768,32.662 1.54,32.624 1.338,32.549 C1.136,32.474 0.963,32.353 0.82,32.186 C0.677,32.019 0.568,31.803 0.493,31.537 C0.418,31.271 0.38,30.944 0.38,30.555 L0.38,26.807 L1.344,26.807 L1.344,30.484 C1.344,30.96 1.421,31.299 1.576,31.502 C1.731,31.704 1.971,31.805 2.296,31.805 C2.574,31.805 2.808,31.736 2.998,31.597 C3.188,31.458 3.339,31.321 3.45,31.187 L3.45,26.808 L4.414,26.808 L4.414,32.52 Z M9.008,32.52 L9.008,28.843 C9.008,28.359 8.927,28.012 8.764,27.802 C8.601,27.592 8.353,27.487 8.02,27.487 C7.734,27.487 7.496,27.558 7.306,27.701 C7.116,27.844 6.965,27.983 6.854,28.117 L6.854,32.52 L5.89,32.52 L5.89,26.808 L6.771,26.808 L6.771,27.451 L6.795,27.451 C6.819,27.403 6.87,27.334 6.95,27.243 C7.029,27.152 7.132,27.065 7.259,26.981 C7.386,26.897 7.537,26.824 7.711,26.761 C7.885,26.698 8.084,26.666 8.306,26.666 C8.56,26.666 8.79,26.704 8.996,26.779 C9.202,26.854 9.377,26.975 9.52,27.142 C9.663,27.309 9.774,27.525 9.853,27.79 C9.932,28.056 9.972,28.383 9.972,28.772 L9.972,32.52 L9.008,32.52 Z M11.15,29.748 C11.15,29.169 11.225,28.685 11.376,28.296 C11.527,27.907 11.721,27.594 11.959,27.356 C12.197,27.118 12.467,26.949 12.768,26.85 C13.069,26.751 13.371,26.701 13.672,26.701 C13.855,26.701 14.013,26.715 14.148,26.743 C14.283,26.771 14.394,26.804 14.481,26.844 L14.481,24.107 L15.445,24 L15.445,32.52 L14.564,32.52 L14.564,31.913 L14.54,31.913 C14.516,31.961 14.473,32.026 14.409,32.109 C14.345,32.192 14.258,32.276 14.147,32.359 C14.036,32.442 13.897,32.514 13.731,32.573 C13.564,32.632 13.37,32.662 13.148,32.662 C12.878,32.662 12.622,32.609 12.38,32.501 C12.138,32.394 11.926,32.223 11.743,31.989 C11.56,31.755 11.416,31.454 11.309,31.085 C11.203,30.717 11.15,30.271 11.15,29.748 Z M13.411,31.806 C13.562,31.806 13.697,31.786 13.816,31.746 C13.935,31.706 14.038,31.657 14.125,31.597 C14.212,31.538 14.286,31.476 14.345,31.413 C14.404,31.35 14.45,31.294 14.482,31.246 L14.482,27.724 C14.395,27.669 14.294,27.621 14.179,27.581 C14.064,27.541 13.919,27.521 13.745,27.521 C13.523,27.521 13.315,27.559 13.12,27.634 C12.926,27.709 12.757,27.834 12.614,28.009 C12.471,28.184 12.358,28.41 12.275,28.687 C12.192,28.965 12.15,29.306 12.15,29.71 C12.15,30.107 12.184,30.438 12.251,30.704 C12.318,30.97 12.412,31.184 12.531,31.347 C12.65,31.51 12.785,31.627 12.936,31.698 C13.085,31.771 13.244,31.806 13.411,31.806 Z M24.632,24.309 L21.966,32.52 L21.145,32.52 L18.551,24.309 L19.67,24.309 L21.241,29.759 C21.328,30.06 21.406,30.35 21.473,30.628 C21.54,30.906 21.578,31.136 21.586,31.318 L21.61,31.318 C21.618,31.135 21.658,30.907 21.729,30.634 C21.8,30.36 21.88,30.073 21.967,29.771 L23.597,24.309 L24.632,24.309 Z M28.595,28.736 C28.595,28.982 28.587,29.194 28.571,29.373 C28.555,29.552 28.539,29.708 28.523,29.843 L25.608,29.843 C25.64,30.517 25.784,31.013 26.042,31.33 C26.3,31.647 26.671,31.806 27.155,31.806 C27.322,31.806 27.472,31.786 27.607,31.746 C27.742,31.706 27.859,31.659 27.958,31.603 C28.057,31.547 28.14,31.492 28.208,31.436 C28.275,31.381 28.325,31.337 28.357,31.305 L28.714,31.983 C28.674,32.023 28.615,32.08 28.535,32.156 C28.456,32.231 28.349,32.307 28.214,32.382 C28.079,32.457 27.913,32.523 27.714,32.578 C27.516,32.633 27.282,32.661 27.012,32.661 C26.655,32.661 26.332,32.601 26.042,32.483 C25.752,32.364 25.507,32.18 25.304,31.93 C25.101,31.68 24.945,31.363 24.834,30.978 C24.723,30.593 24.667,30.131 24.667,29.592 C24.667,29.084 24.725,28.646 24.84,28.277 C24.955,27.908 25.112,27.605 25.31,27.367 C25.508,27.129 25.738,26.953 26,26.837 C26.262,26.722 26.543,26.664 26.845,26.664 C27.392,26.664 27.821,26.837 28.13,27.182 C28.44,27.528 28.595,28.046 28.595,28.736 Z M26.786,27.451 C26.445,27.451 26.171,27.594 25.965,27.879 C25.759,28.164 25.64,28.577 25.608,29.117 L27.691,29.117 C27.699,29.077 27.705,29.02 27.709,28.944 C27.713,28.869 27.715,28.787 27.715,28.7 C27.715,28.303 27.636,27.996 27.477,27.778 C27.318,27.56 27.088,27.451 26.786,27.451 Z M32.391,27.653 C32.367,27.637 32.316,27.617 32.236,27.593 C32.157,27.569 32.05,27.557 31.915,27.557 C31.614,27.557 31.378,27.638 31.207,27.801 C31.036,27.964 30.915,28.14 30.844,28.331 L30.844,32.52 L29.88,32.52 L29.88,26.808 L30.761,26.808 L30.761,27.581 L30.785,27.581 C30.825,27.47 30.876,27.361 30.94,27.254 C31.004,27.147 31.083,27.052 31.178,26.968 C31.273,26.884 31.386,26.819 31.517,26.772 C31.648,26.724 31.805,26.701 31.987,26.701 C32.122,26.701 32.231,26.713 32.314,26.737 C32.397,26.761 32.463,26.781 32.51,26.797 L32.391,27.653 Z M37.603,29.402 C37.603,30.013 37.532,30.525 37.389,30.937 C37.246,31.349 37.056,31.681 36.818,31.931 C36.58,32.181 36.302,32.359 35.985,32.466 C35.668,32.573 35.331,32.627 34.974,32.627 C34.744,32.627 34.538,32.605 34.355,32.562 C34.173,32.518 34.014,32.467 33.879,32.407 C33.744,32.347 33.631,32.286 33.54,32.223 C33.449,32.16 33.379,32.108 33.332,32.068 L33.332,24.107 L34.296,24.024 L34.296,27.356 L34.32,27.356 C34.36,27.293 34.417,27.221 34.493,27.142 C34.568,27.063 34.662,26.987 34.773,26.916 C34.884,26.845 35.017,26.785 35.172,26.737 C35.327,26.689 35.499,26.666 35.69,26.666 C36.277,26.666 36.743,26.886 37.088,27.326 C37.433,27.766 37.603,28.458 37.603,29.402 Z M36.604,29.521 C36.604,28.807 36.497,28.289 36.283,27.968 C36.069,27.647 35.775,27.486 35.402,27.486 C35.101,27.486 34.868,27.549 34.706,27.676 C34.543,27.803 34.407,27.934 34.295,28.069 L34.295,31.579 C34.366,31.627 34.462,31.676 34.581,31.728 C34.7,31.78 34.843,31.805 35.009,31.805 C35.239,31.805 35.451,31.767 35.646,31.692 C35.84,31.617 36.009,31.49 36.152,31.311 C36.295,31.133 36.406,30.897 36.485,30.603 C36.564,30.311 36.604,29.95 36.604,29.521 Z M41.34,27.653 C41.316,27.637 41.265,27.617 41.185,27.593 C41.106,27.569 40.999,27.557 40.864,27.557 C40.563,27.557 40.327,27.638 40.156,27.801 C39.985,27.964 39.864,28.14 39.793,28.331 L39.793,32.52 L38.829,32.52 L38.829,26.808 L39.71,26.808 L39.71,27.581 L39.734,27.581 C39.774,27.47 39.825,27.361 39.889,27.254 C39.953,27.147 40.032,27.052 40.127,26.968 C40.222,26.884 40.335,26.819 40.466,26.772 C40.597,26.724 40.754,26.701 40.936,26.701 C41.071,26.701 41.18,26.713 41.263,26.737 C41.346,26.761 41.412,26.781 41.459,26.797 L41.34,27.653 Z M41.899,31.068 C41.899,30.735 41.962,30.457 42.089,30.235 C42.216,30.013 42.387,29.832 42.601,29.693 C42.815,29.554 43.067,29.455 43.357,29.395 C43.646,29.336 43.954,29.306 44.279,29.306 L44.577,29.306 L44.577,28.76 C44.577,28.276 44.492,27.943 44.321,27.76 C44.15,27.578 43.91,27.486 43.601,27.486 C43.315,27.486 43.077,27.548 42.887,27.67 C42.697,27.793 42.546,27.902 42.435,27.997 L42.03,27.354 C42.093,27.291 42.175,27.219 42.274,27.14 C42.373,27.061 42.494,26.985 42.637,26.914 C42.78,26.843 42.942,26.783 43.125,26.735 C43.308,26.687 43.514,26.664 43.744,26.664 C44.331,26.664 44.775,26.827 45.077,27.152 C45.379,27.477 45.529,28.001 45.529,28.723 L45.529,31.329 C45.529,31.575 45.537,31.815 45.553,32.049 C45.569,32.283 45.585,32.44 45.601,32.519 L44.685,32.519 L44.649,31.888 L44.625,31.888 C44.593,31.959 44.546,32.041 44.482,32.132 C44.419,32.223 44.339,32.307 44.244,32.382 C44.149,32.457 44.034,32.523 43.899,32.578 C43.764,32.633 43.605,32.661 43.423,32.661 C43.209,32.661 43.008,32.621 42.822,32.542 C42.635,32.463 42.473,32.352 42.334,32.209 C42.195,32.066 42.088,31.898 42.013,31.703 C41.937,31.511 41.899,31.299 41.899,31.068 Z M43.625,31.842 C43.76,31.842 43.879,31.822 43.982,31.782 C44.085,31.742 44.174,31.695 44.25,31.639 C44.325,31.584 44.389,31.522 44.44,31.454 C44.491,31.387 44.537,31.329 44.577,31.281 L44.577,30.02 L44.268,30.032 C43.808,30.048 43.459,30.127 43.221,30.27 C42.983,30.413 42.864,30.643 42.864,30.96 C42.864,31.254 42.931,31.474 43.066,31.62 C43.2,31.769 43.387,31.842 43.625,31.842 Z M50.979,32.52 L50.098,32.52 L50.098,31.877 L50.074,31.877 C50.05,31.925 49.999,31.994 49.919,32.085 C49.84,32.176 49.739,32.264 49.616,32.347 C49.493,32.43 49.344,32.504 49.17,32.567 C48.996,32.63 48.801,32.662 48.587,32.662 C48.333,32.662 48.105,32.624 47.903,32.549 C47.701,32.474 47.528,32.353 47.385,32.186 C47.242,32.019 47.133,31.803 47.058,31.537 C46.983,31.271 46.945,30.944 46.945,30.555 L46.945,26.807 L47.909,26.807 L47.909,30.484 C47.909,30.96 47.986,31.299 48.141,31.502 C48.296,31.704 48.536,31.805 48.861,31.805 C49.139,31.805 49.373,31.736 49.563,31.597 C49.753,31.458 49.904,31.321 50.015,31.187 L50.015,26.808 L50.979,26.808 L50.979,32.52 Z M55.632,27.915 C55.608,27.891 55.57,27.856 55.519,27.808 C55.467,27.76 55.402,27.713 55.323,27.665 C55.244,27.617 55.149,27.576 55.037,27.54 C54.926,27.504 54.799,27.487 54.656,27.487 C54.45,27.487 54.257,27.525 54.079,27.6 C53.9,27.675 53.746,27.796 53.615,27.963 C53.484,28.13 53.381,28.346 53.306,28.612 C53.231,28.878 53.193,29.201 53.193,29.582 C53.193,30.003 53.227,30.355 53.294,30.641 C53.361,30.927 53.455,31.155 53.574,31.325 C53.693,31.496 53.838,31.619 54.008,31.694 C54.179,31.769 54.367,31.807 54.573,31.807 C54.867,31.807 55.091,31.755 55.245,31.652 C55.4,31.549 55.509,31.466 55.572,31.402 L55.965,32.068 C55.925,32.116 55.868,32.173 55.792,32.241 C55.717,32.309 55.619,32.374 55.5,32.437 C55.381,32.5 55.236,32.554 55.066,32.598 C54.895,32.642 54.699,32.663 54.477,32.663 C54.16,32.663 53.862,32.611 53.584,32.508 C53.306,32.405 53.064,32.234 52.858,31.996 C52.652,31.758 52.489,31.449 52.37,31.068 C52.251,30.687 52.192,30.215 52.192,29.652 C52.192,29.105 52.263,28.64 52.406,28.26 C52.549,27.88 52.735,27.572 52.965,27.338 C53.195,27.104 53.451,26.933 53.733,26.826 C54.015,26.719 54.298,26.665 54.584,26.665 C54.798,26.665 54.987,26.685 55.149,26.725 C55.312,26.765 55.45,26.814 55.565,26.874 C55.68,26.934 55.775,26.997 55.851,27.064 C55.926,27.131 55.988,27.189 56.035,27.237 L55.632,27.915 Z M60.166,32.52 L60.166,28.843 C60.166,28.359 60.085,28.012 59.922,27.802 C59.759,27.592 59.511,27.487 59.178,27.487 C58.892,27.487 58.654,27.558 58.464,27.701 C58.274,27.844 58.123,27.983 58.012,28.117 L58.012,32.52 L57.048,32.52 L57.048,24.107 L58.012,24 L58.012,27.392 L58.036,27.392 C58.068,27.344 58.117,27.281 58.185,27.202 C58.252,27.123 58.346,27.043 58.465,26.964 C58.584,26.885 58.729,26.815 58.899,26.756 C59.07,26.697 59.27,26.667 59.5,26.667 C60,26.667 60.396,26.83 60.69,27.155 C60.983,27.48 61.13,28.02 61.13,28.773 L61.13,32.521 L60.166,32.521 L60.166,32.52 Z M66.235,28.736 C66.235,28.982 66.227,29.194 66.211,29.373 C66.195,29.552 66.179,29.708 66.163,29.843 L63.248,29.843 C63.28,30.517 63.424,31.013 63.682,31.33 C63.94,31.647 64.311,31.806 64.795,31.806 C64.962,31.806 65.112,31.786 65.247,31.746 C65.382,31.706 65.499,31.659 65.598,31.603 C65.697,31.547 65.78,31.492 65.848,31.436 C65.915,31.381 65.965,31.337 65.997,31.305 L66.354,31.983 C66.314,32.023 66.255,32.08 66.175,32.156 C66.096,32.231 65.989,32.307 65.854,32.382 C65.719,32.457 65.553,32.523 65.354,32.578 C65.156,32.633 64.922,32.661 64.652,32.661 C64.295,32.661 63.972,32.601 63.682,32.483 C63.392,32.364 63.147,32.18 62.944,31.93 C62.741,31.68 62.585,31.363 62.474,30.978 C62.363,30.593 62.307,30.131 62.307,29.592 C62.307,29.084 62.364,28.646 62.48,28.277 C62.595,27.908 62.752,27.605 62.95,27.367 C63.148,27.129 63.378,26.953 63.64,26.837 C63.902,26.722 64.183,26.664 64.485,26.664 C65.032,26.664 65.461,26.837 65.77,27.182 C66.079,27.527 66.235,28.046 66.235,28.736 Z M64.426,27.451 C64.085,27.451 63.811,27.594 63.605,27.879 C63.399,28.164 63.28,28.577 63.248,29.117 L65.33,29.117 C65.338,29.077 65.344,29.02 65.348,28.944 C65.352,28.869 65.354,28.787 65.354,28.7 C65.354,28.303 65.275,27.996 65.116,27.778 C64.957,27.56 64.727,27.451 64.426,27.451 Z M70.031,27.653 C70.007,27.637 69.956,27.617 69.876,27.593 C69.797,27.569 69.69,27.557 69.555,27.557 C69.254,27.557 69.017,27.638 68.847,27.801 C68.676,27.964 68.555,28.14 68.484,28.331 L68.484,32.52 L67.52,32.52 L67.52,26.808 L68.401,26.808 L68.401,27.581 L68.425,27.581 C68.465,27.47 68.516,27.361 68.58,27.254 C68.643,27.147 68.723,27.052 68.818,26.968 C68.913,26.885 69.026,26.819 69.157,26.772 C69.288,26.724 69.445,26.701 69.627,26.701 C69.762,26.701 69.871,26.713 69.954,26.737 C70.037,26.761 70.103,26.781 70.15,26.797 L70.031,27.653 Z M73.399,27.963 C73.335,27.892 73.221,27.794 73.054,27.671 C72.887,27.548 72.669,27.487 72.4,27.487 C72.146,27.487 71.952,27.547 71.817,27.665 C71.682,27.784 71.615,27.927 71.615,28.093 C71.615,28.307 71.676,28.484 71.799,28.622 C71.922,28.761 72.11,28.91 72.364,29.068 L72.721,29.282 C73.11,29.512 73.415,29.76 73.637,30.026 C73.859,30.292 73.97,30.635 73.97,31.055 C73.97,31.507 73.813,31.888 73.5,32.197 C73.187,32.506 72.736,32.661 72.149,32.661 C71.919,32.661 71.717,32.637 71.542,32.59 C71.367,32.542 71.215,32.487 71.084,32.423 C70.953,32.36 70.844,32.29 70.757,32.215 C70.67,32.14 70.598,32.07 70.543,32.007 L71.007,31.245 C71.055,31.293 71.112,31.348 71.18,31.412 C71.247,31.475 71.329,31.537 71.424,31.596 C71.519,31.656 71.626,31.705 71.745,31.745 C71.864,31.785 72.003,31.805 72.162,31.805 C72.448,31.805 72.666,31.742 72.817,31.615 C72.968,31.488 73.043,31.333 73.043,31.151 C73.043,31.016 73.025,30.899 72.99,30.8 C72.954,30.701 72.901,30.612 72.829,30.532 C72.758,30.453 72.67,30.377 72.567,30.306 C72.464,30.235 72.345,30.155 72.21,30.068 L71.853,29.842 C71.496,29.612 71.216,29.37 71.014,29.116 C70.812,28.862 70.711,28.537 70.711,28.14 C70.711,27.926 70.753,27.729 70.836,27.551 C70.919,27.373 71.036,27.218 71.187,27.087 C71.338,26.956 71.514,26.853 71.717,26.778 C71.919,26.703 72.135,26.665 72.365,26.665 C72.587,26.665 72.778,26.687 72.936,26.73 C73.095,26.774 73.232,26.829 73.347,26.897 C73.462,26.964 73.557,27.032 73.633,27.099 C73.708,27.167 73.77,27.224 73.817,27.272 L73.399,27.963 Z M78.278,27.915 C78.254,27.891 78.216,27.856 78.165,27.808 C78.113,27.76 78.048,27.713 77.969,27.665 C77.89,27.617 77.795,27.576 77.683,27.54 C77.572,27.504 77.445,27.487 77.302,27.487 C77.096,27.487 76.903,27.525 76.725,27.6 C76.547,27.675 76.392,27.796 76.261,27.963 C76.13,28.13 76.027,28.346 75.952,28.612 C75.877,28.878 75.839,29.201 75.839,29.582 C75.839,30.003 75.873,30.355 75.94,30.641 C76.007,30.927 76.101,31.155 76.22,31.325 C76.339,31.496 76.484,31.619 76.654,31.694 C76.824,31.769 77.013,31.807 77.219,31.807 C77.512,31.807 77.737,31.755 77.891,31.652 C78.046,31.549 78.155,31.466 78.218,31.402 L78.611,32.068 C78.571,32.116 78.514,32.173 78.438,32.241 C78.363,32.309 78.265,32.374 78.146,32.437 C78.027,32.5 77.882,32.554 77.712,32.598 C77.541,32.642 77.345,32.663 77.123,32.663 C76.806,32.663 76.508,32.611 76.231,32.508 C75.953,32.405 75.711,32.234 75.505,31.996 C75.299,31.758 75.136,31.449 75.017,31.068 C74.898,30.687 74.839,30.215 74.839,29.652 C74.839,29.105 74.91,28.64 75.053,28.26 C75.196,27.879 75.382,27.572 75.612,27.338 C75.842,27.104 76.098,26.933 76.38,26.826 C76.662,26.719 76.945,26.665 77.231,26.665 C77.445,26.665 77.634,26.685 77.796,26.725 C77.959,26.765 78.097,26.814 78.213,26.874 C78.328,26.934 78.423,26.997 78.499,27.064 C78.574,27.131 78.636,27.189 78.683,27.237 L78.278,27.915 Z M82.811,32.52 L82.811,28.843 C82.811,28.359 82.73,28.012 82.567,27.802 C82.404,27.592 82.156,27.487 81.823,27.487 C81.537,27.487 81.299,27.558 81.109,27.701 C80.919,27.844 80.768,27.983 80.657,28.117 L80.657,32.52 L79.693,32.52 L79.693,24.107 L80.657,24 L80.657,27.392 L80.681,27.392 C80.713,27.344 80.762,27.281 80.83,27.202 C80.897,27.123 80.991,27.043 81.11,26.964 C81.229,26.885 81.374,26.815 81.544,26.756 C81.714,26.697 81.915,26.667 82.145,26.667 C82.645,26.667 83.041,26.83 83.335,27.155 C83.629,27.48 83.775,28.02 83.775,28.773 L83.775,32.521 L82.811,32.521 L82.811,32.52 Z M89.214,32.52 L88.333,32.52 L88.333,31.877 L88.309,31.877 C88.285,31.925 88.234,31.994 88.154,32.085 C88.075,32.176 87.974,32.264 87.851,32.347 C87.728,32.43 87.579,32.504 87.405,32.567 C87.231,32.63 87.036,32.662 86.822,32.662 C86.568,32.662 86.34,32.624 86.138,32.549 C85.936,32.474 85.763,32.353 85.62,32.186 C85.477,32.019 85.368,31.803 85.293,31.537 C85.218,31.271 85.18,30.944 85.18,30.555 L85.18,26.807 L86.144,26.807 L86.144,30.484 C86.144,30.96 86.221,31.299 86.376,31.502 C86.531,31.704 86.771,31.805 87.096,31.805 C87.374,31.805 87.608,31.736 87.798,31.597 C87.988,31.458 88.139,31.321 88.25,31.187 L88.25,26.808 L89.214,26.808 L89.214,32.52 Z M93.129,27.594 L91.88,27.594 L91.88,30.759 C91.88,31.164 91.932,31.439 92.035,31.586 C92.138,31.733 92.313,31.806 92.559,31.806 C92.702,31.806 92.825,31.786 92.928,31.746 C93.031,31.706 93.106,31.671 93.154,31.639 L93.285,32.412 C93.245,32.444 93.15,32.493 92.999,32.561 C92.848,32.628 92.646,32.662 92.392,32.662 C91.9,32.662 91.531,32.525 91.285,32.251 C91.039,31.977 90.916,31.523 90.916,30.888 L90.916,27.592 L90.226,27.592 L90.226,26.949 L90.916,26.806 L91.023,25.211 L91.88,25.211 L91.88,26.806 L93.248,26.806 L93.129,27.594 Z M97.413,27.427 L95.104,31.675 L95.104,31.699 L97.567,31.699 L97.484,32.52 L93.854,32.52 L93.854,31.901 L96.234,27.617 L96.234,27.593 L93.985,27.593 L93.985,26.808 L97.412,26.808 L97.412,27.427 L97.413,27.427 Z" transform="translate(39.751 .437)"/></g></svg>