<?xml version="1.0" encoding="UTF-8"?>
<svg width="199px" height="39px" viewBox="0 0 199 39" version="1.1" xmlns="http://www.w3.org/2000/svg" xmlns:xlink="http://www.w3.org/1999/xlink">
    <!-- Generator: Sketch 52.5 (67469) - http://www.bohemiancoding.com/sketch -->
    <title>Fill 1</title>
    <desc>Created with Sketch.</desc>
    <g id="Symbols" stroke="none" stroke-width="1" fill="none" fill-rule="evenodd">
        <g id="header" transform="translate(-61.000000, -64.000000)" fill="#8195CB">
            <path d="M114.430137,65.0710793 L111.685101,64 L94.2575342,101.917362 L97.0395373,103 L114.338193,65.271425 L114.430137,65.0710793 Z M82.4126082,83.0567784 L86.156584,81.5844107 L84.6885636,79.0480181 L81.6407624,81.5120757 L81.9352978,77.3924795 L79.1098533,77.3924795 L79.4404781,81.5120757 L76.3204982,79.0480181 L74.9258206,81.5844107 L78.6686323,83.1291134 L74.9258206,84.6761496 L76.3542592,87.1390404 L79.4404781,84.6388154 L79.1098533,88.83308 L81.9352978,88.83308 L81.6046731,84.7123171 L84.650146,87.1390404 L86.156584,84.7123171 L82.4126082,83.0567784 Z M75.1144164,69.2734565 L77.6266987,68.2864334 L76.6406454,66.5853937 L74.5986884,68.2362656 L74.7977617,65.4747011 L72.8989979,65.4747011 L73.1213547,68.2362656 L71.0305025,66.5853937 L70.0945085,68.2864334 L72.6044625,69.3236243 L70.0945085,70.3608152 L71.0526217,72.0116871 L73.1213547,70.3328146 L72.8989979,73.1457136 L74.7977617,73.1457136 L74.5765691,70.3829824 L76.617362,72.0116871 L77.6266987,70.3829824 L75.1144164,69.2734565 Z M64.9581834,77.3901461 L66.9337826,76.6142946 L66.1572802,75.2725966 L64.548395,76.5734603 L64.704394,74.3975762 L63.211926,74.3975762 L63.3830593,76.5734603 L61.7380848,75.2725966 L61,76.6142946 L62.9802559,77.4274803 L61,78.2453327 L61.7567115,79.5485298 L63.3830593,78.2243322 L63.211926,80.439884 L64.704394,80.439884 L64.5286041,78.2639998 L66.1398176,79.5485298 L66.9337826,78.2639998 L64.9581834,77.3901461 Z M260,88.9415825 L260,72.6685358 L256.498172,72.6685358 L256.498172,84.0706354 L249.302427,72.6685358 L245.486273,72.6685358 L245.486273,88.9415825 L248.94037,88.9415825 L248.94037,77.5639835 L256.159398,88.9415825 L260,88.9415825 Z M241.18233,86.1158499 L233.572141,86.1158499 L233.572141,81.8772509 L240.524573,81.8772509 L240.524573,79.1495205 L233.572141,79.1495205 L233.572141,75.4919351 L240.940183,75.4919351 L240.940183,72.6685358 L229.97485,72.6685358 L229.97485,88.9415825 L241.18233,88.9415825 L241.18233,86.1158499 Z M216.164283,75.4452673 C216.77198,75.3717656 217.501916,75.3239311 218.08633,75.3239311 C221.511323,75.3239311 222.144632,77.5651502 222.144632,80.8038925 C222.144632,84.2153055 221.342518,86.164851 217.72078,86.164851 C217.306335,86.164851 216.675354,86.1403504 216.164283,86.065682 L216.164283,75.4452673 Z M217.986211,89.1364204 C221.780247,89.1364204 225.693027,87.8203897 225.693027,80.9753965 C225.693027,73.9845665 222.243587,72.5448662 218.109613,72.5448662 C216.359864,72.5448662 214.342354,72.7175369 212.566993,73.0080437 L212.566993,88.7234108 C214.414533,88.989417 215.50769,89.1364204 217.986211,89.1364204 Z M201.723898,80.9263953 C201.162768,80.9263953 200.581846,80.8528936 200.020715,80.7805586 L200.020715,75.2247622 C200.505011,75.1045927 201.113872,75.0800921 201.747182,75.0800921 C203.226844,75.0800921 204.807789,75.6144379 204.807789,78.0528282 C204.807789,80.4643845 203.397977,80.9263953 201.723898,80.9263953 Z M196.423425,88.9415825 L200.020715,88.9415825 L200.020715,83.0952793 C200.581846,83.2154488 201.135992,83.3146178 201.670346,83.3636189 L205.099996,88.9415825 L208.989493,88.9415825 L204.980086,83.0462782 C206.9487,82.4127634 208.261886,80.8038925 208.261886,77.9559926 C208.261886,73.3743856 205.053429,72.4981985 201.747182,72.4981985 C199.801851,72.4981985 197.807625,72.690703 196.423425,72.9602093 L196.423425,88.9415825 Z M188.714281,80.8038925 C188.714281,83.8501303 188.253269,86.2616866 185.11699,86.2616866 C181.979548,86.2616866 181.518536,83.8501303 181.518536,80.8038925 C181.518536,77.7366542 181.979548,75.2259289 185.11699,75.2259289 C188.276552,75.2259289 188.714281,77.7366542 188.714281,80.8038925 Z M192.189333,80.8038925 C192.189333,76.5162923 191.070564,72.3756956 185.140274,72.3756956 C179.255386,72.3756956 178.041156,76.5162923 178.041156,80.8038925 C178.041156,85.0914926 179.159924,89.2320893 185.066931,89.2320893 C191.023997,89.2320893 192.189333,85.0681587 192.189333,80.8038925 Z M173.807063,88.9415825 L173.807063,72.6685358 L170.305235,72.6685358 L170.305235,84.0706354 L163.112983,72.6685358 L159.295664,72.6685358 L159.295664,88.9415825 L162.747433,88.9415825 L162.747433,77.5639835 L169.966461,88.9415825 L173.807063,88.9415825 Z M141.205602,86.8718675 L144.777281,77.2956439 L145.288352,88.9415825 L148.643494,88.9415825 L147.598068,72.6673691 L143.564214,72.6673691 L139.748059,83.0217776 L135.879517,72.6673691 L131.845662,72.6673691 L130.800236,88.9415825 L134.106484,88.9415825 L134.640838,77.2734767 L138.191562,86.8718675 L141.205602,86.8718675 Z M122.798885,88.9404158 L126.396175,88.9404158 L126.396175,72.6673691 L122.798885,72.6673691 L122.798885,88.9404158 Z" id="Fill-1"></path>
        </g>
    </g>
</svg>